%TF.GenerationSoftware,KiCad,Pcbnew,9.0.1*%
%TF.CreationDate,2025-04-11T16:34:43+02:00*%
%TF.ProjectId,Driver_CMS,44726976-6572-45f4-934d-532e6b696361,rev?*%
%TF.SameCoordinates,Original*%
%TF.FileFunction,Legend,Top*%
%TF.FilePolarity,Positive*%
%FSLAX46Y46*%
G04 Gerber Fmt 4.6, Leading zero omitted, Abs format (unit mm)*
G04 Created by KiCad (PCBNEW 9.0.1) date 2025-04-11 16:34:43*
%MOMM*%
%LPD*%
G01*
G04 APERTURE LIST*
%ADD10C,0.100000*%
%ADD11C,0.125000*%
%ADD12C,0.160000*%
%ADD13C,0.150000*%
%ADD14C,0.120000*%
G04 APERTURE END LIST*
D10*
X120220000Y-48515000D02*
X121890000Y-48515000D01*
X121890000Y-51085000D01*
X120220000Y-51085000D01*
X120220000Y-48515000D01*
X120220000Y-45945000D02*
X124550000Y-45945000D01*
X124550000Y-48515000D01*
X120220000Y-48515000D01*
X120220000Y-45945000D01*
X121890000Y-51085000D02*
X124550000Y-51085000D01*
X124550000Y-53855000D01*
X121890000Y-53855000D01*
X121890000Y-51085000D01*
X136720000Y-43355000D02*
X140720000Y-43355000D01*
X140720000Y-48355000D01*
X136720000Y-48355000D01*
X136720000Y-43355000D01*
X129220000Y-56855000D02*
X133720000Y-56855000D01*
X133720000Y-69855000D01*
X129220000Y-69855000D01*
X129220000Y-56855000D01*
X120220000Y-45945000D02*
X124550000Y-45945000D01*
X124550000Y-53855000D01*
X120220000Y-53855000D01*
X120220000Y-45945000D01*
X129220000Y-43855000D02*
X133720000Y-43855000D01*
X133720000Y-56355000D01*
X129220000Y-56355000D01*
X129220000Y-43855000D01*
X125220000Y-43855000D02*
X129220000Y-43855000D01*
X129220000Y-53355000D01*
X125220000Y-53355000D01*
X125220000Y-43855000D01*
X125220000Y-45355000D02*
X127220000Y-45355000D01*
X127220000Y-53355000D01*
X125220000Y-53355000D01*
X125220000Y-45355000D01*
X136720000Y-65157500D02*
X140720000Y-65157500D01*
X140720000Y-70355000D01*
X136720000Y-70355000D01*
X136720000Y-65157500D01*
X121890000Y-48515000D02*
X125220000Y-48515000D01*
X125220000Y-51085000D01*
X121890000Y-51085000D01*
X121890000Y-48515000D01*
X127220000Y-45355000D02*
X129220000Y-45355000D01*
X129220000Y-53355000D01*
X127220000Y-53355000D01*
X127220000Y-45355000D01*
D11*
X120568642Y-50315621D02*
X120540071Y-50372764D01*
X120540071Y-50372764D02*
X120540071Y-50458478D01*
X120540071Y-50458478D02*
X120568642Y-50544192D01*
X120568642Y-50544192D02*
X120625785Y-50601335D01*
X120625785Y-50601335D02*
X120682928Y-50629906D01*
X120682928Y-50629906D02*
X120797214Y-50658478D01*
X120797214Y-50658478D02*
X120882928Y-50658478D01*
X120882928Y-50658478D02*
X120997214Y-50629906D01*
X120997214Y-50629906D02*
X121054357Y-50601335D01*
X121054357Y-50601335D02*
X121111500Y-50544192D01*
X121111500Y-50544192D02*
X121140071Y-50458478D01*
X121140071Y-50458478D02*
X121140071Y-50401335D01*
X121140071Y-50401335D02*
X121111500Y-50315621D01*
X121111500Y-50315621D02*
X121082928Y-50287049D01*
X121082928Y-50287049D02*
X120882928Y-50287049D01*
X120882928Y-50287049D02*
X120882928Y-50401335D01*
X121140071Y-50029906D02*
X120540071Y-50029906D01*
X120540071Y-50029906D02*
X121140071Y-49687049D01*
X121140071Y-49687049D02*
X120540071Y-49687049D01*
X121140071Y-49401335D02*
X120540071Y-49401335D01*
X120540071Y-49401335D02*
X120540071Y-49258478D01*
X120540071Y-49258478D02*
X120568642Y-49172764D01*
X120568642Y-49172764D02*
X120625785Y-49115621D01*
X120625785Y-49115621D02*
X120682928Y-49087050D01*
X120682928Y-49087050D02*
X120797214Y-49058478D01*
X120797214Y-49058478D02*
X120882928Y-49058478D01*
X120882928Y-49058478D02*
X120997214Y-49087050D01*
X120997214Y-49087050D02*
X121054357Y-49115621D01*
X121054357Y-49115621D02*
X121111500Y-49172764D01*
X121111500Y-49172764D02*
X121140071Y-49258478D01*
X121140071Y-49258478D02*
X121140071Y-49401335D01*
D12*
X137782405Y-69329727D02*
X137896691Y-69367822D01*
X137896691Y-69367822D02*
X137934786Y-69405918D01*
X137934786Y-69405918D02*
X137972882Y-69482108D01*
X137972882Y-69482108D02*
X137972882Y-69596394D01*
X137972882Y-69596394D02*
X137934786Y-69672584D01*
X137934786Y-69672584D02*
X137896691Y-69710680D01*
X137896691Y-69710680D02*
X137820501Y-69748775D01*
X137820501Y-69748775D02*
X137515739Y-69748775D01*
X137515739Y-69748775D02*
X137515739Y-68948775D01*
X137515739Y-68948775D02*
X137782405Y-68948775D01*
X137782405Y-68948775D02*
X137858596Y-68986870D01*
X137858596Y-68986870D02*
X137896691Y-69024965D01*
X137896691Y-69024965D02*
X137934786Y-69101156D01*
X137934786Y-69101156D02*
X137934786Y-69177346D01*
X137934786Y-69177346D02*
X137896691Y-69253537D01*
X137896691Y-69253537D02*
X137858596Y-69291632D01*
X137858596Y-69291632D02*
X137782405Y-69329727D01*
X137782405Y-69329727D02*
X137515739Y-69329727D01*
X139587167Y-68910680D02*
X138901453Y-69939251D01*
X140120500Y-69329727D02*
X140234786Y-69367822D01*
X140234786Y-69367822D02*
X140272881Y-69405918D01*
X140272881Y-69405918D02*
X140310977Y-69482108D01*
X140310977Y-69482108D02*
X140310977Y-69596394D01*
X140310977Y-69596394D02*
X140272881Y-69672584D01*
X140272881Y-69672584D02*
X140234786Y-69710680D01*
X140234786Y-69710680D02*
X140158596Y-69748775D01*
X140158596Y-69748775D02*
X139853834Y-69748775D01*
X139853834Y-69748775D02*
X139853834Y-68948775D01*
X139853834Y-68948775D02*
X140120500Y-68948775D01*
X140120500Y-68948775D02*
X140196691Y-68986870D01*
X140196691Y-68986870D02*
X140234786Y-69024965D01*
X140234786Y-69024965D02*
X140272881Y-69101156D01*
X140272881Y-69101156D02*
X140272881Y-69177346D01*
X140272881Y-69177346D02*
X140234786Y-69253537D01*
X140234786Y-69253537D02*
X140196691Y-69291632D01*
X140196691Y-69291632D02*
X140120500Y-69329727D01*
X140120500Y-69329727D02*
X139853834Y-69329727D01*
D11*
X126159378Y-45787309D02*
X125921283Y-45787309D01*
X125921283Y-45787309D02*
X125897474Y-46025404D01*
X125897474Y-46025404D02*
X125921283Y-46001595D01*
X125921283Y-46001595D02*
X125968902Y-45977785D01*
X125968902Y-45977785D02*
X126087950Y-45977785D01*
X126087950Y-45977785D02*
X126135569Y-46001595D01*
X126135569Y-46001595D02*
X126159378Y-46025404D01*
X126159378Y-46025404D02*
X126183188Y-46073023D01*
X126183188Y-46073023D02*
X126183188Y-46192071D01*
X126183188Y-46192071D02*
X126159378Y-46239690D01*
X126159378Y-46239690D02*
X126135569Y-46263500D01*
X126135569Y-46263500D02*
X126087950Y-46287309D01*
X126087950Y-46287309D02*
X125968902Y-46287309D01*
X125968902Y-46287309D02*
X125921283Y-46263500D01*
X125921283Y-46263500D02*
X125897474Y-46239690D01*
X126326045Y-45787309D02*
X126492711Y-46287309D01*
X126492711Y-46287309D02*
X126659378Y-45787309D01*
X127587948Y-46287309D02*
X127587948Y-45787309D01*
X127587948Y-45787309D02*
X127754615Y-46144452D01*
X127754615Y-46144452D02*
X127921281Y-45787309D01*
X127921281Y-45787309D02*
X127921281Y-46287309D01*
X128254615Y-45787309D02*
X128349853Y-45787309D01*
X128349853Y-45787309D02*
X128397472Y-45811119D01*
X128397472Y-45811119D02*
X128445091Y-45858738D01*
X128445091Y-45858738D02*
X128468901Y-45953976D01*
X128468901Y-45953976D02*
X128468901Y-46120642D01*
X128468901Y-46120642D02*
X128445091Y-46215880D01*
X128445091Y-46215880D02*
X128397472Y-46263500D01*
X128397472Y-46263500D02*
X128349853Y-46287309D01*
X128349853Y-46287309D02*
X128254615Y-46287309D01*
X128254615Y-46287309D02*
X128206996Y-46263500D01*
X128206996Y-46263500D02*
X128159377Y-46215880D01*
X128159377Y-46215880D02*
X128135568Y-46120642D01*
X128135568Y-46120642D02*
X128135568Y-45953976D01*
X128135568Y-45953976D02*
X128159377Y-45858738D01*
X128159377Y-45858738D02*
X128206996Y-45811119D01*
X128206996Y-45811119D02*
X128254615Y-45787309D01*
X128611759Y-45787309D02*
X128897473Y-45787309D01*
X128754616Y-46287309D02*
X128754616Y-45787309D01*
D13*
X129461541Y-63224819D02*
X130080588Y-63224819D01*
X130080588Y-63224819D02*
X129747255Y-63605771D01*
X129747255Y-63605771D02*
X129890112Y-63605771D01*
X129890112Y-63605771D02*
X129985350Y-63653390D01*
X129985350Y-63653390D02*
X130032969Y-63701009D01*
X130032969Y-63701009D02*
X130080588Y-63796247D01*
X130080588Y-63796247D02*
X130080588Y-64034342D01*
X130080588Y-64034342D02*
X130032969Y-64129580D01*
X130032969Y-64129580D02*
X129985350Y-64177200D01*
X129985350Y-64177200D02*
X129890112Y-64224819D01*
X129890112Y-64224819D02*
X129604398Y-64224819D01*
X129604398Y-64224819D02*
X129509160Y-64177200D01*
X129509160Y-64177200D02*
X129461541Y-64129580D01*
D11*
X125945093Y-45250595D02*
X125945093Y-44450595D01*
X125945093Y-44450595D02*
X126173664Y-44450595D01*
X126173664Y-44450595D02*
X126230807Y-44488690D01*
X126230807Y-44488690D02*
X126259378Y-44526785D01*
X126259378Y-44526785D02*
X126287950Y-44602976D01*
X126287950Y-44602976D02*
X126287950Y-44717261D01*
X126287950Y-44717261D02*
X126259378Y-44793452D01*
X126259378Y-44793452D02*
X126230807Y-44831547D01*
X126230807Y-44831547D02*
X126173664Y-44869642D01*
X126173664Y-44869642D02*
X125945093Y-44869642D01*
X126659378Y-44450595D02*
X126773664Y-44450595D01*
X126773664Y-44450595D02*
X126830807Y-44488690D01*
X126830807Y-44488690D02*
X126887950Y-44564880D01*
X126887950Y-44564880D02*
X126916521Y-44717261D01*
X126916521Y-44717261D02*
X126916521Y-44983928D01*
X126916521Y-44983928D02*
X126887950Y-45136309D01*
X126887950Y-45136309D02*
X126830807Y-45212500D01*
X126830807Y-45212500D02*
X126773664Y-45250595D01*
X126773664Y-45250595D02*
X126659378Y-45250595D01*
X126659378Y-45250595D02*
X126602236Y-45212500D01*
X126602236Y-45212500D02*
X126545093Y-45136309D01*
X126545093Y-45136309D02*
X126516521Y-44983928D01*
X126516521Y-44983928D02*
X126516521Y-44717261D01*
X126516521Y-44717261D02*
X126545093Y-44564880D01*
X126545093Y-44564880D02*
X126602236Y-44488690D01*
X126602236Y-44488690D02*
X126659378Y-44450595D01*
X127116521Y-44450595D02*
X127259378Y-45250595D01*
X127259378Y-45250595D02*
X127373664Y-44679166D01*
X127373664Y-44679166D02*
X127487949Y-45250595D01*
X127487949Y-45250595D02*
X127630807Y-44450595D01*
X127859378Y-44831547D02*
X128059378Y-44831547D01*
X128145092Y-45250595D02*
X127859378Y-45250595D01*
X127859378Y-45250595D02*
X127859378Y-44450595D01*
X127859378Y-44450595D02*
X128145092Y-44450595D01*
X128745092Y-45250595D02*
X128545092Y-44869642D01*
X128402235Y-45250595D02*
X128402235Y-44450595D01*
X128402235Y-44450595D02*
X128630806Y-44450595D01*
X128630806Y-44450595D02*
X128687949Y-44488690D01*
X128687949Y-44488690D02*
X128716520Y-44526785D01*
X128716520Y-44526785D02*
X128745092Y-44602976D01*
X128745092Y-44602976D02*
X128745092Y-44717261D01*
X128745092Y-44717261D02*
X128716520Y-44793452D01*
X128716520Y-44793452D02*
X128687949Y-44831547D01*
X128687949Y-44831547D02*
X128630806Y-44869642D01*
X128630806Y-44869642D02*
X128402235Y-44869642D01*
D12*
X139587167Y-43910680D02*
X138901453Y-44939251D01*
X139815738Y-44520203D02*
X140196691Y-44520203D01*
X139739548Y-44748775D02*
X140006215Y-43948775D01*
X140006215Y-43948775D02*
X140272881Y-44748775D01*
D13*
X129985350Y-66058152D02*
X129985350Y-66724819D01*
X129747255Y-65677200D02*
X129509160Y-66391485D01*
X129509160Y-66391485D02*
X130128207Y-66391485D01*
X129509160Y-60820057D02*
X129556779Y-60772438D01*
X129556779Y-60772438D02*
X129652017Y-60724819D01*
X129652017Y-60724819D02*
X129890112Y-60724819D01*
X129890112Y-60724819D02*
X129985350Y-60772438D01*
X129985350Y-60772438D02*
X130032969Y-60820057D01*
X130032969Y-60820057D02*
X130080588Y-60915295D01*
X130080588Y-60915295D02*
X130080588Y-61010533D01*
X130080588Y-61010533D02*
X130032969Y-61153390D01*
X130032969Y-61153390D02*
X129461541Y-61724819D01*
X129461541Y-61724819D02*
X130080588Y-61724819D01*
D11*
X120911500Y-53629906D02*
X120911500Y-53172764D01*
X121140071Y-53401335D02*
X120682928Y-53401335D01*
X121140071Y-52887049D02*
X120540071Y-52887049D01*
X120540071Y-52887049D02*
X120968642Y-52687049D01*
X120968642Y-52687049D02*
X120540071Y-52487049D01*
X120540071Y-52487049D02*
X121140071Y-52487049D01*
X120540071Y-52087050D02*
X120540071Y-51972764D01*
X120540071Y-51972764D02*
X120568642Y-51915621D01*
X120568642Y-51915621D02*
X120625785Y-51858478D01*
X120625785Y-51858478D02*
X120740071Y-51829907D01*
X120740071Y-51829907D02*
X120940071Y-51829907D01*
X120940071Y-51829907D02*
X121054357Y-51858478D01*
X121054357Y-51858478D02*
X121111500Y-51915621D01*
X121111500Y-51915621D02*
X121140071Y-51972764D01*
X121140071Y-51972764D02*
X121140071Y-52087050D01*
X121140071Y-52087050D02*
X121111500Y-52144193D01*
X121111500Y-52144193D02*
X121054357Y-52201335D01*
X121054357Y-52201335D02*
X120940071Y-52229907D01*
X120940071Y-52229907D02*
X120740071Y-52229907D01*
X120740071Y-52229907D02*
X120625785Y-52201335D01*
X120625785Y-52201335D02*
X120568642Y-52144193D01*
X120568642Y-52144193D02*
X120540071Y-52087050D01*
X120540071Y-51658479D02*
X120540071Y-51315622D01*
X121140071Y-51487050D02*
X120540071Y-51487050D01*
D12*
X129491929Y-69748775D02*
X129491929Y-68948775D01*
X129825262Y-69748775D02*
X129825262Y-68948775D01*
X129825262Y-68948775D02*
X130225262Y-69748775D01*
X130225262Y-69748775D02*
X130225262Y-68948775D01*
X130558595Y-69748775D02*
X130558595Y-68948775D01*
X130558595Y-68948775D02*
X130825262Y-68948775D01*
X130825262Y-68948775D02*
X130891929Y-68986870D01*
X130891929Y-68986870D02*
X130925262Y-69024965D01*
X130925262Y-69024965D02*
X130958595Y-69101156D01*
X130958595Y-69101156D02*
X130958595Y-69215441D01*
X130958595Y-69215441D02*
X130925262Y-69291632D01*
X130925262Y-69291632D02*
X130891929Y-69329727D01*
X130891929Y-69329727D02*
X130825262Y-69367822D01*
X130825262Y-69367822D02*
X130558595Y-69367822D01*
X131258595Y-68948775D02*
X131258595Y-69596394D01*
X131258595Y-69596394D02*
X131291929Y-69672584D01*
X131291929Y-69672584D02*
X131325262Y-69710680D01*
X131325262Y-69710680D02*
X131391929Y-69748775D01*
X131391929Y-69748775D02*
X131525262Y-69748775D01*
X131525262Y-69748775D02*
X131591929Y-69710680D01*
X131591929Y-69710680D02*
X131625262Y-69672584D01*
X131625262Y-69672584D02*
X131658595Y-69596394D01*
X131658595Y-69596394D02*
X131658595Y-68948775D01*
X131891928Y-68948775D02*
X132291928Y-68948775D01*
X132091928Y-69748775D02*
X132091928Y-68948775D01*
D11*
X120911500Y-48129906D02*
X120911500Y-47672764D01*
X121140071Y-47901335D02*
X120682928Y-47901335D01*
X120540071Y-47101335D02*
X120540071Y-47387049D01*
X120540071Y-47387049D02*
X120825785Y-47415621D01*
X120825785Y-47415621D02*
X120797214Y-47387049D01*
X120797214Y-47387049D02*
X120768642Y-47329907D01*
X120768642Y-47329907D02*
X120768642Y-47187049D01*
X120768642Y-47187049D02*
X120797214Y-47129907D01*
X120797214Y-47129907D02*
X120825785Y-47101335D01*
X120825785Y-47101335D02*
X120882928Y-47072764D01*
X120882928Y-47072764D02*
X121025785Y-47072764D01*
X121025785Y-47072764D02*
X121082928Y-47101335D01*
X121082928Y-47101335D02*
X121111500Y-47129907D01*
X121111500Y-47129907D02*
X121140071Y-47187049D01*
X121140071Y-47187049D02*
X121140071Y-47329907D01*
X121140071Y-47329907D02*
X121111500Y-47387049D01*
X121111500Y-47387049D02*
X121082928Y-47415621D01*
X120540071Y-46901335D02*
X121140071Y-46701335D01*
X121140071Y-46701335D02*
X120540071Y-46501335D01*
D12*
X137477643Y-44520203D02*
X137858596Y-44520203D01*
X137401453Y-44748775D02*
X137668120Y-43948775D01*
X137668120Y-43948775D02*
X137934786Y-44748775D01*
D13*
X129985350Y-54558152D02*
X129985350Y-55224819D01*
X129747255Y-54177200D02*
X129509160Y-54891485D01*
X129509160Y-54891485D02*
X130128207Y-54891485D01*
X130080588Y-59224819D02*
X129509160Y-59224819D01*
X129794874Y-59224819D02*
X129794874Y-58224819D01*
X129794874Y-58224819D02*
X129699636Y-58367676D01*
X129699636Y-58367676D02*
X129604398Y-58462914D01*
X129604398Y-58462914D02*
X129509160Y-58510533D01*
X129509160Y-49320057D02*
X129556779Y-49272438D01*
X129556779Y-49272438D02*
X129652017Y-49224819D01*
X129652017Y-49224819D02*
X129890112Y-49224819D01*
X129890112Y-49224819D02*
X129985350Y-49272438D01*
X129985350Y-49272438D02*
X130032969Y-49320057D01*
X130032969Y-49320057D02*
X130080588Y-49415295D01*
X130080588Y-49415295D02*
X130080588Y-49510533D01*
X130080588Y-49510533D02*
X130032969Y-49653390D01*
X130032969Y-49653390D02*
X129461541Y-50224819D01*
X129461541Y-50224819D02*
X130080588Y-50224819D01*
X129461541Y-51724819D02*
X130080588Y-51724819D01*
X130080588Y-51724819D02*
X129747255Y-52105771D01*
X129747255Y-52105771D02*
X129890112Y-52105771D01*
X129890112Y-52105771D02*
X129985350Y-52153390D01*
X129985350Y-52153390D02*
X130032969Y-52201009D01*
X130032969Y-52201009D02*
X130080588Y-52296247D01*
X130080588Y-52296247D02*
X130080588Y-52534342D01*
X130080588Y-52534342D02*
X130032969Y-52629580D01*
X130032969Y-52629580D02*
X129985350Y-52677200D01*
X129985350Y-52677200D02*
X129890112Y-52724819D01*
X129890112Y-52724819D02*
X129604398Y-52724819D01*
X129604398Y-52724819D02*
X129509160Y-52677200D01*
X129509160Y-52677200D02*
X129461541Y-52629580D01*
D12*
X129625263Y-44448775D02*
X129758596Y-44448775D01*
X129758596Y-44448775D02*
X129825263Y-44486870D01*
X129825263Y-44486870D02*
X129891929Y-44563060D01*
X129891929Y-44563060D02*
X129925263Y-44715441D01*
X129925263Y-44715441D02*
X129925263Y-44982108D01*
X129925263Y-44982108D02*
X129891929Y-45134489D01*
X129891929Y-45134489D02*
X129825263Y-45210680D01*
X129825263Y-45210680D02*
X129758596Y-45248775D01*
X129758596Y-45248775D02*
X129625263Y-45248775D01*
X129625263Y-45248775D02*
X129558596Y-45210680D01*
X129558596Y-45210680D02*
X129491929Y-45134489D01*
X129491929Y-45134489D02*
X129458596Y-44982108D01*
X129458596Y-44982108D02*
X129458596Y-44715441D01*
X129458596Y-44715441D02*
X129491929Y-44563060D01*
X129491929Y-44563060D02*
X129558596Y-44486870D01*
X129558596Y-44486870D02*
X129625263Y-44448775D01*
X130225262Y-44448775D02*
X130225262Y-45096394D01*
X130225262Y-45096394D02*
X130258596Y-45172584D01*
X130258596Y-45172584D02*
X130291929Y-45210680D01*
X130291929Y-45210680D02*
X130358596Y-45248775D01*
X130358596Y-45248775D02*
X130491929Y-45248775D01*
X130491929Y-45248775D02*
X130558596Y-45210680D01*
X130558596Y-45210680D02*
X130591929Y-45172584D01*
X130591929Y-45172584D02*
X130625262Y-45096394D01*
X130625262Y-45096394D02*
X130625262Y-44448775D01*
X130858595Y-44448775D02*
X131258595Y-44448775D01*
X131058595Y-45248775D02*
X131058595Y-44448775D01*
X131491928Y-45248775D02*
X131491928Y-44448775D01*
X131491928Y-44448775D02*
X131758595Y-44448775D01*
X131758595Y-44448775D02*
X131825262Y-44486870D01*
X131825262Y-44486870D02*
X131858595Y-44524965D01*
X131858595Y-44524965D02*
X131891928Y-44601156D01*
X131891928Y-44601156D02*
X131891928Y-44715441D01*
X131891928Y-44715441D02*
X131858595Y-44791632D01*
X131858595Y-44791632D02*
X131825262Y-44829727D01*
X131825262Y-44829727D02*
X131758595Y-44867822D01*
X131758595Y-44867822D02*
X131491928Y-44867822D01*
X132191928Y-44448775D02*
X132191928Y-45096394D01*
X132191928Y-45096394D02*
X132225262Y-45172584D01*
X132225262Y-45172584D02*
X132258595Y-45210680D01*
X132258595Y-45210680D02*
X132325262Y-45248775D01*
X132325262Y-45248775D02*
X132458595Y-45248775D01*
X132458595Y-45248775D02*
X132525262Y-45210680D01*
X132525262Y-45210680D02*
X132558595Y-45172584D01*
X132558595Y-45172584D02*
X132591928Y-45096394D01*
X132591928Y-45096394D02*
X132591928Y-44448775D01*
X132825261Y-44448775D02*
X133225261Y-44448775D01*
X133025261Y-45248775D02*
X133025261Y-44448775D01*
D13*
X130080588Y-47724819D02*
X129509160Y-47724819D01*
X129794874Y-47724819D02*
X129794874Y-46724819D01*
X129794874Y-46724819D02*
X129699636Y-46867676D01*
X129699636Y-46867676D02*
X129604398Y-46962914D01*
X129604398Y-46962914D02*
X129509160Y-47010533D01*
X152588095Y-47369819D02*
X152588095Y-48179342D01*
X152588095Y-48179342D02*
X152635714Y-48274580D01*
X152635714Y-48274580D02*
X152683333Y-48322200D01*
X152683333Y-48322200D02*
X152778571Y-48369819D01*
X152778571Y-48369819D02*
X152969047Y-48369819D01*
X152969047Y-48369819D02*
X153064285Y-48322200D01*
X153064285Y-48322200D02*
X153111904Y-48274580D01*
X153111904Y-48274580D02*
X153159523Y-48179342D01*
X153159523Y-48179342D02*
X153159523Y-47369819D01*
X153588095Y-47465057D02*
X153635714Y-47417438D01*
X153635714Y-47417438D02*
X153730952Y-47369819D01*
X153730952Y-47369819D02*
X153969047Y-47369819D01*
X153969047Y-47369819D02*
X154064285Y-47417438D01*
X154064285Y-47417438D02*
X154111904Y-47465057D01*
X154111904Y-47465057D02*
X154159523Y-47560295D01*
X154159523Y-47560295D02*
X154159523Y-47655533D01*
X154159523Y-47655533D02*
X154111904Y-47798390D01*
X154111904Y-47798390D02*
X153540476Y-48369819D01*
X153540476Y-48369819D02*
X154159523Y-48369819D01*
D14*
%TO.C,R5*%
X135197500Y-66405242D02*
X135197500Y-66879758D01*
X136242500Y-66405242D02*
X136242500Y-66879758D01*
%TO.C,D5*%
X138870000Y-57295000D02*
X138870000Y-59955000D01*
X140570000Y-57295000D02*
X138870000Y-57295000D01*
X140570000Y-57295000D02*
X140570000Y-59955000D01*
%TO.C,D4*%
X138870000Y-52795000D02*
X138870000Y-55455000D01*
X140570000Y-52795000D02*
X138870000Y-52795000D01*
X140570000Y-52795000D02*
X140570000Y-55455000D01*
%TO.C,D14*%
X127485000Y-47555000D02*
X127485000Y-49840000D01*
X127485000Y-49840000D02*
X128955000Y-49840000D01*
X128955000Y-49840000D02*
X128955000Y-47555000D01*
%TO.C,U2*%
X147750000Y-49665000D02*
X147750000Y-51415000D01*
X147750000Y-65765000D02*
X147750000Y-64015000D01*
X150600000Y-49665000D02*
X147750000Y-49665000D01*
X150600000Y-65765000D02*
X147750000Y-65765000D01*
X158950000Y-49665000D02*
X156100000Y-49665000D01*
X158950000Y-49665000D02*
X158950000Y-51415000D01*
X158950000Y-65765000D02*
X156100000Y-65765000D01*
X158950000Y-65765000D02*
X158950000Y-64015000D01*
X146525000Y-51415000D02*
X146285000Y-51085000D01*
X146765000Y-51085000D01*
X146525000Y-51415000D01*
G36*
X146525000Y-51415000D02*
G01*
X146285000Y-51085000D01*
X146765000Y-51085000D01*
X146525000Y-51415000D01*
G37*
%TO.C,D2*%
X136370000Y-52745000D02*
X136370000Y-55405000D01*
X138070000Y-52745000D02*
X136370000Y-52745000D01*
X138070000Y-52745000D02*
X138070000Y-55405000D01*
%TO.C,D3*%
X138870000Y-49245000D02*
X138870000Y-51905000D01*
X140570000Y-49245000D02*
X138870000Y-49245000D01*
X140570000Y-49245000D02*
X140570000Y-51905000D01*
%TO.C,D18*%
X136985000Y-46055000D02*
X136985000Y-48340000D01*
X136985000Y-48340000D02*
X138455000Y-48340000D01*
X138455000Y-48340000D02*
X138455000Y-46055000D01*
%TO.C,D7*%
X138870000Y-60795000D02*
X138870000Y-63455000D01*
X140570000Y-60795000D02*
X138870000Y-60795000D01*
X140570000Y-60795000D02*
X140570000Y-63455000D01*
%TO.C,J3*%
X121890000Y-51085000D02*
X121890000Y-45945000D01*
X121890000Y-53685000D02*
X121890000Y-52355000D01*
X123220000Y-53685000D02*
X121890000Y-53685000D01*
X124550000Y-45945000D02*
X121890000Y-45945000D01*
X124550000Y-51085000D02*
X121890000Y-51085000D01*
X124550000Y-51085000D02*
X124550000Y-45945000D01*
%TO.C,D15*%
X136985000Y-65842500D02*
X136985000Y-68127500D01*
X136985000Y-68127500D02*
X138455000Y-68127500D01*
X138455000Y-68127500D02*
X138455000Y-65842500D01*
%TO.C,R4*%
X127697500Y-51292742D02*
X127697500Y-51767258D01*
X128742500Y-51292742D02*
X128742500Y-51767258D01*
%TO.C,D16*%
X138985000Y-65157500D02*
X138985000Y-67442500D01*
X140455000Y-65157500D02*
X138985000Y-65157500D01*
X140455000Y-67442500D02*
X140455000Y-65157500D01*
%TO.C,D8*%
X136370000Y-60845000D02*
X136370000Y-63505000D01*
X138070000Y-60845000D02*
X136370000Y-60845000D01*
X138070000Y-60845000D02*
X138070000Y-63505000D01*
%TO.C,J2*%
X130840000Y-57435000D02*
X132220000Y-57435000D01*
X130840000Y-58815000D02*
X130840000Y-57435000D01*
X130840000Y-60085000D02*
X130840000Y-67815000D01*
X130840000Y-60085000D02*
X133600000Y-60085000D01*
X130840000Y-67815000D02*
X133600000Y-67815000D01*
X133600000Y-60085000D02*
X133600000Y-67815000D01*
%TO.C,D6*%
X136370000Y-57295000D02*
X136370000Y-59955000D01*
X138070000Y-57295000D02*
X136370000Y-57295000D01*
X138070000Y-57295000D02*
X138070000Y-59955000D01*
%TO.C,C2*%
X121310000Y-62546937D02*
X121310000Y-68302500D01*
X121310000Y-68302500D02*
X123660000Y-68302500D01*
X122374437Y-61482500D02*
X121310000Y-62546937D01*
X122374437Y-61482500D02*
X123660000Y-61482500D01*
X127065563Y-61482500D02*
X125780000Y-61482500D01*
X127065563Y-61482500D02*
X128130000Y-62546937D01*
X128130000Y-62546937D02*
X128130000Y-68302500D01*
X128130000Y-68302500D02*
X125780000Y-68302500D01*
%TO.C,C1*%
X123360580Y-43845000D02*
X123079420Y-43845000D01*
X123360580Y-44865000D02*
X123079420Y-44865000D01*
%TO.C,D1*%
X136370000Y-49245000D02*
X136370000Y-51905000D01*
X138070000Y-49245000D02*
X136370000Y-49245000D01*
X138070000Y-49245000D02*
X138070000Y-51905000D01*
%TO.C,R3*%
X125697500Y-51292742D02*
X125697500Y-51767258D01*
X126742500Y-51292742D02*
X126742500Y-51767258D01*
%TO.C,D17*%
X138985000Y-45370000D02*
X138985000Y-47655000D01*
X140455000Y-45370000D02*
X138985000Y-45370000D01*
X140455000Y-47655000D02*
X140455000Y-45370000D01*
%TO.C,J1*%
X130840000Y-45665000D02*
X132220000Y-45665000D01*
X130840000Y-47045000D02*
X130840000Y-45665000D01*
X130840000Y-48315000D02*
X130840000Y-56045000D01*
X130840000Y-48315000D02*
X133600000Y-48315000D01*
X130840000Y-56045000D02*
X133600000Y-56045000D01*
X133600000Y-48315000D02*
X133600000Y-56045000D01*
%TO.C,D19*%
X125485000Y-47555000D02*
X125485000Y-49840000D01*
X125485000Y-49840000D02*
X126955000Y-49840000D01*
X126955000Y-49840000D02*
X126955000Y-47555000D01*
%TO.C,R6*%
X135197500Y-46617742D02*
X135197500Y-47092258D01*
X136242500Y-46617742D02*
X136242500Y-47092258D01*
%TD*%
M02*
