%TF.GenerationSoftware,KiCad,Pcbnew,9.0.1*%
%TF.CreationDate,2025-04-10T17:15:12+02:00*%
%TF.ProjectId,projet_rubix_cube,70726f6a-6574-45f7-9275-6269785f6375,rev?*%
%TF.SameCoordinates,Original*%
%TF.FileFunction,Soldermask,Top*%
%TF.FilePolarity,Negative*%
%FSLAX46Y46*%
G04 Gerber Fmt 4.6, Leading zero omitted, Abs format (unit mm)*
G04 Created by KiCad (PCBNEW 9.0.1) date 2025-04-10 17:15:12*
%MOMM*%
%LPD*%
G01*
G04 APERTURE LIST*
G04 Aperture macros list*
%AMRoundRect*
0 Rectangle with rounded corners*
0 $1 Rounding radius*
0 $2 $3 $4 $5 $6 $7 $8 $9 X,Y pos of 4 corners*
0 Add a 4 corners polygon primitive as box body*
4,1,4,$2,$3,$4,$5,$6,$7,$8,$9,$2,$3,0*
0 Add four circle primitives for the rounded corners*
1,1,$1+$1,$2,$3*
1,1,$1+$1,$4,$5*
1,1,$1+$1,$6,$7*
1,1,$1+$1,$8,$9*
0 Add four rect primitives between the rounded corners*
20,1,$1+$1,$2,$3,$4,$5,0*
20,1,$1+$1,$4,$5,$6,$7,0*
20,1,$1+$1,$6,$7,$8,$9,0*
20,1,$1+$1,$8,$9,$2,$3,0*%
G04 Aperture macros list end*
%ADD10RoundRect,0.218750X-0.256250X0.218750X-0.256250X-0.218750X0.256250X-0.218750X0.256250X0.218750X0*%
%ADD11RoundRect,0.218750X0.256250X-0.218750X0.256250X0.218750X-0.256250X0.218750X-0.256250X-0.218750X0*%
%ADD12R,1.700000X1.700000*%
%ADD13C,1.700000*%
%ADD14C,3.500000*%
%ADD15R,1.800000X1.800000*%
%ADD16C,1.800000*%
%ADD17RoundRect,0.112500X-0.112500X0.187500X-0.112500X-0.187500X0.112500X-0.187500X0.112500X0.187500X0*%
%ADD18RoundRect,0.200000X-0.275000X0.200000X-0.275000X-0.200000X0.275000X-0.200000X0.275000X0.200000X0*%
%ADD19RoundRect,0.250000X-0.550000X1.412500X-0.550000X-1.412500X0.550000X-1.412500X0.550000X1.412500X0*%
%ADD20RoundRect,0.225000X0.225000X0.250000X-0.225000X0.250000X-0.225000X-0.250000X0.225000X-0.250000X0*%
G04 APERTURE END LIST*
D10*
%TO.C,D17*%
X140500000Y-33212500D03*
X140500000Y-34787500D03*
%TD*%
D11*
%TO.C,D19*%
X127000000Y-36287500D03*
X127000000Y-34712500D03*
%TD*%
D12*
%TO.C,J2*%
X133000000Y-45960000D03*
D13*
X133000000Y-48500000D03*
X133000000Y-51040000D03*
X133000000Y-53580000D03*
%TD*%
D14*
%TO.C,U2*%
X163820000Y-43995000D03*
D15*
X143280000Y-35105000D03*
D16*
X145820000Y-36375000D03*
X143280000Y-37645000D03*
X145820000Y-38915000D03*
X143280000Y-40185000D03*
X145820000Y-41455000D03*
X143280000Y-42725000D03*
X145820000Y-43995000D03*
X143280000Y-45265000D03*
X145820000Y-46535000D03*
X143280000Y-47805000D03*
X145820000Y-49075000D03*
X143280000Y-50345000D03*
X145820000Y-51615000D03*
X143280000Y-52885000D03*
%TD*%
D17*
%TO.C,D7*%
X140500000Y-48500000D03*
X140500000Y-50600000D03*
%TD*%
D11*
%TO.C,D15*%
X138500000Y-54575000D03*
X138500000Y-53000000D03*
%TD*%
D18*
%TO.C,R6*%
X136500000Y-33175000D03*
X136500000Y-34825000D03*
%TD*%
D17*
%TO.C,D8*%
X138000000Y-48550000D03*
X138000000Y-50650000D03*
%TD*%
%TO.C,D2*%
X138000000Y-40450000D03*
X138000000Y-42550000D03*
%TD*%
D18*
%TO.C,R3*%
X127000000Y-37850000D03*
X127000000Y-39500000D03*
%TD*%
D10*
%TO.C,D16*%
X140500000Y-53000000D03*
X140500000Y-54575000D03*
%TD*%
D17*
%TO.C,D6*%
X138000000Y-45000000D03*
X138000000Y-47100000D03*
%TD*%
D12*
%TO.C,J1*%
X133000000Y-34190000D03*
D13*
X133000000Y-36730000D03*
X133000000Y-39270000D03*
X133000000Y-41810000D03*
%TD*%
D12*
%TO.C,J3*%
X124000000Y-39500000D03*
D13*
X124000000Y-36960000D03*
X124000000Y-34420000D03*
%TD*%
D11*
%TO.C,D14*%
X129000000Y-36287500D03*
X129000000Y-34712500D03*
%TD*%
D17*
%TO.C,D1*%
X138000000Y-36950000D03*
X138000000Y-39050000D03*
%TD*%
%TO.C,D4*%
X140500000Y-40500000D03*
X140500000Y-42600000D03*
%TD*%
D18*
%TO.C,R4*%
X129000000Y-37850000D03*
X129000000Y-39500000D03*
%TD*%
%TO.C,R5*%
X136500000Y-52962500D03*
X136500000Y-54612500D03*
%TD*%
D14*
%TO.C,*%
X124000000Y-44000000D03*
%TD*%
D17*
%TO.C,D5*%
X140500000Y-45000000D03*
X140500000Y-47100000D03*
%TD*%
D19*
%TO.C,C2*%
X125500000Y-49500000D03*
X125500000Y-54575000D03*
%TD*%
D11*
%TO.C,D18*%
X138500000Y-34787500D03*
X138500000Y-33212500D03*
%TD*%
D17*
%TO.C,D3*%
X140500000Y-36950000D03*
X140500000Y-39050000D03*
%TD*%
D20*
%TO.C,C1*%
X124775000Y-31500000D03*
X123225000Y-31500000D03*
%TD*%
M02*
