M48
; DRILL file {KiCad 9.0.1} date 2025-04-09T21:36:35+0200
; FORMAT={-:-/ absolute / metric / decimal}
; #@! TF.CreationDate,2025-04-09T21:36:35+02:00
; #@! TF.GenerationSoftware,Kicad,Pcbnew,9.0.1
; #@! TF.FileFunction,Plated,1,2,PTH
FMAT,2
METRIC
; #@! TA.AperFunction,Plated,PTH,ComponentDrill
T1C1.000
%
G90
G05
T1
X124.0Y-34.42
X124.0Y-36.96
X124.0Y-39.5
X133.0Y-34.19
X133.0Y-36.73
X133.0Y-39.27
X133.0Y-41.81
X133.0Y-45.96
X133.0Y-48.5
X133.0Y-51.04
X133.0Y-53.58
X143.28Y-35.105
X143.28Y-37.645
X143.28Y-40.185
X143.28Y-42.725
X143.28Y-45.265
X143.28Y-47.805
X143.28Y-50.345
X143.28Y-52.885
X145.82Y-36.375
X145.82Y-38.915
X145.82Y-41.455
X145.82Y-43.995
X145.82Y-46.535
X145.82Y-49.075
X145.82Y-51.615
M30
