%TF.GenerationSoftware,KiCad,Pcbnew,9.0.1*%
%TF.CreationDate,2025-04-09T21:36:18+02:00*%
%TF.ProjectId,projet_rubix_cube,70726f6a-6574-45f7-9275-6269785f6375,rev?*%
%TF.SameCoordinates,Original*%
%TF.FileFunction,Copper,L1,Top*%
%TF.FilePolarity,Positive*%
%FSLAX46Y46*%
G04 Gerber Fmt 4.6, Leading zero omitted, Abs format (unit mm)*
G04 Created by KiCad (PCBNEW 9.0.1) date 2025-04-09 21:36:18*
%MOMM*%
%LPD*%
G01*
G04 APERTURE LIST*
G04 Aperture macros list*
%AMRoundRect*
0 Rectangle with rounded corners*
0 $1 Rounding radius*
0 $2 $3 $4 $5 $6 $7 $8 $9 X,Y pos of 4 corners*
0 Add a 4 corners polygon primitive as box body*
4,1,4,$2,$3,$4,$5,$6,$7,$8,$9,$2,$3,0*
0 Add four circle primitives for the rounded corners*
1,1,$1+$1,$2,$3*
1,1,$1+$1,$4,$5*
1,1,$1+$1,$6,$7*
1,1,$1+$1,$8,$9*
0 Add four rect primitives between the rounded corners*
20,1,$1+$1,$2,$3,$4,$5,0*
20,1,$1+$1,$4,$5,$6,$7,0*
20,1,$1+$1,$6,$7,$8,$9,0*
20,1,$1+$1,$8,$9,$2,$3,0*%
G04 Aperture macros list end*
%TA.AperFunction,SMDPad,CuDef*%
%ADD10RoundRect,0.218750X-0.256250X0.218750X-0.256250X-0.218750X0.256250X-0.218750X0.256250X0.218750X0*%
%TD*%
%TA.AperFunction,SMDPad,CuDef*%
%ADD11RoundRect,0.218750X0.256250X-0.218750X0.256250X0.218750X-0.256250X0.218750X-0.256250X-0.218750X0*%
%TD*%
%TA.AperFunction,ComponentPad*%
%ADD12R,1.700000X1.700000*%
%TD*%
%TA.AperFunction,ComponentPad*%
%ADD13C,1.700000*%
%TD*%
%TA.AperFunction,ComponentPad*%
%ADD14R,1.800000X1.800000*%
%TD*%
%TA.AperFunction,ComponentPad*%
%ADD15C,1.800000*%
%TD*%
%TA.AperFunction,SMDPad,CuDef*%
%ADD16RoundRect,0.112500X-0.112500X0.187500X-0.112500X-0.187500X0.112500X-0.187500X0.112500X0.187500X0*%
%TD*%
%TA.AperFunction,SMDPad,CuDef*%
%ADD17RoundRect,0.200000X-0.275000X0.200000X-0.275000X-0.200000X0.275000X-0.200000X0.275000X0.200000X0*%
%TD*%
%TA.AperFunction,SMDPad,CuDef*%
%ADD18RoundRect,0.250000X-0.550000X1.412500X-0.550000X-1.412500X0.550000X-1.412500X0.550000X1.412500X0*%
%TD*%
%TA.AperFunction,SMDPad,CuDef*%
%ADD19RoundRect,0.225000X0.225000X0.250000X-0.225000X0.250000X-0.225000X-0.250000X0.225000X-0.250000X0*%
%TD*%
%TA.AperFunction,Conductor*%
%ADD20C,0.500000*%
%TD*%
G04 APERTURE END LIST*
D10*
%TO.P,D17,1,K*%
%TO.N,out_bobine1*%
X140500000Y-33212500D03*
%TO.P,D17,2,A*%
%TO.N,Net-(D17-A)*%
X140500000Y-34787500D03*
%TD*%
D11*
%TO.P,D19,1,K*%
%TO.N,Net-(D19-K)*%
X127000000Y-36287500D03*
%TO.P,D19,2,A*%
%TO.N,+5V*%
X127000000Y-34712500D03*
%TD*%
D12*
%TO.P,J2,1,Pin_1*%
%TO.N,alim_bobine1*%
X133000000Y-45960000D03*
D13*
%TO.P,J2,2,Pin_2*%
%TO.N,alim_bobine2*%
X133000000Y-48500000D03*
%TO.P,J2,3,Pin_3*%
%TO.N,alim_bobine3*%
X133000000Y-51040000D03*
%TO.P,J2,4,Pin_4*%
%TO.N,alim_bobine4*%
X133000000Y-53580000D03*
%TD*%
D14*
%TO.P,U2,1,SENSE_A*%
%TO.N,GND*%
X143280000Y-35105000D03*
D15*
%TO.P,U2,2,OUT1*%
%TO.N,out_bobine1*%
X145820000Y-36375000D03*
%TO.P,U2,3,OUT2*%
%TO.N,out_bobine2*%
X143280000Y-37645000D03*
%TO.P,U2,4,Vs*%
%TO.N,+24V*%
X145820000Y-38915000D03*
%TO.P,U2,5,IN1*%
%TO.N,alim_bobine1*%
X143280000Y-40185000D03*
%TO.P,U2,6,EnA*%
%TO.N,+5V*%
X145820000Y-41455000D03*
%TO.P,U2,7,IN2*%
%TO.N,alim_bobine2*%
X143280000Y-42725000D03*
%TO.P,U2,8,GND*%
%TO.N,GND*%
X145820000Y-43995000D03*
%TO.P,U2,9,Vss*%
%TO.N,+5V*%
X143280000Y-45265000D03*
%TO.P,U2,10,IN3*%
%TO.N,alim_bobine3*%
X145820000Y-46535000D03*
%TO.P,U2,11,EnB*%
%TO.N,+5V*%
X143280000Y-47805000D03*
%TO.P,U2,12,IN4*%
%TO.N,alim_bobine4*%
X145820000Y-49075000D03*
%TO.P,U2,13,OUT3*%
%TO.N,out_bobine3*%
X143280000Y-50345000D03*
%TO.P,U2,14,OUT4*%
%TO.N,out_bobine4*%
X145820000Y-51615000D03*
%TO.P,U2,15,SENSE_B*%
%TO.N,GND*%
X143280000Y-52885000D03*
%TD*%
D16*
%TO.P,D7,1,K*%
%TO.N,out_bobine3*%
X140500000Y-48500000D03*
%TO.P,D7,2,A*%
%TO.N,GND*%
X140500000Y-50600000D03*
%TD*%
D11*
%TO.P,D15,1,K*%
%TO.N,out_bobine4*%
X138500000Y-54575000D03*
%TO.P,D15,2,A*%
%TO.N,Net-(D15-A)*%
X138500000Y-53000000D03*
%TD*%
D17*
%TO.P,R6,1*%
%TO.N,Net-(D17-A)*%
X136500000Y-33175000D03*
%TO.P,R6,2*%
%TO.N,out_bobine2*%
X136500000Y-34825000D03*
%TD*%
D16*
%TO.P,D8,1,K*%
%TO.N,out_bobine4*%
X138000000Y-48550000D03*
%TO.P,D8,2,A*%
%TO.N,GND*%
X138000000Y-50650000D03*
%TD*%
%TO.P,D2,1,K*%
%TO.N,out_bobine1*%
X138000000Y-40450000D03*
%TO.P,D2,2,A*%
%TO.N,GND*%
X138000000Y-42550000D03*
%TD*%
D17*
%TO.P,R3,1*%
%TO.N,Net-(D19-K)*%
X127000000Y-37850000D03*
%TO.P,R3,2*%
%TO.N,GND*%
X127000000Y-39500000D03*
%TD*%
D10*
%TO.P,D16,1,K*%
%TO.N,Net-(D15-A)*%
X140500000Y-53000000D03*
%TO.P,D16,2,A*%
%TO.N,out_bobine4*%
X140500000Y-54575000D03*
%TD*%
D16*
%TO.P,D6,1,K*%
%TO.N,+24V*%
X138000000Y-45000000D03*
%TO.P,D6,2,A*%
%TO.N,out_bobine4*%
X138000000Y-47100000D03*
%TD*%
D12*
%TO.P,J1,1,Pin_1*%
%TO.N,out_bobine1*%
X133000000Y-34190000D03*
D13*
%TO.P,J1,2,Pin_2*%
%TO.N,out_bobine2*%
X133000000Y-36730000D03*
%TO.P,J1,3,Pin_3*%
%TO.N,out_bobine3*%
X133000000Y-39270000D03*
%TO.P,J1,4,Pin_4*%
%TO.N,out_bobine4*%
X133000000Y-41810000D03*
%TD*%
D12*
%TO.P,J3,1,Pin_1*%
%TO.N,+24V*%
X124000000Y-39500000D03*
D13*
%TO.P,J3,2,Pin_2*%
%TO.N,GND*%
X124000000Y-36960000D03*
%TO.P,J3,3,Pin_3*%
%TO.N,+5V*%
X124000000Y-34420000D03*
%TD*%
D11*
%TO.P,D14,1,K*%
%TO.N,Net-(D14-K)*%
X129000000Y-36287500D03*
%TO.P,D14,2,A*%
%TO.N,+24V*%
X129000000Y-34712500D03*
%TD*%
D16*
%TO.P,D1,1,K*%
%TO.N,+24V*%
X138000000Y-36950000D03*
%TO.P,D1,2,A*%
%TO.N,out_bobine1*%
X138000000Y-39050000D03*
%TD*%
%TO.P,D4,1,K*%
%TO.N,out_bobine2*%
X140500000Y-40500000D03*
%TO.P,D4,2,A*%
%TO.N,GND*%
X140500000Y-42600000D03*
%TD*%
D17*
%TO.P,R4,1*%
%TO.N,Net-(D14-K)*%
X129000000Y-37850000D03*
%TO.P,R4,2*%
%TO.N,GND*%
X129000000Y-39500000D03*
%TD*%
%TO.P,R5,1*%
%TO.N,Net-(D15-A)*%
X136500000Y-52962500D03*
%TO.P,R5,2*%
%TO.N,out_bobine3*%
X136500000Y-54612500D03*
%TD*%
D16*
%TO.P,D5,1,K*%
%TO.N,+24V*%
X140500000Y-45000000D03*
%TO.P,D5,2,A*%
%TO.N,out_bobine3*%
X140500000Y-47100000D03*
%TD*%
D18*
%TO.P,C2,1*%
%TO.N,+24V*%
X125500000Y-49500000D03*
%TO.P,C2,2*%
%TO.N,GND*%
X125500000Y-54575000D03*
%TD*%
D11*
%TO.P,D18,1,K*%
%TO.N,Net-(D17-A)*%
X138500000Y-34787500D03*
%TO.P,D18,2,A*%
%TO.N,out_bobine1*%
X138500000Y-33212500D03*
%TD*%
D16*
%TO.P,D3,1,K*%
%TO.N,+24V*%
X140500000Y-36950000D03*
%TO.P,D3,2,A*%
%TO.N,out_bobine2*%
X140500000Y-39050000D03*
%TD*%
D19*
%TO.P,C1,1*%
%TO.N,GND*%
X124775000Y-31500000D03*
%TO.P,C1,2*%
%TO.N,+5V*%
X123225000Y-31500000D03*
%TD*%
D20*
%TO.N,+5V*%
X126707500Y-34420000D02*
X127000000Y-34712500D01*
X124000000Y-32275000D02*
X123225000Y-31500000D01*
X124000000Y-34420000D02*
X126707500Y-34420000D01*
X124000000Y-34420000D02*
X124000000Y-32275000D01*
%TO.N,GND*%
X127000000Y-39500000D02*
X129000000Y-39500000D01*
X138000000Y-50650000D02*
X140450000Y-50650000D01*
X124460000Y-36960000D02*
X127000000Y-39500000D01*
X140450000Y-50650000D02*
X140500000Y-50600000D01*
X124000000Y-36960000D02*
X124460000Y-36960000D01*
X140450000Y-42550000D02*
X140500000Y-42600000D01*
X138000000Y-42550000D02*
X140450000Y-42550000D01*
%TO.N,+24V*%
X147071000Y-37664000D02*
X147071000Y-33571000D01*
X136500000Y-43500000D02*
X133799700Y-43500000D01*
X144356250Y-30856250D02*
X132856250Y-30856250D01*
X138000000Y-45000000D02*
X140500000Y-45000000D01*
X138000000Y-45000000D02*
X136500000Y-43500000D01*
X131000000Y-36712500D02*
X131000000Y-43500000D01*
X136500000Y-40799700D02*
X133799700Y-43500000D01*
X132856250Y-30856250D02*
X129000000Y-34712500D01*
X125500000Y-49500000D02*
X125500000Y-47500000D01*
X145820000Y-38915000D02*
X147071000Y-37664000D01*
X129000000Y-34712500D02*
X131000000Y-36712500D01*
X136500000Y-38450000D02*
X136500000Y-40799700D01*
X124000000Y-39500000D02*
X126500000Y-42000000D01*
X147071000Y-33571000D02*
X144356250Y-30856250D01*
X128000000Y-43500000D02*
X126500000Y-42000000D01*
X128000000Y-45000000D02*
X128000000Y-43500000D01*
X131000000Y-43500000D02*
X128000000Y-43500000D01*
X133799700Y-43500000D02*
X131000000Y-43500000D01*
X125500000Y-47500000D02*
X128000000Y-45000000D01*
X138000000Y-36950000D02*
X140500000Y-36950000D01*
X138000000Y-36950000D02*
X136500000Y-38450000D01*
%TO.N,alim_bobine3*%
X131000000Y-53040000D02*
X131000000Y-54500000D01*
X131000000Y-54500000D02*
X134000000Y-57500000D01*
X148500000Y-55818309D02*
X148500000Y-49215000D01*
X148500000Y-49215000D02*
X145820000Y-46535000D01*
X134000000Y-57500000D02*
X146818309Y-57500000D01*
X133000000Y-51040000D02*
X131000000Y-53040000D01*
X146818309Y-57500000D02*
X148500000Y-55818309D01*
%TO.N,alim_bobine4*%
X133000000Y-54790000D02*
X134710000Y-56500000D01*
X133000000Y-53580000D02*
X133000000Y-54790000D01*
X147500000Y-55000000D02*
X147500000Y-50755000D01*
X147500000Y-50755000D02*
X145820000Y-49075000D01*
X134710000Y-56500000D02*
X146000000Y-56500000D01*
X146000000Y-56500000D02*
X147500000Y-55000000D01*
%TO.N,out_bobine1*%
X145820000Y-34320000D02*
X144712500Y-33212500D01*
X138000000Y-39500000D02*
X139500000Y-38000000D01*
X139500000Y-38000000D02*
X141000000Y-38000000D01*
X145820000Y-36375000D02*
X145820000Y-34320000D01*
X141500000Y-37500000D02*
X141500000Y-34212500D01*
X135190000Y-32000000D02*
X137287500Y-32000000D01*
X144712500Y-33212500D02*
X140500000Y-33212500D01*
X138000000Y-39500000D02*
X138000000Y-39050000D01*
X138000000Y-40450000D02*
X138000000Y-39500000D01*
X138500000Y-33212500D02*
X140500000Y-33212500D01*
X137287500Y-32000000D02*
X138500000Y-33212500D01*
X141500000Y-34212500D02*
X140500000Y-33212500D01*
X141000000Y-38000000D02*
X141500000Y-37500000D01*
X133000000Y-34190000D02*
X135190000Y-32000000D01*
%TO.N,out_bobine2*%
X134595000Y-36730000D02*
X136500000Y-34825000D01*
X140500000Y-39050000D02*
X141875000Y-39050000D01*
X141875000Y-39050000D02*
X143280000Y-37645000D01*
X133000000Y-36730000D02*
X134595000Y-36730000D01*
X140500000Y-40500000D02*
X140500000Y-39050000D01*
%TO.N,out_bobine3*%
X141435000Y-48500000D02*
X143280000Y-50345000D01*
X135500000Y-52000000D02*
X138000000Y-49500000D01*
X140500000Y-47100000D02*
X140500000Y-48500000D01*
X136500000Y-54612500D02*
X135500000Y-53612500D01*
X139500000Y-49500000D02*
X140500000Y-48500000D01*
X138000000Y-49500000D02*
X139500000Y-49500000D01*
X140500000Y-48500000D02*
X141435000Y-48500000D01*
X135500000Y-53612500D02*
X135500000Y-52000000D01*
%TO.N,out_bobine4*%
X138000000Y-48550000D02*
X136950000Y-48550000D01*
X134500000Y-51000000D02*
X134500000Y-54500000D01*
X145820000Y-52887792D02*
X145820000Y-51615000D01*
X136950000Y-48550000D02*
X134500000Y-51000000D01*
X140500000Y-54575000D02*
X144132792Y-54575000D01*
X138000000Y-47100000D02*
X138000000Y-48550000D01*
X140500000Y-54575000D02*
X138500000Y-54575000D01*
X134500000Y-54500000D02*
X135363500Y-55363500D01*
X144132792Y-54575000D02*
X145820000Y-52887792D01*
X135363500Y-55363500D02*
X137711500Y-55363500D01*
X137711500Y-55363500D02*
X138500000Y-54575000D01*
%TO.N,Net-(D14-K)*%
X129000000Y-37850000D02*
X129000000Y-36287500D01*
%TO.N,Net-(D15-A)*%
X138462500Y-52962500D02*
X138500000Y-53000000D01*
X140500000Y-53000000D02*
X138500000Y-53000000D01*
X136500000Y-52962500D02*
X138462500Y-52962500D01*
%TO.N,Net-(D17-A)*%
X138500000Y-34787500D02*
X140500000Y-34787500D01*
X136500000Y-33175000D02*
X136675000Y-33175000D01*
X138287500Y-34787500D02*
X138500000Y-34787500D01*
X136675000Y-33175000D02*
X138287500Y-34787500D01*
%TO.N,Net-(D19-K)*%
X127000000Y-36287500D02*
X127000000Y-37850000D01*
%TD*%
%TA.AperFunction,Conductor*%
%TO.N,GND*%
G36*
X166925000Y-30020462D02*
G01*
X166979538Y-30075000D01*
X166999500Y-30149500D01*
X166999500Y-58850500D01*
X166979538Y-58925000D01*
X166925000Y-58979538D01*
X166850500Y-58999500D01*
X120649500Y-58999500D01*
X120575000Y-58979538D01*
X120520462Y-58925000D01*
X120500500Y-58850500D01*
X120500500Y-43868876D01*
X121999500Y-43868876D01*
X121999500Y-44131123D01*
X122033728Y-44391107D01*
X122033728Y-44391110D01*
X122101600Y-44644415D01*
X122101600Y-44644416D01*
X122201959Y-44886701D01*
X122231135Y-44937235D01*
X122330189Y-45108803D01*
X122333078Y-45113806D01*
X122333078Y-45113807D01*
X122492715Y-45321848D01*
X122678151Y-45507284D01*
X122824148Y-45619312D01*
X122886197Y-45666924D01*
X123113303Y-45798043D01*
X123317809Y-45882752D01*
X123355583Y-45898399D01*
X123443332Y-45921910D01*
X123608884Y-45966270D01*
X123608890Y-45966270D01*
X123608891Y-45966271D01*
X123645834Y-45971134D01*
X123868877Y-46000499D01*
X123868878Y-46000500D01*
X123868880Y-46000500D01*
X124131122Y-46000500D01*
X124131122Y-46000499D01*
X124391108Y-45966271D01*
X124391110Y-45966271D01*
X124391111Y-45966270D01*
X124391116Y-45966270D01*
X124644415Y-45898399D01*
X124644416Y-45898399D01*
X124644417Y-45898398D01*
X124644419Y-45898398D01*
X124886697Y-45798043D01*
X125113803Y-45666924D01*
X125321848Y-45507284D01*
X125321849Y-45507284D01*
X125507284Y-45321849D01*
X125507284Y-45321848D01*
X125511119Y-45316851D01*
X125666924Y-45113803D01*
X125798043Y-44886697D01*
X125898398Y-44644419D01*
X125966270Y-44391116D01*
X126000500Y-44131120D01*
X126000500Y-43868880D01*
X125966270Y-43608884D01*
X125898398Y-43355581D01*
X125798043Y-43113303D01*
X125666924Y-42886197D01*
X125666921Y-42886193D01*
X125666921Y-42886192D01*
X125507284Y-42678151D01*
X125321848Y-42492715D01*
X125113806Y-42333078D01*
X125105142Y-42328076D01*
X124947503Y-42237063D01*
X124886701Y-42201959D01*
X124886699Y-42201958D01*
X124886697Y-42201957D01*
X124811154Y-42170666D01*
X124644416Y-42101600D01*
X124418255Y-42041002D01*
X124391116Y-42033730D01*
X124391114Y-42033729D01*
X124391108Y-42033728D01*
X124131123Y-41999500D01*
X124131120Y-41999500D01*
X123868880Y-41999500D01*
X123868876Y-41999500D01*
X123608892Y-42033728D01*
X123608889Y-42033728D01*
X123355584Y-42101600D01*
X123355583Y-42101600D01*
X123113298Y-42201959D01*
X122886193Y-42333078D01*
X122886192Y-42333078D01*
X122678151Y-42492715D01*
X122678151Y-42492716D01*
X122678149Y-42492718D01*
X122492718Y-42678149D01*
X122492716Y-42678151D01*
X122492715Y-42678151D01*
X122333078Y-42886192D01*
X122333078Y-42886193D01*
X122201959Y-43113298D01*
X122101600Y-43355583D01*
X122101600Y-43355584D01*
X122033728Y-43608889D01*
X122033728Y-43608892D01*
X121999500Y-43868876D01*
X120500500Y-43868876D01*
X120500500Y-38605135D01*
X122849500Y-38605135D01*
X122849500Y-38605136D01*
X122849500Y-38605140D01*
X122849500Y-40394866D01*
X122852414Y-40419989D01*
X122852415Y-40419992D01*
X122897793Y-40522764D01*
X122897794Y-40522765D01*
X122977235Y-40602206D01*
X123080009Y-40647585D01*
X123105135Y-40650500D01*
X124310256Y-40650499D01*
X124384756Y-40670461D01*
X124415615Y-40694140D01*
X127405859Y-43684384D01*
X127444423Y-43751179D01*
X127449500Y-43789743D01*
X127449500Y-44710257D01*
X127429538Y-44784757D01*
X127405859Y-44815616D01*
X125059489Y-47161985D01*
X125018950Y-47232201D01*
X125018947Y-47232207D01*
X125011912Y-47244394D01*
X124987016Y-47287515D01*
X124949500Y-47427525D01*
X124949500Y-47431556D01*
X124943620Y-47448435D01*
X124930216Y-47468152D01*
X124921084Y-47490173D01*
X124908894Y-47499517D01*
X124900260Y-47512220D01*
X124878795Y-47522593D01*
X124859874Y-47537099D01*
X124835680Y-47543428D01*
X124830816Y-47545780D01*
X124827599Y-47545543D01*
X124820687Y-47547352D01*
X124818440Y-47547621D01*
X124818436Y-47547622D01*
X124677658Y-47603138D01*
X124677658Y-47603139D01*
X124557079Y-47694576D01*
X124557076Y-47694579D01*
X124465639Y-47815158D01*
X124465638Y-47815158D01*
X124410122Y-47955936D01*
X124399500Y-48044394D01*
X124399500Y-50955605D01*
X124410122Y-51044063D01*
X124465638Y-51184841D01*
X124557076Y-51305420D01*
X124557079Y-51305423D01*
X124580547Y-51323219D01*
X124677658Y-51396861D01*
X124818436Y-51452377D01*
X124906898Y-51463000D01*
X124906899Y-51463000D01*
X126093101Y-51463000D01*
X126093102Y-51463000D01*
X126181564Y-51452377D01*
X126322342Y-51396861D01*
X126442922Y-51305422D01*
X126534361Y-51184842D01*
X126589877Y-51044064D01*
X126600500Y-50955602D01*
X126600500Y-48044398D01*
X126589877Y-47955936D01*
X126534361Y-47815158D01*
X126523245Y-47800500D01*
X126442923Y-47694579D01*
X126442920Y-47694576D01*
X126380904Y-47647548D01*
X126374921Y-47643011D01*
X126327622Y-47582091D01*
X126317119Y-47505681D01*
X126346229Y-47434257D01*
X126359586Y-47418937D01*
X128440510Y-45338015D01*
X128512984Y-45212485D01*
X128550500Y-45072474D01*
X128550500Y-44927526D01*
X128550500Y-44927525D01*
X128550500Y-44199500D01*
X128570462Y-44125000D01*
X128625000Y-44070462D01*
X128699500Y-44050500D01*
X130927525Y-44050500D01*
X133727225Y-44050500D01*
X133727226Y-44050500D01*
X133872174Y-44050500D01*
X136210257Y-44050500D01*
X136284757Y-44070462D01*
X136315616Y-44094141D01*
X137446481Y-45225006D01*
X137485045Y-45291801D01*
X137488287Y-45307051D01*
X137489817Y-45316714D01*
X137511608Y-45359481D01*
X137549211Y-45433281D01*
X137641719Y-45525789D01*
X137758285Y-45585182D01*
X137854997Y-45600500D01*
X138145002Y-45600499D01*
X138241715Y-45585182D01*
X138277910Y-45566740D01*
X138345554Y-45550500D01*
X140154446Y-45550500D01*
X140222089Y-45566739D01*
X140258285Y-45585182D01*
X140354997Y-45600500D01*
X140645002Y-45600499D01*
X140741715Y-45585182D01*
X140858281Y-45525789D01*
X140950789Y-45433281D01*
X141010182Y-45316715D01*
X141025500Y-45220003D01*
X141025499Y-45185390D01*
X141030576Y-45146827D01*
X141050500Y-45072475D01*
X141050500Y-44927525D01*
X141030575Y-44853167D01*
X141025499Y-44814604D01*
X141025499Y-44780001D01*
X141024228Y-44771975D01*
X141010182Y-44683285D01*
X140950789Y-44566719D01*
X140858281Y-44474211D01*
X140777910Y-44433260D01*
X140741716Y-44414818D01*
X140725596Y-44412265D01*
X140645003Y-44399500D01*
X140644998Y-44399500D01*
X140355001Y-44399500D01*
X140258283Y-44414818D01*
X140258282Y-44414818D01*
X140222090Y-44433260D01*
X140154446Y-44449500D01*
X138345554Y-44449500D01*
X138292483Y-44439728D01*
X138285024Y-44436884D01*
X138241715Y-44414818D01*
X138216764Y-44410865D01*
X138202294Y-44405350D01*
X138183160Y-44391517D01*
X138161593Y-44381914D01*
X138150006Y-44371481D01*
X136838015Y-43059490D01*
X136712485Y-42987016D01*
X136572475Y-42949500D01*
X135488443Y-42949500D01*
X135413943Y-42929538D01*
X135359405Y-42875000D01*
X135339443Y-42800500D01*
X135359405Y-42726000D01*
X135383084Y-42695141D01*
X136135300Y-41942925D01*
X136940510Y-41137715D01*
X137012984Y-41012185D01*
X137022737Y-40975788D01*
X137025073Y-40967072D01*
X137050499Y-40872178D01*
X137050500Y-40872174D01*
X137050500Y-38739742D01*
X137070462Y-38665242D01*
X137094137Y-38634387D01*
X138150007Y-37578516D01*
X138202295Y-37544648D01*
X138216762Y-37539133D01*
X138241715Y-37535182D01*
X138285026Y-37513113D01*
X138292485Y-37510271D01*
X138314105Y-37508050D01*
X138345554Y-37500500D01*
X138861257Y-37500500D01*
X138935757Y-37520462D01*
X138990295Y-37575000D01*
X139010257Y-37649500D01*
X138990295Y-37724000D01*
X138966616Y-37754859D01*
X138308296Y-38413177D01*
X138241501Y-38451741D01*
X138179631Y-38454984D01*
X138156319Y-38451292D01*
X138145003Y-38449500D01*
X138145001Y-38449500D01*
X137855001Y-38449500D01*
X137758284Y-38464818D01*
X137758282Y-38464819D01*
X137641718Y-38524211D01*
X137549211Y-38616718D01*
X137489818Y-38733283D01*
X137489818Y-38733285D01*
X137474500Y-38829997D01*
X137474500Y-38830001D01*
X137474500Y-38864607D01*
X137469423Y-38903172D01*
X137449500Y-38977523D01*
X137449500Y-40522478D01*
X137469423Y-40596830D01*
X137474500Y-40635390D01*
X137474500Y-40669997D01*
X137477219Y-40687165D01*
X137489818Y-40766715D01*
X137549211Y-40883281D01*
X137641719Y-40975789D01*
X137758285Y-41035182D01*
X137854997Y-41050500D01*
X138145002Y-41050499D01*
X138241715Y-41035182D01*
X138358281Y-40975789D01*
X138450789Y-40883281D01*
X138510182Y-40766715D01*
X138525500Y-40670003D01*
X138525499Y-40635390D01*
X138530576Y-40596827D01*
X138550500Y-40522475D01*
X138550500Y-39789743D01*
X138570462Y-39715243D01*
X138594141Y-39684384D01*
X139684384Y-38594141D01*
X139701371Y-38584333D01*
X139715243Y-38570462D01*
X139734191Y-38565384D01*
X139751179Y-38555577D01*
X139789743Y-38550500D01*
X139844312Y-38550500D01*
X139918812Y-38570462D01*
X139973350Y-38625000D01*
X139993312Y-38699500D01*
X139991478Y-38722809D01*
X139989819Y-38733282D01*
X139989818Y-38733285D01*
X139974500Y-38829997D01*
X139974500Y-38830001D01*
X139974500Y-38830002D01*
X139974500Y-38864607D01*
X139969423Y-38903172D01*
X139949500Y-38977523D01*
X139949500Y-40572478D01*
X139969423Y-40646830D01*
X139974500Y-40685390D01*
X139974500Y-40719997D01*
X139989818Y-40816715D01*
X139989819Y-40816717D01*
X139994448Y-40825801D01*
X140049211Y-40933281D01*
X140141719Y-41025789D01*
X140258285Y-41085182D01*
X140354997Y-41100500D01*
X140645002Y-41100499D01*
X140741715Y-41085182D01*
X140858281Y-41025789D01*
X140950789Y-40933281D01*
X141010182Y-40816715D01*
X141025500Y-40720003D01*
X141025499Y-40685390D01*
X141030576Y-40646827D01*
X141050500Y-40572475D01*
X141050500Y-39749500D01*
X141070462Y-39675000D01*
X141125000Y-39620462D01*
X141199500Y-39600500D01*
X141947474Y-39600500D01*
X141947475Y-39600500D01*
X141967370Y-39595168D01*
X142044495Y-39595167D01*
X142111291Y-39633729D01*
X142149858Y-39700522D01*
X142149860Y-39777650D01*
X142147644Y-39785134D01*
X142109059Y-39903886D01*
X142098226Y-39972283D01*
X142079500Y-40090519D01*
X142079500Y-40279481D01*
X142109060Y-40466118D01*
X142167453Y-40645832D01*
X142167457Y-40645841D01*
X142167458Y-40645842D01*
X142181263Y-40672936D01*
X142253240Y-40814199D01*
X142364310Y-40967073D01*
X142497927Y-41100690D01*
X142650801Y-41211760D01*
X142819168Y-41297547D01*
X142867629Y-41313293D01*
X142932314Y-41355300D01*
X142967329Y-41424022D01*
X142963292Y-41501044D01*
X142921285Y-41565729D01*
X142867629Y-41596706D01*
X142819168Y-41612453D01*
X142819163Y-41612455D01*
X142819157Y-41612458D01*
X142650804Y-41698238D01*
X142650799Y-41698241D01*
X142497936Y-41809303D01*
X142497925Y-41809312D01*
X142364312Y-41942925D01*
X142364303Y-41942936D01*
X142253241Y-42095799D01*
X142253238Y-42095804D01*
X142167458Y-42264157D01*
X142167455Y-42264163D01*
X142167453Y-42264168D01*
X142109060Y-42443882D01*
X142079500Y-42630519D01*
X142079500Y-42819481D01*
X142109060Y-43006118D01*
X142167453Y-43185832D01*
X142253240Y-43354199D01*
X142364310Y-43507073D01*
X142497927Y-43640690D01*
X142650801Y-43751760D01*
X142819168Y-43837547D01*
X142867629Y-43853293D01*
X142932314Y-43895300D01*
X142967329Y-43964022D01*
X142963292Y-44041044D01*
X142921285Y-44105729D01*
X142867629Y-44136706D01*
X142819168Y-44152453D01*
X142819163Y-44152455D01*
X142819157Y-44152458D01*
X142650804Y-44238238D01*
X142650799Y-44238241D01*
X142497936Y-44349303D01*
X142497925Y-44349312D01*
X142364312Y-44482925D01*
X142364303Y-44482936D01*
X142253241Y-44635799D01*
X142253238Y-44635804D01*
X142167458Y-44804157D01*
X142167451Y-44804174D01*
X142140636Y-44886701D01*
X142109060Y-44983882D01*
X142079500Y-45170519D01*
X142079500Y-45359481D01*
X142109060Y-45546118D01*
X142167453Y-45725832D01*
X142167457Y-45725841D01*
X142167458Y-45725842D01*
X142181263Y-45752936D01*
X142253240Y-45894199D01*
X142364310Y-46047073D01*
X142497927Y-46180690D01*
X142650801Y-46291760D01*
X142819168Y-46377547D01*
X142867629Y-46393293D01*
X142932314Y-46435300D01*
X142967329Y-46504022D01*
X142963292Y-46581044D01*
X142921285Y-46645729D01*
X142867629Y-46676706D01*
X142819168Y-46692453D01*
X142819163Y-46692455D01*
X142819157Y-46692458D01*
X142650804Y-46778238D01*
X142650799Y-46778241D01*
X142497936Y-46889303D01*
X142497925Y-46889312D01*
X142364312Y-47022925D01*
X142364303Y-47022936D01*
X142253241Y-47175799D01*
X142253238Y-47175804D01*
X142167458Y-47344157D01*
X142167451Y-47344174D01*
X142140368Y-47427525D01*
X142109060Y-47523882D01*
X142079500Y-47710519D01*
X142079500Y-47899481D01*
X142092180Y-47979538D01*
X142095553Y-48000836D01*
X142087490Y-48077542D01*
X142042155Y-48139939D01*
X141971695Y-48171310D01*
X141894989Y-48163247D01*
X141843028Y-48129503D01*
X141773015Y-48059490D01*
X141746876Y-48044399D01*
X141647485Y-47987016D01*
X141507475Y-47949500D01*
X141199500Y-47949500D01*
X141125000Y-47929538D01*
X141070462Y-47875000D01*
X141050500Y-47800500D01*
X141050500Y-47027525D01*
X141050499Y-47027523D01*
X141042007Y-46995832D01*
X141030575Y-46953167D01*
X141025499Y-46914604D01*
X141025499Y-46880001D01*
X141025499Y-46879998D01*
X141010182Y-46783285D01*
X140950789Y-46666719D01*
X140858281Y-46574211D01*
X140842125Y-46565979D01*
X140741716Y-46514818D01*
X140725596Y-46512265D01*
X140645003Y-46499500D01*
X140644998Y-46499500D01*
X140355001Y-46499500D01*
X140258284Y-46514818D01*
X140258282Y-46514819D01*
X140141718Y-46574211D01*
X140049211Y-46666718D01*
X139989818Y-46783283D01*
X139989818Y-46783285D01*
X139974500Y-46879997D01*
X139974500Y-46879998D01*
X139974500Y-46880001D01*
X139974500Y-46914607D01*
X139969423Y-46953172D01*
X139949500Y-47027523D01*
X139949500Y-48210257D01*
X139929538Y-48284757D01*
X139905859Y-48315616D01*
X139315616Y-48905859D01*
X139248821Y-48944423D01*
X139210257Y-48949500D01*
X138671527Y-48949500D01*
X138668148Y-48948594D01*
X138664733Y-48949345D01*
X138631105Y-48938669D01*
X138597027Y-48929538D01*
X138594554Y-48927065D01*
X138591221Y-48926007D01*
X138567434Y-48899945D01*
X138542489Y-48875000D01*
X138541584Y-48871622D01*
X138539226Y-48869039D01*
X138536684Y-48853338D01*
X138522527Y-48800500D01*
X138522682Y-48793706D01*
X138523061Y-48785401D01*
X138525500Y-48770003D01*
X138525499Y-48731984D01*
X138525654Y-48728595D01*
X138526918Y-48724612D01*
X138530576Y-48696827D01*
X138550500Y-48622475D01*
X138550500Y-47027525D01*
X138530575Y-46953167D01*
X138525499Y-46914604D01*
X138525499Y-46880001D01*
X138525499Y-46879998D01*
X138510182Y-46783285D01*
X138450789Y-46666719D01*
X138358281Y-46574211D01*
X138342125Y-46565979D01*
X138241716Y-46514818D01*
X138225596Y-46512265D01*
X138145003Y-46499500D01*
X138144998Y-46499500D01*
X137855001Y-46499500D01*
X137758284Y-46514818D01*
X137758282Y-46514819D01*
X137641718Y-46574211D01*
X137549211Y-46666718D01*
X137489818Y-46783283D01*
X137489818Y-46783285D01*
X137474500Y-46879997D01*
X137474500Y-46879998D01*
X137474500Y-46880001D01*
X137474500Y-46914607D01*
X137469423Y-46953172D01*
X137449500Y-47027523D01*
X137449500Y-47850500D01*
X137429538Y-47925000D01*
X137375000Y-47979538D01*
X137300500Y-47999500D01*
X136877525Y-47999500D01*
X136737515Y-48037016D01*
X136737513Y-48037016D01*
X136737513Y-48037017D01*
X136611984Y-48109490D01*
X134230431Y-50491042D01*
X134163636Y-50529606D01*
X134086508Y-50529606D01*
X134019713Y-50491042D01*
X133992312Y-50453327D01*
X133983997Y-50437008D01*
X133983994Y-50437003D01*
X133894643Y-50314022D01*
X133877553Y-50290499D01*
X133749501Y-50162447D01*
X133602994Y-50056004D01*
X133441639Y-49973789D01*
X133269408Y-49917828D01*
X133265223Y-49917166D01*
X133194762Y-49885796D01*
X133149427Y-49823398D01*
X133141364Y-49746693D01*
X133172734Y-49676232D01*
X133235132Y-49630897D01*
X133265223Y-49622834D01*
X133265362Y-49622811D01*
X133269409Y-49622171D01*
X133441639Y-49566211D01*
X133602994Y-49483996D01*
X133749501Y-49377553D01*
X133877553Y-49249501D01*
X133983996Y-49102994D01*
X134066211Y-48941639D01*
X134122171Y-48769409D01*
X134150500Y-48590546D01*
X134150500Y-48409454D01*
X134122171Y-48230591D01*
X134066211Y-48058361D01*
X133983996Y-47897006D01*
X133877553Y-47750499D01*
X133749501Y-47622447D01*
X133602994Y-47516004D01*
X133441639Y-47433789D01*
X133395904Y-47418929D01*
X133341361Y-47401207D01*
X133276676Y-47359200D01*
X133241660Y-47290478D01*
X133245696Y-47213456D01*
X133287703Y-47148771D01*
X133356425Y-47113755D01*
X133387401Y-47110499D01*
X133894864Y-47110499D01*
X133894867Y-47110499D01*
X133909940Y-47108750D01*
X133919991Y-47107585D01*
X134022765Y-47062206D01*
X134102206Y-46982765D01*
X134147585Y-46879991D01*
X134150500Y-46854865D01*
X134150499Y-45065136D01*
X134147585Y-45040009D01*
X134102206Y-44937235D01*
X134022765Y-44857794D01*
X134022764Y-44857793D01*
X133919994Y-44812416D01*
X133919991Y-44812415D01*
X133919982Y-44812414D01*
X133894865Y-44809500D01*
X133894859Y-44809500D01*
X132105133Y-44809500D01*
X132080010Y-44812414D01*
X132080007Y-44812415D01*
X131977235Y-44857793D01*
X131897793Y-44937235D01*
X131852416Y-45040005D01*
X131852415Y-45040008D01*
X131852415Y-45040009D01*
X131849500Y-45065135D01*
X131849500Y-45065136D01*
X131849500Y-45065140D01*
X131849500Y-46854866D01*
X131852414Y-46879989D01*
X131852415Y-46879992D01*
X131897793Y-46982764D01*
X131897794Y-46982765D01*
X131977235Y-47062206D01*
X132080009Y-47107585D01*
X132105135Y-47110500D01*
X132612596Y-47110499D01*
X132687094Y-47130461D01*
X132741632Y-47184999D01*
X132761594Y-47259499D01*
X132741632Y-47333999D01*
X132687094Y-47388537D01*
X132658638Y-47401206D01*
X132558364Y-47433786D01*
X132558363Y-47433787D01*
X132397004Y-47516005D01*
X132397003Y-47516005D01*
X132250500Y-47622446D01*
X132250497Y-47622448D01*
X132122448Y-47750497D01*
X132122446Y-47750500D01*
X132016005Y-47897003D01*
X132016005Y-47897004D01*
X131933789Y-48058360D01*
X131899710Y-48163247D01*
X131877829Y-48230591D01*
X131849500Y-48409454D01*
X131849500Y-48590546D01*
X131877829Y-48769409D01*
X131933789Y-48941639D01*
X132014733Y-49100500D01*
X132016005Y-49102995D01*
X132016005Y-49102996D01*
X132028695Y-49120462D01*
X132122447Y-49249501D01*
X132250499Y-49377553D01*
X132397006Y-49483996D01*
X132558361Y-49566211D01*
X132730591Y-49622171D01*
X132730592Y-49622171D01*
X132730595Y-49622172D01*
X132734779Y-49622835D01*
X132805238Y-49654206D01*
X132850573Y-49716604D01*
X132858634Y-49793310D01*
X132827263Y-49863769D01*
X132764865Y-49909104D01*
X132734779Y-49917165D01*
X132730595Y-49917827D01*
X132558360Y-49973789D01*
X132397004Y-50056005D01*
X132397003Y-50056005D01*
X132250500Y-50162446D01*
X132250497Y-50162448D01*
X132122448Y-50290497D01*
X132122446Y-50290500D01*
X132016005Y-50437003D01*
X132016005Y-50437004D01*
X131933789Y-50598360D01*
X131877829Y-50770591D01*
X131849500Y-50949454D01*
X131849500Y-51130546D01*
X131870113Y-51260690D01*
X131876103Y-51298510D01*
X131868040Y-51375215D01*
X131834296Y-51427177D01*
X130559489Y-52701985D01*
X130537196Y-52740599D01*
X130511019Y-52785940D01*
X130503018Y-52799798D01*
X130487016Y-52827513D01*
X130449500Y-52967524D01*
X130449500Y-54572475D01*
X130473485Y-54661986D01*
X130487016Y-54712486D01*
X130518268Y-54766616D01*
X130559490Y-54838015D01*
X133661986Y-57940510D01*
X133787515Y-58012984D01*
X133927525Y-58050500D01*
X146890784Y-58050500D01*
X147030794Y-58012984D01*
X147156324Y-57940510D01*
X148940510Y-56156324D01*
X149012984Y-56030794D01*
X149024714Y-55987016D01*
X149050500Y-55890784D01*
X149050500Y-49142525D01*
X149012984Y-49002515D01*
X148982376Y-48949500D01*
X148940510Y-48876985D01*
X147028209Y-46964684D01*
X146989645Y-46897889D01*
X146989645Y-46821823D01*
X146989574Y-46821806D01*
X146989645Y-46821510D01*
X146989645Y-46820761D01*
X146990593Y-46817560D01*
X146990940Y-46816116D01*
X146996140Y-46783283D01*
X147020500Y-46629481D01*
X147020500Y-46440519D01*
X146990940Y-46253882D01*
X146932547Y-46074168D01*
X146846760Y-45905801D01*
X146735690Y-45752927D01*
X146602073Y-45619310D01*
X146449199Y-45508240D01*
X146280832Y-45422453D01*
X146101118Y-45364060D01*
X145914481Y-45334500D01*
X145725519Y-45334500D01*
X145538882Y-45364060D01*
X145359168Y-45422453D01*
X145359163Y-45422455D01*
X145359157Y-45422458D01*
X145190804Y-45508238D01*
X145190799Y-45508241D01*
X145037936Y-45619303D01*
X145037925Y-45619312D01*
X144904312Y-45752925D01*
X144904303Y-45752936D01*
X144793241Y-45905799D01*
X144793238Y-45905804D01*
X144707458Y-46074157D01*
X144707455Y-46074163D01*
X144707453Y-46074168D01*
X144649060Y-46253882D01*
X144619500Y-46440519D01*
X144619500Y-46629481D01*
X144649060Y-46816118D01*
X144707453Y-46995832D01*
X144707457Y-46995841D01*
X144707458Y-46995842D01*
X144721263Y-47022936D01*
X144793240Y-47164199D01*
X144904310Y-47317073D01*
X145037927Y-47450690D01*
X145190801Y-47561760D01*
X145359168Y-47647547D01*
X145407629Y-47663293D01*
X145472314Y-47705300D01*
X145507329Y-47774022D01*
X145503292Y-47851044D01*
X145461285Y-47915729D01*
X145407629Y-47946706D01*
X145359168Y-47962453D01*
X145359163Y-47962455D01*
X145359157Y-47962458D01*
X145190804Y-48048238D01*
X145190799Y-48048241D01*
X145037936Y-48159303D01*
X145037925Y-48159312D01*
X144904312Y-48292925D01*
X144904303Y-48292936D01*
X144793241Y-48445799D01*
X144793238Y-48445804D01*
X144707458Y-48614157D01*
X144707455Y-48614163D01*
X144707453Y-48614168D01*
X144649060Y-48793882D01*
X144619500Y-48980519D01*
X144619500Y-49169481D01*
X144649060Y-49356118D01*
X144707453Y-49535832D01*
X144707457Y-49535841D01*
X144707458Y-49535842D01*
X144721263Y-49562936D01*
X144793240Y-49704199D01*
X144904310Y-49857073D01*
X145037927Y-49990690D01*
X145190801Y-50101760D01*
X145359168Y-50187547D01*
X145407629Y-50203293D01*
X145472314Y-50245300D01*
X145507329Y-50314022D01*
X145503292Y-50391044D01*
X145461285Y-50455729D01*
X145407629Y-50486706D01*
X145359168Y-50502453D01*
X145359163Y-50502455D01*
X145359157Y-50502458D01*
X145190804Y-50588238D01*
X145190799Y-50588241D01*
X145037936Y-50699303D01*
X145037925Y-50699312D01*
X144904312Y-50832925D01*
X144904303Y-50832936D01*
X144793241Y-50985799D01*
X144793238Y-50985804D01*
X144707458Y-51154157D01*
X144707455Y-51154163D01*
X144707453Y-51154168D01*
X144649060Y-51333882D01*
X144619500Y-51520519D01*
X144619500Y-51709481D01*
X144649060Y-51896118D01*
X144707453Y-52075832D01*
X144793240Y-52244199D01*
X144904310Y-52397073D01*
X145037927Y-52530690D01*
X145037935Y-52530696D01*
X145105674Y-52579911D01*
X145154212Y-52639851D01*
X145166277Y-52716030D01*
X145138636Y-52788035D01*
X145123452Y-52805813D01*
X143948408Y-53980859D01*
X143881613Y-54019423D01*
X143843049Y-54024500D01*
X141227452Y-54024500D01*
X141218033Y-54021976D01*
X141208368Y-54023273D01*
X141190991Y-54014730D01*
X141152952Y-54004538D01*
X141137038Y-53993933D01*
X141127830Y-53986904D01*
X141126867Y-53985633D01*
X141021767Y-53905933D01*
X140998339Y-53875557D01*
X140974850Y-53845303D01*
X140974816Y-53845056D01*
X140974664Y-53844859D01*
X140969568Y-53806880D01*
X140964347Y-53768893D01*
X140964441Y-53768662D01*
X140964408Y-53768416D01*
X140978996Y-53732949D01*
X140993457Y-53697469D01*
X140993683Y-53697242D01*
X140993748Y-53697086D01*
X140994150Y-53696775D01*
X141022148Y-53668777D01*
X141126867Y-53589367D01*
X141213115Y-53475632D01*
X141265479Y-53342846D01*
X141275500Y-53259402D01*
X141275500Y-52740598D01*
X141265479Y-52657154D01*
X141213115Y-52524368D01*
X141141203Y-52429538D01*
X141126868Y-52410634D01*
X141126865Y-52410631D01*
X141064578Y-52363398D01*
X141013132Y-52324385D01*
X141013130Y-52324384D01*
X140985072Y-52313319D01*
X140880346Y-52272021D01*
X140880343Y-52272020D01*
X140880342Y-52272020D01*
X140796902Y-52262000D01*
X140203098Y-52262000D01*
X140203097Y-52262000D01*
X140119657Y-52272020D01*
X140119655Y-52272020D01*
X140119654Y-52272021D01*
X140067291Y-52292670D01*
X139986869Y-52324384D01*
X139986868Y-52324384D01*
X139865012Y-52416791D01*
X139863172Y-52414365D01*
X139811112Y-52444423D01*
X139772548Y-52449500D01*
X139227452Y-52449500D01*
X139152952Y-52429538D01*
X139135485Y-52416135D01*
X139134988Y-52416791D01*
X139064578Y-52363398D01*
X139013132Y-52324385D01*
X139013130Y-52324384D01*
X138985072Y-52313319D01*
X138880346Y-52272021D01*
X138880343Y-52272020D01*
X138880342Y-52272020D01*
X138796902Y-52262000D01*
X138203098Y-52262000D01*
X138203097Y-52262000D01*
X138119657Y-52272020D01*
X138119655Y-52272020D01*
X138119654Y-52272021D01*
X138067291Y-52292670D01*
X137986869Y-52324384D01*
X137986868Y-52324384D01*
X137911255Y-52381724D01*
X137839831Y-52410834D01*
X137821224Y-52412000D01*
X137191551Y-52412000D01*
X137117051Y-52392038D01*
X137102258Y-52382280D01*
X137017333Y-52318704D01*
X137017329Y-52318702D01*
X136882482Y-52268408D01*
X136822885Y-52262000D01*
X136376242Y-52262000D01*
X136301742Y-52242038D01*
X136247204Y-52187500D01*
X136227242Y-52113000D01*
X136247204Y-52038500D01*
X136270879Y-52007645D01*
X138184384Y-50094141D01*
X138251179Y-50055577D01*
X138289743Y-50050500D01*
X139572475Y-50050500D01*
X139712485Y-50012984D01*
X139715781Y-50011080D01*
X139722877Y-50006985D01*
X139769825Y-49979879D01*
X139838015Y-49940510D01*
X140650007Y-49128516D01*
X140702295Y-49094648D01*
X140716762Y-49089133D01*
X140741715Y-49085182D01*
X140785024Y-49063115D01*
X140792486Y-49060271D01*
X140814104Y-49058050D01*
X140845554Y-49050500D01*
X141145257Y-49050500D01*
X141219757Y-49070462D01*
X141250616Y-49094141D01*
X142071789Y-49915314D01*
X142110353Y-49982109D01*
X142110353Y-50058172D01*
X142110426Y-50058190D01*
X142110353Y-50058494D01*
X142110353Y-50059237D01*
X142109408Y-50062429D01*
X142109061Y-50063874D01*
X142103061Y-50101758D01*
X142079500Y-50250519D01*
X142079500Y-50439481D01*
X142109060Y-50626118D01*
X142167453Y-50805832D01*
X142167457Y-50805841D01*
X142167458Y-50805842D01*
X142181263Y-50832936D01*
X142253240Y-50974199D01*
X142364310Y-51127073D01*
X142497927Y-51260690D01*
X142650801Y-51371760D01*
X142819168Y-51457547D01*
X142998882Y-51515940D01*
X143185519Y-51545500D01*
X143185524Y-51545500D01*
X143374476Y-51545500D01*
X143374481Y-51545500D01*
X143561118Y-51515940D01*
X143740832Y-51457547D01*
X143909199Y-51371760D01*
X144062073Y-51260690D01*
X144195690Y-51127073D01*
X144306760Y-50974199D01*
X144392547Y-50805832D01*
X144450940Y-50626118D01*
X144480500Y-50439481D01*
X144480500Y-50250519D01*
X144450940Y-50063882D01*
X144392547Y-49884168D01*
X144306760Y-49715801D01*
X144195690Y-49562927D01*
X144062073Y-49429310D01*
X143909199Y-49318240D01*
X143740832Y-49232453D01*
X143740828Y-49232451D01*
X143740822Y-49232449D01*
X143692371Y-49216707D01*
X143627686Y-49174701D01*
X143592670Y-49105979D01*
X143596707Y-49028957D01*
X143638713Y-48964272D01*
X143692371Y-48933293D01*
X143740832Y-48917547D01*
X143909199Y-48831760D01*
X144062073Y-48720690D01*
X144195690Y-48587073D01*
X144306760Y-48434199D01*
X144392547Y-48265832D01*
X144450940Y-48086118D01*
X144480500Y-47899481D01*
X144480500Y-47710519D01*
X144450940Y-47523882D01*
X144392547Y-47344168D01*
X144306760Y-47175801D01*
X144195690Y-47022927D01*
X144062073Y-46889310D01*
X143909199Y-46778240D01*
X143740832Y-46692453D01*
X143740828Y-46692451D01*
X143740822Y-46692449D01*
X143692371Y-46676707D01*
X143627686Y-46634701D01*
X143592670Y-46565979D01*
X143596707Y-46488957D01*
X143638713Y-46424272D01*
X143692371Y-46393293D01*
X143740832Y-46377547D01*
X143909199Y-46291760D01*
X144062073Y-46180690D01*
X144195690Y-46047073D01*
X144306760Y-45894199D01*
X144392547Y-45725832D01*
X144450940Y-45546118D01*
X144480500Y-45359481D01*
X144480500Y-45170519D01*
X144450940Y-44983882D01*
X144392547Y-44804168D01*
X144306760Y-44635801D01*
X144195690Y-44482927D01*
X144062073Y-44349310D01*
X143909199Y-44238240D01*
X143740832Y-44152453D01*
X143740828Y-44152451D01*
X143740822Y-44152449D01*
X143692371Y-44136707D01*
X143627686Y-44094701D01*
X143592670Y-44025979D01*
X143596707Y-43948957D01*
X143638713Y-43884272D01*
X143674040Y-43863876D01*
X161819500Y-43863876D01*
X161819500Y-44126123D01*
X161853728Y-44386107D01*
X161853728Y-44386110D01*
X161921600Y-44639415D01*
X161921600Y-44639416D01*
X161979832Y-44779998D01*
X162010140Y-44853169D01*
X162021959Y-44881701D01*
X162048416Y-44927526D01*
X162132100Y-45072472D01*
X162153078Y-45108806D01*
X162153078Y-45108807D01*
X162312715Y-45316848D01*
X162498151Y-45502284D01*
X162650662Y-45619310D01*
X162706197Y-45661924D01*
X162933303Y-45793043D01*
X163137809Y-45877752D01*
X163175583Y-45893399D01*
X163263332Y-45916910D01*
X163428884Y-45961270D01*
X163428890Y-45961270D01*
X163428891Y-45961271D01*
X163465834Y-45966134D01*
X163688877Y-45995499D01*
X163688878Y-45995500D01*
X163688880Y-45995500D01*
X163951122Y-45995500D01*
X163951122Y-45995499D01*
X164211108Y-45961271D01*
X164211110Y-45961271D01*
X164211111Y-45961270D01*
X164211116Y-45961270D01*
X164464415Y-45893399D01*
X164464416Y-45893399D01*
X164464417Y-45893398D01*
X164464419Y-45893398D01*
X164706697Y-45793043D01*
X164933803Y-45661924D01*
X165141848Y-45502284D01*
X165141849Y-45502284D01*
X165327284Y-45316849D01*
X165327284Y-45316848D01*
X165327386Y-45316716D01*
X165486924Y-45108803D01*
X165618043Y-44881697D01*
X165718398Y-44639419D01*
X165786270Y-44386116D01*
X165820500Y-44126120D01*
X165820500Y-43863880D01*
X165786270Y-43603884D01*
X165719368Y-43354200D01*
X165718399Y-43350584D01*
X165718399Y-43350583D01*
X165702752Y-43312809D01*
X165618043Y-43108303D01*
X165486924Y-42881197D01*
X165486921Y-42881193D01*
X165486921Y-42881192D01*
X165327284Y-42673151D01*
X165141848Y-42487715D01*
X164933806Y-42328078D01*
X164706701Y-42196959D01*
X164706699Y-42196958D01*
X164706697Y-42196957D01*
X164631154Y-42165666D01*
X164464416Y-42096600D01*
X164229769Y-42033728D01*
X164211116Y-42028730D01*
X164211114Y-42028729D01*
X164211108Y-42028728D01*
X163951123Y-41994500D01*
X163951120Y-41994500D01*
X163688880Y-41994500D01*
X163688876Y-41994500D01*
X163428892Y-42028728D01*
X163428889Y-42028728D01*
X163175584Y-42096600D01*
X163175583Y-42096600D01*
X162933298Y-42196959D01*
X162706193Y-42328078D01*
X162706192Y-42328078D01*
X162498151Y-42487715D01*
X162498151Y-42487716D01*
X162498149Y-42487718D01*
X162312718Y-42673149D01*
X162312716Y-42673151D01*
X162312715Y-42673151D01*
X162153078Y-42881192D01*
X162153078Y-42881193D01*
X162021959Y-43108298D01*
X161921600Y-43350583D01*
X161921600Y-43350584D01*
X161853728Y-43603889D01*
X161853728Y-43603892D01*
X161819500Y-43863876D01*
X143674040Y-43863876D01*
X143692371Y-43853293D01*
X143740832Y-43837547D01*
X143909199Y-43751760D01*
X144062073Y-43640690D01*
X144195690Y-43507073D01*
X144306760Y-43354199D01*
X144392547Y-43185832D01*
X144450940Y-43006118D01*
X144480500Y-42819481D01*
X144480500Y-42630519D01*
X144450940Y-42443882D01*
X144392547Y-42264168D01*
X144306760Y-42095801D01*
X144195690Y-41942927D01*
X144062073Y-41809310D01*
X143909199Y-41698240D01*
X143740832Y-41612453D01*
X143740828Y-41612451D01*
X143740822Y-41612449D01*
X143692371Y-41596707D01*
X143627686Y-41554701D01*
X143592670Y-41485979D01*
X143596707Y-41408957D01*
X143638713Y-41344272D01*
X143692371Y-41313293D01*
X143740832Y-41297547D01*
X143909199Y-41211760D01*
X144062073Y-41100690D01*
X144195690Y-40967073D01*
X144306760Y-40814199D01*
X144392547Y-40645832D01*
X144450940Y-40466118D01*
X144480500Y-40279481D01*
X144480500Y-40090519D01*
X144450940Y-39903882D01*
X144392547Y-39724168D01*
X144306760Y-39555801D01*
X144195690Y-39402927D01*
X144062073Y-39269310D01*
X143909199Y-39158240D01*
X143740832Y-39072453D01*
X143740828Y-39072451D01*
X143740822Y-39072449D01*
X143692371Y-39056707D01*
X143627686Y-39014701D01*
X143592670Y-38945979D01*
X143596707Y-38868957D01*
X143638713Y-38804272D01*
X143692371Y-38773293D01*
X143740832Y-38757547D01*
X143909199Y-38671760D01*
X144062073Y-38560690D01*
X144195690Y-38427073D01*
X144306760Y-38274199D01*
X144392547Y-38105832D01*
X144450940Y-37926118D01*
X144480500Y-37739481D01*
X144480500Y-37550519D01*
X144450940Y-37363882D01*
X144392547Y-37184168D01*
X144306760Y-37015801D01*
X144195690Y-36862927D01*
X144062073Y-36729310D01*
X143909199Y-36618240D01*
X143740832Y-36532453D01*
X143561118Y-36474060D01*
X143374481Y-36444500D01*
X143185519Y-36444500D01*
X142998882Y-36474060D01*
X142819168Y-36532453D01*
X142819163Y-36532455D01*
X142819157Y-36532458D01*
X142650804Y-36618238D01*
X142650799Y-36618241D01*
X142497936Y-36729303D01*
X142497925Y-36729312D01*
X142364312Y-36862925D01*
X142364303Y-36862936D01*
X142320043Y-36923855D01*
X142260103Y-36972393D01*
X142183925Y-36984459D01*
X142111920Y-36956818D01*
X142063382Y-36896878D01*
X142050500Y-36836275D01*
X142050500Y-34140025D01*
X142050499Y-34140023D01*
X142050387Y-34139606D01*
X142012984Y-34000015D01*
X142005179Y-33986498D01*
X141985218Y-33912002D01*
X142005179Y-33837502D01*
X142059716Y-33782963D01*
X142134216Y-33763000D01*
X144422757Y-33763000D01*
X144497257Y-33782962D01*
X144528116Y-33806641D01*
X145225859Y-34504383D01*
X145264423Y-34571178D01*
X145269500Y-34609742D01*
X145269500Y-35216833D01*
X145249538Y-35291333D01*
X145195760Y-35345110D01*
X145195801Y-35345176D01*
X145195527Y-35345343D01*
X145195000Y-35345871D01*
X145192081Y-35347455D01*
X145190795Y-35348243D01*
X145037936Y-35459303D01*
X145037925Y-35459312D01*
X144904312Y-35592925D01*
X144904303Y-35592936D01*
X144793241Y-35745799D01*
X144793238Y-35745804D01*
X144707458Y-35914157D01*
X144707455Y-35914163D01*
X144707453Y-35914168D01*
X144649060Y-36093882D01*
X144619500Y-36280519D01*
X144619500Y-36469481D01*
X144649060Y-36656118D01*
X144707453Y-36835832D01*
X144707457Y-36835841D01*
X144707458Y-36835842D01*
X144721263Y-36862936D01*
X144793240Y-37004199D01*
X144904310Y-37157073D01*
X145037927Y-37290690D01*
X145190801Y-37401760D01*
X145359168Y-37487547D01*
X145407629Y-37503293D01*
X145472314Y-37545300D01*
X145507329Y-37614022D01*
X145503292Y-37691044D01*
X145461285Y-37755729D01*
X145407629Y-37786706D01*
X145359168Y-37802453D01*
X145359163Y-37802455D01*
X145359157Y-37802458D01*
X145190804Y-37888238D01*
X145190799Y-37888241D01*
X145037936Y-37999303D01*
X145037925Y-37999312D01*
X144904312Y-38132925D01*
X144904303Y-38132936D01*
X144793241Y-38285799D01*
X144793238Y-38285804D01*
X144707458Y-38454157D01*
X144707451Y-38454174D01*
X144666564Y-38580010D01*
X144649060Y-38633882D01*
X144619500Y-38820519D01*
X144619500Y-39009481D01*
X144649060Y-39196118D01*
X144707453Y-39375832D01*
X144707457Y-39375841D01*
X144707458Y-39375842D01*
X144721263Y-39402936D01*
X144793240Y-39544199D01*
X144904310Y-39697073D01*
X145037927Y-39830690D01*
X145190801Y-39941760D01*
X145359168Y-40027547D01*
X145407629Y-40043293D01*
X145472314Y-40085300D01*
X145507329Y-40154022D01*
X145503292Y-40231044D01*
X145461285Y-40295729D01*
X145407629Y-40326706D01*
X145359168Y-40342453D01*
X145359163Y-40342455D01*
X145359157Y-40342458D01*
X145190804Y-40428238D01*
X145190799Y-40428241D01*
X145037936Y-40539303D01*
X145037925Y-40539312D01*
X144904312Y-40672925D01*
X144904303Y-40672936D01*
X144793241Y-40825799D01*
X144793238Y-40825804D01*
X144707458Y-40994157D01*
X144707451Y-40994174D01*
X144685901Y-41060497D01*
X144649060Y-41173882D01*
X144619500Y-41360519D01*
X144619500Y-41549481D01*
X144649060Y-41736118D01*
X144707453Y-41915832D01*
X144707457Y-41915841D01*
X144707458Y-41915842D01*
X144721263Y-41942936D01*
X144793240Y-42084199D01*
X144904310Y-42237073D01*
X145037927Y-42370690D01*
X145190801Y-42481760D01*
X145359168Y-42567547D01*
X145538882Y-42625940D01*
X145725519Y-42655500D01*
X145725524Y-42655500D01*
X145914476Y-42655500D01*
X145914481Y-42655500D01*
X146101118Y-42625940D01*
X146280832Y-42567547D01*
X146449199Y-42481760D01*
X146602073Y-42370690D01*
X146735690Y-42237073D01*
X146846760Y-42084199D01*
X146932547Y-41915832D01*
X146990940Y-41736118D01*
X147020500Y-41549481D01*
X147020500Y-41360519D01*
X146990940Y-41173882D01*
X146932547Y-40994168D01*
X146846760Y-40825801D01*
X146735690Y-40672927D01*
X146602073Y-40539310D01*
X146449199Y-40428240D01*
X146280832Y-40342453D01*
X146280828Y-40342451D01*
X146280822Y-40342449D01*
X146232371Y-40326707D01*
X146167686Y-40284701D01*
X146132670Y-40215979D01*
X146136707Y-40138957D01*
X146178713Y-40074272D01*
X146232371Y-40043293D01*
X146280832Y-40027547D01*
X146449199Y-39941760D01*
X146602073Y-39830690D01*
X146735690Y-39697073D01*
X146846760Y-39544199D01*
X146932547Y-39375832D01*
X146990940Y-39196118D01*
X147020500Y-39009481D01*
X147020500Y-38820519D01*
X146990940Y-38633882D01*
X146990939Y-38633879D01*
X146989574Y-38628194D01*
X146991393Y-38627757D01*
X146987821Y-38559710D01*
X147022829Y-38490984D01*
X147028188Y-38485335D01*
X147511510Y-38002015D01*
X147583984Y-37876485D01*
X147590321Y-37852835D01*
X147594293Y-37838014D01*
X147612154Y-37771354D01*
X147621500Y-37736475D01*
X147621500Y-33498525D01*
X147583984Y-33358515D01*
X147548947Y-33297829D01*
X147511510Y-33232985D01*
X144694265Y-30415740D01*
X144568735Y-30343266D01*
X144428725Y-30305750D01*
X132783775Y-30305750D01*
X132643765Y-30343266D01*
X132643763Y-30343266D01*
X132643763Y-30343267D01*
X132518234Y-30415740D01*
X129003116Y-33930859D01*
X128936321Y-33969423D01*
X128897757Y-33974500D01*
X128703097Y-33974500D01*
X128619657Y-33984520D01*
X128619655Y-33984520D01*
X128619654Y-33984521D01*
X128567291Y-34005170D01*
X128486869Y-34036884D01*
X128486868Y-34036884D01*
X128373134Y-34123131D01*
X128373131Y-34123134D01*
X128286884Y-34236868D01*
X128286884Y-34236869D01*
X128234521Y-34369655D01*
X128234520Y-34369657D01*
X128224500Y-34453097D01*
X128224500Y-34971902D01*
X128234520Y-35055342D01*
X128234520Y-35055343D01*
X128234521Y-35055346D01*
X128264940Y-35132483D01*
X128286884Y-35188130D01*
X128286884Y-35188131D01*
X128373131Y-35301865D01*
X128373134Y-35301868D01*
X128477849Y-35381276D01*
X128525149Y-35442198D01*
X128535652Y-35518607D01*
X128506542Y-35590031D01*
X128477849Y-35618724D01*
X128373134Y-35698131D01*
X128373131Y-35698134D01*
X128286884Y-35811868D01*
X128286884Y-35811869D01*
X128270882Y-35852448D01*
X128246548Y-35914157D01*
X128234521Y-35944655D01*
X128234520Y-35944657D01*
X128230216Y-35980499D01*
X128224500Y-36028098D01*
X128224500Y-36546902D01*
X128234521Y-36630346D01*
X128286885Y-36763132D01*
X128373133Y-36876867D01*
X128373135Y-36876868D01*
X128373137Y-36876871D01*
X128390529Y-36890059D01*
X128408645Y-36913391D01*
X128429538Y-36934284D01*
X128431999Y-36943469D01*
X128437830Y-36950979D01*
X128449500Y-37008784D01*
X128449500Y-37156450D01*
X128429538Y-37230950D01*
X128389795Y-37275729D01*
X128367454Y-37292453D01*
X128367452Y-37292455D01*
X128281204Y-37407666D01*
X128281202Y-37407670D01*
X128230908Y-37542517D01*
X128224500Y-37602114D01*
X128224500Y-38097863D01*
X128224502Y-38097888D01*
X128230908Y-38157478D01*
X128230909Y-38157484D01*
X128281202Y-38292329D01*
X128281204Y-38292333D01*
X128367452Y-38407544D01*
X128367455Y-38407547D01*
X128482666Y-38493795D01*
X128482670Y-38493797D01*
X128617517Y-38544091D01*
X128677114Y-38550499D01*
X128677118Y-38550499D01*
X128677127Y-38550500D01*
X129322872Y-38550499D01*
X129382483Y-38544091D01*
X129502038Y-38499500D01*
X129517329Y-38493797D01*
X129517333Y-38493795D01*
X129606461Y-38427073D01*
X129632546Y-38407546D01*
X129718796Y-38292331D01*
X129721156Y-38286005D01*
X129739243Y-38237511D01*
X129769091Y-38157483D01*
X129774643Y-38105842D01*
X129775499Y-38097885D01*
X129775499Y-38097882D01*
X129775500Y-38097873D01*
X129775499Y-37602128D01*
X129769091Y-37542517D01*
X129745587Y-37479499D01*
X129718797Y-37407670D01*
X129718795Y-37407666D01*
X129632547Y-37292455D01*
X129632545Y-37292453D01*
X129610205Y-37275729D01*
X129591667Y-37252155D01*
X129570462Y-37230950D01*
X129568120Y-37222211D01*
X129562529Y-37215101D01*
X129550500Y-37156450D01*
X129550500Y-37008784D01*
X129570462Y-36934284D01*
X129609471Y-36890059D01*
X129626862Y-36876871D01*
X129626862Y-36876870D01*
X129626867Y-36876867D01*
X129713115Y-36763132D01*
X129765479Y-36630346D01*
X129769012Y-36600926D01*
X129797714Y-36529338D01*
X129858366Y-36481692D01*
X129934714Y-36470755D01*
X130006303Y-36499457D01*
X130022308Y-36513333D01*
X130405859Y-36896884D01*
X130444423Y-36963679D01*
X130449500Y-37002243D01*
X130449500Y-42800500D01*
X130429538Y-42875000D01*
X130375000Y-42929538D01*
X130300500Y-42949500D01*
X128289743Y-42949500D01*
X128215243Y-42929538D01*
X128184384Y-42905859D01*
X125194140Y-39915615D01*
X125155576Y-39848820D01*
X125150499Y-39810256D01*
X125150499Y-38605133D01*
X125147585Y-38580010D01*
X125147584Y-38580008D01*
X125102206Y-38477235D01*
X125022765Y-38397794D01*
X125022764Y-38397793D01*
X124919994Y-38352416D01*
X124919991Y-38352415D01*
X124919982Y-38352414D01*
X124894865Y-38349500D01*
X124894859Y-38349500D01*
X123105133Y-38349500D01*
X123080010Y-38352414D01*
X123080007Y-38352415D01*
X122977235Y-38397793D01*
X122897793Y-38477235D01*
X122852416Y-38580005D01*
X122852415Y-38580008D01*
X122852415Y-38580009D01*
X122849500Y-38605135D01*
X120500500Y-38605135D01*
X120500500Y-31208852D01*
X122474500Y-31208852D01*
X122474500Y-31791147D01*
X122484640Y-31875590D01*
X122537635Y-32009973D01*
X122537638Y-32009979D01*
X122606574Y-32100883D01*
X122624922Y-32125078D01*
X122670376Y-32159547D01*
X122740020Y-32212361D01*
X122740023Y-32212362D01*
X122740025Y-32212364D01*
X122807217Y-32238861D01*
X122874409Y-32265359D01*
X122890260Y-32267262D01*
X122958856Y-32275500D01*
X123160257Y-32275500D01*
X123179205Y-32280577D01*
X123198821Y-32280577D01*
X123215808Y-32290384D01*
X123234757Y-32295462D01*
X123265616Y-32319141D01*
X123405859Y-32459383D01*
X123444423Y-32526177D01*
X123449500Y-32564742D01*
X123449500Y-33321945D01*
X123429538Y-33396445D01*
X123388080Y-33442489D01*
X123250500Y-33542446D01*
X123250497Y-33542448D01*
X123122448Y-33670497D01*
X123122446Y-33670500D01*
X123016005Y-33817003D01*
X123016005Y-33817004D01*
X122933789Y-33978360D01*
X122910675Y-34049500D01*
X122877829Y-34150591D01*
X122849500Y-34329454D01*
X122849500Y-34510546D01*
X122877829Y-34689409D01*
X122933789Y-34861639D01*
X123005829Y-35003025D01*
X123016005Y-35022995D01*
X123016005Y-35022996D01*
X123039509Y-35055346D01*
X123122447Y-35169501D01*
X123250499Y-35297553D01*
X123397006Y-35403996D01*
X123558361Y-35486211D01*
X123730591Y-35542171D01*
X123909454Y-35570500D01*
X123909458Y-35570500D01*
X124090542Y-35570500D01*
X124090546Y-35570500D01*
X124269409Y-35542171D01*
X124441639Y-35486211D01*
X124602994Y-35403996D01*
X124749501Y-35297553D01*
X124877553Y-35169501D01*
X124977511Y-35031920D01*
X125037451Y-34983382D01*
X125098055Y-34970500D01*
X126099653Y-34970500D01*
X126174153Y-34990462D01*
X126228691Y-35045000D01*
X126238262Y-35064833D01*
X126264940Y-35132483D01*
X126286884Y-35188130D01*
X126286884Y-35188131D01*
X126373131Y-35301865D01*
X126373134Y-35301868D01*
X126477849Y-35381276D01*
X126525149Y-35442198D01*
X126535652Y-35518607D01*
X126506542Y-35590031D01*
X126477849Y-35618724D01*
X126373134Y-35698131D01*
X126373131Y-35698134D01*
X126286884Y-35811868D01*
X126286884Y-35811869D01*
X126270882Y-35852448D01*
X126246548Y-35914157D01*
X126234521Y-35944655D01*
X126234520Y-35944657D01*
X126230216Y-35980499D01*
X126224500Y-36028098D01*
X126224500Y-36546902D01*
X126234521Y-36630346D01*
X126286885Y-36763132D01*
X126373133Y-36876867D01*
X126373135Y-36876868D01*
X126373137Y-36876871D01*
X126390529Y-36890059D01*
X126408645Y-36913391D01*
X126429538Y-36934284D01*
X126431999Y-36943469D01*
X126437830Y-36950979D01*
X126449500Y-37008784D01*
X126449500Y-37156450D01*
X126429538Y-37230950D01*
X126389795Y-37275729D01*
X126367454Y-37292453D01*
X126367452Y-37292455D01*
X126281204Y-37407666D01*
X126281202Y-37407670D01*
X126230908Y-37542517D01*
X126224500Y-37602114D01*
X126224500Y-38097863D01*
X126224502Y-38097888D01*
X126230908Y-38157478D01*
X126230909Y-38157484D01*
X126281202Y-38292329D01*
X126281204Y-38292333D01*
X126367452Y-38407544D01*
X126367455Y-38407547D01*
X126482666Y-38493795D01*
X126482670Y-38493797D01*
X126617517Y-38544091D01*
X126677114Y-38550499D01*
X126677118Y-38550499D01*
X126677127Y-38550500D01*
X127322872Y-38550499D01*
X127382483Y-38544091D01*
X127502038Y-38499500D01*
X127517329Y-38493797D01*
X127517333Y-38493795D01*
X127606461Y-38427073D01*
X127632546Y-38407546D01*
X127718796Y-38292331D01*
X127721156Y-38286005D01*
X127739243Y-38237511D01*
X127769091Y-38157483D01*
X127774643Y-38105842D01*
X127775499Y-38097885D01*
X127775499Y-38097882D01*
X127775500Y-38097873D01*
X127775499Y-37602128D01*
X127769091Y-37542517D01*
X127745587Y-37479499D01*
X127718797Y-37407670D01*
X127718795Y-37407666D01*
X127632547Y-37292455D01*
X127632545Y-37292453D01*
X127610205Y-37275729D01*
X127591667Y-37252155D01*
X127570462Y-37230950D01*
X127568120Y-37222211D01*
X127562529Y-37215101D01*
X127550500Y-37156450D01*
X127550500Y-37008784D01*
X127570462Y-36934284D01*
X127609471Y-36890059D01*
X127626862Y-36876871D01*
X127626862Y-36876870D01*
X127626867Y-36876867D01*
X127713115Y-36763132D01*
X127765479Y-36630346D01*
X127775500Y-36546902D01*
X127775500Y-36028098D01*
X127765479Y-35944654D01*
X127713115Y-35811868D01*
X127626868Y-35698134D01*
X127626865Y-35698131D01*
X127571606Y-35656227D01*
X127522149Y-35618722D01*
X127474850Y-35557803D01*
X127464347Y-35481393D01*
X127493457Y-35409969D01*
X127522148Y-35381277D01*
X127626867Y-35301867D01*
X127713115Y-35188132D01*
X127765479Y-35055346D01*
X127775500Y-34971902D01*
X127775500Y-34453098D01*
X127765479Y-34369654D01*
X127713115Y-34236868D01*
X127630014Y-34127283D01*
X127626868Y-34123134D01*
X127626865Y-34123131D01*
X127542982Y-34059521D01*
X127513132Y-34036885D01*
X127513130Y-34036884D01*
X127448240Y-34011295D01*
X127380346Y-33984521D01*
X127380343Y-33984520D01*
X127380342Y-33984520D01*
X127296902Y-33974500D01*
X127076796Y-33974500D01*
X127020629Y-33963508D01*
X127011153Y-33959651D01*
X126919985Y-33907016D01*
X126817261Y-33879491D01*
X126808277Y-33877083D01*
X126808273Y-33877082D01*
X126779978Y-33869500D01*
X126779975Y-33869500D01*
X125098055Y-33869500D01*
X125023555Y-33849538D01*
X124977511Y-33808080D01*
X124948447Y-33768077D01*
X124877553Y-33670499D01*
X124749501Y-33542447D01*
X124611920Y-33442489D01*
X124563382Y-33382549D01*
X124550500Y-33321945D01*
X124550500Y-32202525D01*
X124550499Y-32202523D01*
X124512983Y-32062512D01*
X124440511Y-31936988D01*
X124440506Y-31936982D01*
X124338015Y-31834490D01*
X124338015Y-31834491D01*
X124019141Y-31515616D01*
X123980577Y-31448821D01*
X123975500Y-31410257D01*
X123975500Y-31208857D01*
X123975500Y-31208856D01*
X123965359Y-31124410D01*
X123912364Y-30990025D01*
X123912362Y-30990023D01*
X123912361Y-30990020D01*
X123859547Y-30920376D01*
X123825078Y-30874922D01*
X123800883Y-30856574D01*
X123709979Y-30787638D01*
X123709973Y-30787635D01*
X123575590Y-30734640D01*
X123491147Y-30724500D01*
X123491144Y-30724500D01*
X122958856Y-30724500D01*
X122958852Y-30724500D01*
X122874409Y-30734640D01*
X122740026Y-30787635D01*
X122740020Y-30787638D01*
X122624924Y-30874920D01*
X122624920Y-30874924D01*
X122537638Y-30990020D01*
X122537635Y-30990026D01*
X122484640Y-31124409D01*
X122474500Y-31208852D01*
X120500500Y-31208852D01*
X120500500Y-30149500D01*
X120520462Y-30075000D01*
X120575000Y-30020462D01*
X120649500Y-30000500D01*
X166850500Y-30000500D01*
X166925000Y-30020462D01*
G37*
%TD.AperFunction*%
%TD*%
M02*
