%TF.GenerationSoftware,KiCad,Pcbnew,9.0.1*%
%TF.CreationDate,2025-04-10T17:15:12+02:00*%
%TF.ProjectId,projet_rubix_cube,70726f6a-6574-45f7-9275-6269785f6375,rev?*%
%TF.SameCoordinates,Original*%
%TF.FileFunction,Legend,Bot*%
%TF.FilePolarity,Positive*%
%FSLAX46Y46*%
G04 Gerber Fmt 4.6, Leading zero omitted, Abs format (unit mm)*
G04 Created by KiCad (PCBNEW 9.0.1) date 2025-04-10 17:15:12*
%MOMM*%
%LPD*%
G01*
G04 APERTURE LIST*
%ADD10C,0.100000*%
G04 APERTURE END LIST*
D10*
G36*
X162307923Y-51808094D02*
G01*
X162712201Y-51900420D01*
X163091615Y-52052812D01*
X163450559Y-52267319D01*
X163792219Y-52548770D01*
X164095124Y-52885423D01*
X164326913Y-53247906D01*
X164492663Y-53640124D01*
X164593949Y-54067732D01*
X164628750Y-54537822D01*
X164591896Y-55016432D01*
X164484874Y-55448597D01*
X164309907Y-55842278D01*
X164065045Y-56203693D01*
X163744286Y-56536950D01*
X163404194Y-56796506D01*
X163051296Y-56994245D01*
X162682795Y-57134421D01*
X162294995Y-57219024D01*
X161883461Y-57247697D01*
X161483868Y-57220715D01*
X161108614Y-57141262D01*
X160753486Y-57009995D01*
X160414951Y-56825462D01*
X160001875Y-57247697D01*
X159002311Y-57247697D01*
X159872121Y-56398953D01*
X159594870Y-56062857D01*
X159385185Y-55715899D01*
X159237439Y-55355264D01*
X159148653Y-54977078D01*
X159118632Y-54576596D01*
X159122139Y-54522252D01*
X159919748Y-54522252D01*
X159952696Y-54902955D01*
X160048184Y-55242512D01*
X160204675Y-55548676D01*
X160425331Y-55827119D01*
X161190422Y-55063555D01*
X162218684Y-55063555D01*
X160978846Y-56268893D01*
X161264761Y-56399154D01*
X161573794Y-56478175D01*
X161911243Y-56505198D01*
X162278237Y-56470428D01*
X162621498Y-56367365D01*
X162947430Y-56194023D01*
X163260685Y-55943440D01*
X163463974Y-55714315D01*
X163620801Y-55463429D01*
X163733889Y-55187681D01*
X163803545Y-54882688D01*
X163827634Y-54543012D01*
X163791291Y-54112456D01*
X163686615Y-53733364D01*
X163516290Y-53396394D01*
X163277782Y-53094652D01*
X163047078Y-52887498D01*
X162795901Y-52728216D01*
X162521290Y-52613729D01*
X162219009Y-52543417D01*
X161883766Y-52519155D01*
X161475766Y-52556363D01*
X161111762Y-52664386D01*
X160783014Y-52842153D01*
X160483339Y-53094347D01*
X160237098Y-53398784D01*
X160062731Y-53733659D01*
X159956425Y-54105255D01*
X159919748Y-54522252D01*
X159122139Y-54522252D01*
X159146612Y-54142979D01*
X159227904Y-53747698D01*
X159360202Y-53385191D01*
X159543485Y-53050809D01*
X159780016Y-52741008D01*
X160074232Y-52453515D01*
X160406806Y-52205969D01*
X160750027Y-52017547D01*
X161106497Y-51884170D01*
X161479606Y-51803827D01*
X161873386Y-51776657D01*
X162307923Y-51808094D01*
G37*
G36*
X158141660Y-56765622D02*
G01*
X158106700Y-56586362D01*
X158000610Y-56431620D01*
X157845120Y-56325438D01*
X157662944Y-56290265D01*
X157480821Y-56325448D01*
X157325584Y-56431620D01*
X157219412Y-56586857D01*
X157184228Y-56768981D01*
X157219556Y-56954045D01*
X157325584Y-57110005D01*
X157478225Y-57213051D01*
X157662944Y-57247697D01*
X157850818Y-57212888D01*
X158003968Y-57110005D01*
X158106705Y-56956388D01*
X158141660Y-56765622D01*
G37*
G36*
X153247034Y-54414480D02*
G01*
X151058618Y-54414480D01*
X151058618Y-54587892D01*
X151075389Y-54981013D01*
X151123166Y-55328440D01*
X151198752Y-55635389D01*
X151308861Y-55906601D01*
X151461576Y-56169060D01*
X151660371Y-56424598D01*
X151973093Y-56723155D01*
X152311689Y-56951068D01*
X152679961Y-57113887D01*
X153083642Y-57213435D01*
X153530050Y-57247697D01*
X153964434Y-57215128D01*
X154366085Y-57119657D01*
X154740902Y-56962209D01*
X155093610Y-56740474D01*
X155427512Y-56449023D01*
X155714903Y-56111024D01*
X155934083Y-55753536D01*
X156090023Y-55373211D01*
X156184707Y-54965337D01*
X156217027Y-54524084D01*
X156183928Y-54072876D01*
X156087211Y-53658345D01*
X155928330Y-53274240D01*
X155705496Y-52915535D01*
X155413773Y-52578689D01*
X155075267Y-52287567D01*
X154714761Y-52065070D01*
X154328700Y-51906364D01*
X153912060Y-51809729D01*
X153458609Y-51776657D01*
X153051918Y-51805062D01*
X152668280Y-51888915D01*
X152303340Y-52027922D01*
X151978886Y-52219456D01*
X151643715Y-52487072D01*
X151295228Y-52843082D01*
X151864619Y-53391102D01*
X152149678Y-53063271D01*
X152446792Y-52820999D01*
X152758432Y-52653116D01*
X153089258Y-52553028D01*
X153445786Y-52519155D01*
X153775665Y-52543188D01*
X154076667Y-52613201D01*
X154353568Y-52727835D01*
X154610203Y-52888115D01*
X154849267Y-53097400D01*
X155096600Y-53398444D01*
X155271889Y-53731265D01*
X155378918Y-54102352D01*
X155415910Y-54520725D01*
X155389543Y-54868495D01*
X155312977Y-55182768D01*
X155187872Y-55469200D01*
X155012982Y-55732244D01*
X154784237Y-55974886D01*
X154471786Y-56213887D01*
X154157173Y-56377367D01*
X153836295Y-56473270D01*
X153503794Y-56505198D01*
X153217618Y-56480538D01*
X152949011Y-56407545D01*
X152693688Y-56285431D01*
X152448360Y-56110441D01*
X152235415Y-55895363D01*
X152080906Y-55666936D01*
X151978683Y-55422316D01*
X151926290Y-55156978D01*
X153247034Y-55156978D01*
X153247034Y-54414480D01*
G37*
M02*
