%TF.GenerationSoftware,KiCad,Pcbnew,9.0.1*%
%TF.CreationDate,2025-04-11T16:34:43+02:00*%
%TF.ProjectId,Driver_CMS,44726976-6572-45f4-934d-532e6b696361,rev?*%
%TF.SameCoordinates,Original*%
%TF.FileFunction,Soldermask,Top*%
%TF.FilePolarity,Negative*%
%FSLAX46Y46*%
G04 Gerber Fmt 4.6, Leading zero omitted, Abs format (unit mm)*
G04 Created by KiCad (PCBNEW 9.0.1) date 2025-04-11 16:34:43*
%MOMM*%
%LPD*%
G01*
G04 APERTURE LIST*
G04 Aperture macros list*
%AMRoundRect*
0 Rectangle with rounded corners*
0 $1 Rounding radius*
0 $2 $3 $4 $5 $6 $7 $8 $9 X,Y pos of 4 corners*
0 Add a 4 corners polygon primitive as box body*
4,1,4,$2,$3,$4,$5,$6,$7,$8,$9,$2,$3,0*
0 Add four circle primitives for the rounded corners*
1,1,$1+$1,$2,$3*
1,1,$1+$1,$4,$5*
1,1,$1+$1,$6,$7*
1,1,$1+$1,$8,$9*
0 Add four rect primitives between the rounded corners*
20,1,$1+$1,$2,$3,$4,$5,0*
20,1,$1+$1,$4,$5,$6,$7,0*
20,1,$1+$1,$6,$7,$8,$9,0*
20,1,$1+$1,$8,$9,$2,$3,0*%
G04 Aperture macros list end*
%ADD10RoundRect,0.200000X-0.275000X0.200000X-0.275000X-0.200000X0.275000X-0.200000X0.275000X0.200000X0*%
%ADD11RoundRect,0.112500X-0.112500X0.187500X-0.112500X-0.187500X0.112500X-0.187500X0.112500X0.187500X0*%
%ADD12RoundRect,0.218750X0.256250X-0.218750X0.256250X0.218750X-0.256250X0.218750X-0.256250X-0.218750X0*%
%ADD13R,1.700000X0.700000*%
%ADD14R,5.000000X1.450000*%
%ADD15R,9.400000X14.800000*%
%ADD16C,3.500000*%
%ADD17R,1.700000X1.700000*%
%ADD18C,1.700000*%
%ADD19RoundRect,0.218750X-0.256250X0.218750X-0.256250X-0.218750X0.256250X-0.218750X0.256250X0.218750X0*%
%ADD20RoundRect,0.250000X-0.550000X1.412500X-0.550000X-1.412500X0.550000X-1.412500X0.550000X1.412500X0*%
%ADD21RoundRect,0.225000X0.225000X0.250000X-0.225000X0.250000X-0.225000X-0.250000X0.225000X-0.250000X0*%
G04 APERTURE END LIST*
D10*
%TO.C,R5*%
X135720000Y-65817500D03*
X135720000Y-67467500D03*
%TD*%
D11*
%TO.C,D5*%
X139720000Y-57855000D03*
X139720000Y-59955000D03*
%TD*%
%TO.C,D4*%
X139720000Y-53355000D03*
X139720000Y-55455000D03*
%TD*%
D12*
%TO.C,D14*%
X128220000Y-49142500D03*
X128220000Y-47567500D03*
%TD*%
D13*
%TO.C,U2*%
X146500000Y-52000000D03*
X146500000Y-53270000D03*
X146500000Y-54540000D03*
X146500000Y-55810000D03*
X146500000Y-57080000D03*
X146500000Y-58350000D03*
X146500000Y-59620000D03*
X146500000Y-60890000D03*
X146500000Y-62160000D03*
X146500000Y-63430000D03*
X160200000Y-63430000D03*
X160200000Y-62160000D03*
X160200000Y-60890000D03*
X160200000Y-59620000D03*
X160200000Y-58350000D03*
X160200000Y-57080000D03*
X160200000Y-55810000D03*
X160200000Y-54540000D03*
X160200000Y-53270000D03*
X160200000Y-52000000D03*
D14*
X153350000Y-49590000D03*
D15*
X153350000Y-57715000D03*
D14*
X153350000Y-65840000D03*
%TD*%
D16*
%TO.C,*%
X123220000Y-56855000D03*
%TD*%
D11*
%TO.C,D2*%
X137220000Y-53305000D03*
X137220000Y-55405000D03*
%TD*%
%TO.C,D3*%
X139720000Y-49805000D03*
X139720000Y-51905000D03*
%TD*%
D12*
%TO.C,D18*%
X137720000Y-47642500D03*
X137720000Y-46067500D03*
%TD*%
D11*
%TO.C,D7*%
X139720000Y-61355000D03*
X139720000Y-63455000D03*
%TD*%
D17*
%TO.C,J3*%
X123220000Y-52355000D03*
D18*
X123220000Y-49815000D03*
X123220000Y-47275000D03*
%TD*%
D12*
%TO.C,D15*%
X137720000Y-67430000D03*
X137720000Y-65855000D03*
%TD*%
D10*
%TO.C,R4*%
X128220000Y-50705000D03*
X128220000Y-52355000D03*
%TD*%
D19*
%TO.C,D16*%
X139720000Y-65855000D03*
X139720000Y-67430000D03*
%TD*%
D11*
%TO.C,D8*%
X137220000Y-61405000D03*
X137220000Y-63505000D03*
%TD*%
D17*
%TO.C,J2*%
X132220000Y-58815000D03*
D18*
X132220000Y-61355000D03*
X132220000Y-63895000D03*
X132220000Y-66435000D03*
%TD*%
D11*
%TO.C,D6*%
X137220000Y-57855000D03*
X137220000Y-59955000D03*
%TD*%
D20*
%TO.C,C2*%
X124720000Y-62355000D03*
X124720000Y-67430000D03*
%TD*%
D21*
%TO.C,C1*%
X123995000Y-44355000D03*
X122445000Y-44355000D03*
%TD*%
D11*
%TO.C,D1*%
X137220000Y-49805000D03*
X137220000Y-51905000D03*
%TD*%
D10*
%TO.C,R3*%
X126220000Y-50705000D03*
X126220000Y-52355000D03*
%TD*%
D19*
%TO.C,D17*%
X139720000Y-46067500D03*
X139720000Y-47642500D03*
%TD*%
D17*
%TO.C,J1*%
X132220000Y-47045000D03*
D18*
X132220000Y-49585000D03*
X132220000Y-52125000D03*
X132220000Y-54665000D03*
%TD*%
D12*
%TO.C,D19*%
X126220000Y-49142500D03*
X126220000Y-47567500D03*
%TD*%
D10*
%TO.C,R6*%
X135720000Y-46030000D03*
X135720000Y-47680000D03*
%TD*%
M02*
