%TF.GenerationSoftware,KiCad,Pcbnew,9.0.1*%
%TF.CreationDate,2025-04-10T17:15:11+02:00*%
%TF.ProjectId,projet_rubix_cube,70726f6a-6574-45f7-9275-6269785f6375,rev?*%
%TF.SameCoordinates,Original*%
%TF.FileFunction,Copper,L1,Top*%
%TF.FilePolarity,Positive*%
%FSLAX46Y46*%
G04 Gerber Fmt 4.6, Leading zero omitted, Abs format (unit mm)*
G04 Created by KiCad (PCBNEW 9.0.1) date 2025-04-10 17:15:11*
%MOMM*%
%LPD*%
G01*
G04 APERTURE LIST*
G04 Aperture macros list*
%AMRoundRect*
0 Rectangle with rounded corners*
0 $1 Rounding radius*
0 $2 $3 $4 $5 $6 $7 $8 $9 X,Y pos of 4 corners*
0 Add a 4 corners polygon primitive as box body*
4,1,4,$2,$3,$4,$5,$6,$7,$8,$9,$2,$3,0*
0 Add four circle primitives for the rounded corners*
1,1,$1+$1,$2,$3*
1,1,$1+$1,$4,$5*
1,1,$1+$1,$6,$7*
1,1,$1+$1,$8,$9*
0 Add four rect primitives between the rounded corners*
20,1,$1+$1,$2,$3,$4,$5,0*
20,1,$1+$1,$4,$5,$6,$7,0*
20,1,$1+$1,$6,$7,$8,$9,0*
20,1,$1+$1,$8,$9,$2,$3,0*%
G04 Aperture macros list end*
%TA.AperFunction,SMDPad,CuDef*%
%ADD10RoundRect,0.218750X-0.256250X0.218750X-0.256250X-0.218750X0.256250X-0.218750X0.256250X0.218750X0*%
%TD*%
%TA.AperFunction,SMDPad,CuDef*%
%ADD11RoundRect,0.218750X0.256250X-0.218750X0.256250X0.218750X-0.256250X0.218750X-0.256250X-0.218750X0*%
%TD*%
%TA.AperFunction,ComponentPad*%
%ADD12R,1.700000X1.700000*%
%TD*%
%TA.AperFunction,ComponentPad*%
%ADD13C,1.700000*%
%TD*%
%TA.AperFunction,ComponentPad*%
%ADD14R,1.800000X1.800000*%
%TD*%
%TA.AperFunction,ComponentPad*%
%ADD15C,1.800000*%
%TD*%
%TA.AperFunction,SMDPad,CuDef*%
%ADD16RoundRect,0.112500X-0.112500X0.187500X-0.112500X-0.187500X0.112500X-0.187500X0.112500X0.187500X0*%
%TD*%
%TA.AperFunction,SMDPad,CuDef*%
%ADD17RoundRect,0.200000X-0.275000X0.200000X-0.275000X-0.200000X0.275000X-0.200000X0.275000X0.200000X0*%
%TD*%
%TA.AperFunction,SMDPad,CuDef*%
%ADD18RoundRect,0.250000X-0.550000X1.412500X-0.550000X-1.412500X0.550000X-1.412500X0.550000X1.412500X0*%
%TD*%
%TA.AperFunction,SMDPad,CuDef*%
%ADD19RoundRect,0.225000X0.225000X0.250000X-0.225000X0.250000X-0.225000X-0.250000X0.225000X-0.250000X0*%
%TD*%
%TA.AperFunction,Conductor*%
%ADD20C,0.500000*%
%TD*%
G04 APERTURE END LIST*
D10*
%TO.P,D17,1,K*%
%TO.N,out_bobine1*%
X140500000Y-33212500D03*
%TO.P,D17,2,A*%
%TO.N,Net-(D17-A)*%
X140500000Y-34787500D03*
%TD*%
D11*
%TO.P,D19,1,K*%
%TO.N,Net-(D19-K)*%
X127000000Y-36287500D03*
%TO.P,D19,2,A*%
%TO.N,+5V*%
X127000000Y-34712500D03*
%TD*%
D12*
%TO.P,J2,1,Pin_1*%
%TO.N,alim_bobine1*%
X133000000Y-45960000D03*
D13*
%TO.P,J2,2,Pin_2*%
%TO.N,alim_bobine2*%
X133000000Y-48500000D03*
%TO.P,J2,3,Pin_3*%
%TO.N,alim_bobine3*%
X133000000Y-51040000D03*
%TO.P,J2,4,Pin_4*%
%TO.N,alim_bobine4*%
X133000000Y-53580000D03*
%TD*%
D14*
%TO.P,U2,1,SENSE_A*%
%TO.N,GND*%
X143280000Y-35105000D03*
D15*
%TO.P,U2,2,OUT1*%
%TO.N,out_bobine1*%
X145820000Y-36375000D03*
%TO.P,U2,3,OUT2*%
%TO.N,out_bobine2*%
X143280000Y-37645000D03*
%TO.P,U2,4,Vs*%
%TO.N,+24V*%
X145820000Y-38915000D03*
%TO.P,U2,5,IN1*%
%TO.N,alim_bobine1*%
X143280000Y-40185000D03*
%TO.P,U2,6,EnA*%
%TO.N,+5V*%
X145820000Y-41455000D03*
%TO.P,U2,7,IN2*%
%TO.N,alim_bobine2*%
X143280000Y-42725000D03*
%TO.P,U2,8,GND*%
%TO.N,GND*%
X145820000Y-43995000D03*
%TO.P,U2,9,Vss*%
%TO.N,+5V*%
X143280000Y-45265000D03*
%TO.P,U2,10,IN3*%
%TO.N,alim_bobine3*%
X145820000Y-46535000D03*
%TO.P,U2,11,EnB*%
%TO.N,+5V*%
X143280000Y-47805000D03*
%TO.P,U2,12,IN4*%
%TO.N,alim_bobine4*%
X145820000Y-49075000D03*
%TO.P,U2,13,OUT3*%
%TO.N,out_bobine3*%
X143280000Y-50345000D03*
%TO.P,U2,14,OUT4*%
%TO.N,out_bobine4*%
X145820000Y-51615000D03*
%TO.P,U2,15,SENSE_B*%
%TO.N,GND*%
X143280000Y-52885000D03*
%TD*%
D16*
%TO.P,D7,1,K*%
%TO.N,out_bobine3*%
X140500000Y-48500000D03*
%TO.P,D7,2,A*%
%TO.N,GND*%
X140500000Y-50600000D03*
%TD*%
D11*
%TO.P,D15,1,K*%
%TO.N,out_bobine4*%
X138500000Y-54575000D03*
%TO.P,D15,2,A*%
%TO.N,Net-(D15-A)*%
X138500000Y-53000000D03*
%TD*%
D17*
%TO.P,R6,1*%
%TO.N,Net-(D17-A)*%
X136500000Y-33175000D03*
%TO.P,R6,2*%
%TO.N,out_bobine2*%
X136500000Y-34825000D03*
%TD*%
D16*
%TO.P,D8,1,K*%
%TO.N,out_bobine4*%
X138000000Y-48550000D03*
%TO.P,D8,2,A*%
%TO.N,GND*%
X138000000Y-50650000D03*
%TD*%
%TO.P,D2,1,K*%
%TO.N,out_bobine1*%
X138000000Y-40450000D03*
%TO.P,D2,2,A*%
%TO.N,GND*%
X138000000Y-42550000D03*
%TD*%
D17*
%TO.P,R3,1*%
%TO.N,Net-(D19-K)*%
X127000000Y-37850000D03*
%TO.P,R3,2*%
%TO.N,GND*%
X127000000Y-39500000D03*
%TD*%
D10*
%TO.P,D16,1,K*%
%TO.N,Net-(D15-A)*%
X140500000Y-53000000D03*
%TO.P,D16,2,A*%
%TO.N,out_bobine4*%
X140500000Y-54575000D03*
%TD*%
D16*
%TO.P,D6,1,K*%
%TO.N,+24V*%
X138000000Y-45000000D03*
%TO.P,D6,2,A*%
%TO.N,out_bobine4*%
X138000000Y-47100000D03*
%TD*%
D12*
%TO.P,J1,1,Pin_1*%
%TO.N,out_bobine1*%
X133000000Y-34190000D03*
D13*
%TO.P,J1,2,Pin_2*%
%TO.N,out_bobine2*%
X133000000Y-36730000D03*
%TO.P,J1,3,Pin_3*%
%TO.N,out_bobine3*%
X133000000Y-39270000D03*
%TO.P,J1,4,Pin_4*%
%TO.N,out_bobine4*%
X133000000Y-41810000D03*
%TD*%
D12*
%TO.P,J3,1,Pin_1*%
%TO.N,+24V*%
X124000000Y-39500000D03*
D13*
%TO.P,J3,2,Pin_2*%
%TO.N,GND*%
X124000000Y-36960000D03*
%TO.P,J3,3,Pin_3*%
%TO.N,+5V*%
X124000000Y-34420000D03*
%TD*%
D11*
%TO.P,D14,1,K*%
%TO.N,Net-(D14-K)*%
X129000000Y-36287500D03*
%TO.P,D14,2,A*%
%TO.N,+24V*%
X129000000Y-34712500D03*
%TD*%
D16*
%TO.P,D1,1,K*%
%TO.N,+24V*%
X138000000Y-36950000D03*
%TO.P,D1,2,A*%
%TO.N,out_bobine1*%
X138000000Y-39050000D03*
%TD*%
%TO.P,D4,1,K*%
%TO.N,out_bobine2*%
X140500000Y-40500000D03*
%TO.P,D4,2,A*%
%TO.N,GND*%
X140500000Y-42600000D03*
%TD*%
D17*
%TO.P,R4,1*%
%TO.N,Net-(D14-K)*%
X129000000Y-37850000D03*
%TO.P,R4,2*%
%TO.N,GND*%
X129000000Y-39500000D03*
%TD*%
%TO.P,R5,1*%
%TO.N,Net-(D15-A)*%
X136500000Y-52962500D03*
%TO.P,R5,2*%
%TO.N,out_bobine3*%
X136500000Y-54612500D03*
%TD*%
D16*
%TO.P,D5,1,K*%
%TO.N,+24V*%
X140500000Y-45000000D03*
%TO.P,D5,2,A*%
%TO.N,out_bobine3*%
X140500000Y-47100000D03*
%TD*%
D18*
%TO.P,C2,1*%
%TO.N,+24V*%
X125500000Y-49500000D03*
%TO.P,C2,2*%
%TO.N,GND*%
X125500000Y-54575000D03*
%TD*%
D11*
%TO.P,D18,1,K*%
%TO.N,Net-(D17-A)*%
X138500000Y-34787500D03*
%TO.P,D18,2,A*%
%TO.N,out_bobine1*%
X138500000Y-33212500D03*
%TD*%
D16*
%TO.P,D3,1,K*%
%TO.N,+24V*%
X140500000Y-36950000D03*
%TO.P,D3,2,A*%
%TO.N,out_bobine2*%
X140500000Y-39050000D03*
%TD*%
D19*
%TO.P,C1,1*%
%TO.N,GND*%
X124775000Y-31500000D03*
%TO.P,C1,2*%
%TO.N,+5V*%
X123225000Y-31500000D03*
%TD*%
D20*
%TO.N,out_bobine1*%
X140500000Y-33212500D02*
X141526000Y-34238500D01*
X140890448Y-38199000D02*
X138851000Y-38199000D01*
X138851000Y-38199000D02*
X138000000Y-39050000D01*
X141526000Y-34238500D02*
X141526000Y-37563448D01*
X141526000Y-37563448D02*
X140890448Y-38199000D01*
%TO.N,+24V*%
X145820000Y-38915000D02*
X147750000Y-36985000D01*
X147750000Y-36985000D02*
X147750000Y-34250000D01*
X144356250Y-30856250D02*
X132856250Y-30856250D01*
X147750000Y-34250000D02*
X144356250Y-30856250D01*
X132856250Y-30856250D02*
X129000000Y-34712500D01*
%TO.N,out_bobine4*%
X138500000Y-54575000D02*
X137511500Y-55563500D01*
X134640393Y-51635373D02*
X137725766Y-48550000D01*
X137725766Y-48550000D02*
X138000000Y-48550000D01*
X137511500Y-55563500D02*
X135908384Y-55563500D01*
X135908384Y-55563500D02*
X134640393Y-54295509D01*
X134640393Y-54295509D02*
X134640393Y-51635373D01*
%TO.N,+5V*%
X124000000Y-34420000D02*
X124000000Y-33000000D01*
X123225000Y-32225000D02*
X123225000Y-31500000D01*
X124000000Y-33000000D02*
X123225000Y-32225000D01*
X126707500Y-34420000D02*
X127000000Y-34712500D01*
X124000000Y-34420000D02*
X126707500Y-34420000D01*
%TO.N,GND*%
X127000000Y-39500000D02*
X129000000Y-39500000D01*
X138000000Y-50650000D02*
X140450000Y-50650000D01*
X124460000Y-36960000D02*
X127000000Y-39500000D01*
X140450000Y-50650000D02*
X140500000Y-50600000D01*
X124000000Y-36960000D02*
X124460000Y-36960000D01*
X140450000Y-42550000D02*
X140500000Y-42600000D01*
X138000000Y-42550000D02*
X140450000Y-42550000D01*
%TO.N,+24V*%
X136500000Y-43500000D02*
X133799700Y-43500000D01*
X138000000Y-45000000D02*
X140500000Y-45000000D01*
X138000000Y-45000000D02*
X136500000Y-43500000D01*
X131000000Y-36712500D02*
X131000000Y-43500000D01*
X136500000Y-40799700D02*
X133799700Y-43500000D01*
X125500000Y-49500000D02*
X125500000Y-47500000D01*
X129000000Y-34712500D02*
X131000000Y-36712500D01*
X136500000Y-38450000D02*
X136500000Y-40799700D01*
X124000000Y-39500000D02*
X126500000Y-42000000D01*
X128000000Y-43500000D02*
X126500000Y-42000000D01*
X128000000Y-45000000D02*
X128000000Y-43500000D01*
X131000000Y-43500000D02*
X128000000Y-43500000D01*
X133799700Y-43500000D02*
X131000000Y-43500000D01*
X125500000Y-47500000D02*
X128000000Y-45000000D01*
X138000000Y-36950000D02*
X140500000Y-36950000D01*
X138000000Y-36950000D02*
X136500000Y-38450000D01*
%TO.N,alim_bobine3*%
X131000000Y-53040000D02*
X131000000Y-54500000D01*
X131000000Y-54500000D02*
X134000000Y-57500000D01*
X148500000Y-55818309D02*
X148500000Y-49215000D01*
X148500000Y-49215000D02*
X145820000Y-46535000D01*
X134000000Y-57500000D02*
X146818309Y-57500000D01*
X133000000Y-51040000D02*
X131000000Y-53040000D01*
X146818309Y-57500000D02*
X148500000Y-55818309D01*
%TO.N,alim_bobine4*%
X133000000Y-54790000D02*
X134710000Y-56500000D01*
X133000000Y-53580000D02*
X133000000Y-54790000D01*
X147500000Y-55000000D02*
X147500000Y-50755000D01*
X147500000Y-50755000D02*
X145820000Y-49075000D01*
X134710000Y-56500000D02*
X146000000Y-56500000D01*
X146000000Y-56500000D02*
X147500000Y-55000000D01*
%TO.N,out_bobine1*%
X145820000Y-34320000D02*
X144712500Y-33212500D01*
X145820000Y-36375000D02*
X145820000Y-34320000D01*
X135190000Y-32000000D02*
X137287500Y-32000000D01*
X144712500Y-33212500D02*
X140500000Y-33212500D01*
X138000000Y-39500000D02*
X138000000Y-39050000D01*
X138000000Y-40450000D02*
X138000000Y-39500000D01*
X138500000Y-33212500D02*
X140500000Y-33212500D01*
X137287500Y-32000000D02*
X138500000Y-33212500D01*
X133000000Y-34190000D02*
X135190000Y-32000000D01*
%TO.N,out_bobine2*%
X134595000Y-36730000D02*
X136500000Y-34825000D01*
X140500000Y-39050000D02*
X141875000Y-39050000D01*
X141875000Y-39050000D02*
X143280000Y-37645000D01*
X133000000Y-36730000D02*
X134595000Y-36730000D01*
X140500000Y-40500000D02*
X140500000Y-39050000D01*
%TO.N,out_bobine3*%
X141435000Y-48500000D02*
X143280000Y-50345000D01*
X140500000Y-47100000D02*
X140500000Y-48500000D01*
X140500000Y-48500000D02*
X141435000Y-48500000D01*
%TO.N,out_bobine4*%
X145820000Y-52887792D02*
X145820000Y-51615000D01*
X140500000Y-54575000D02*
X144132792Y-54575000D01*
X138000000Y-47100000D02*
X138000000Y-48550000D01*
X140500000Y-54575000D02*
X138500000Y-54575000D01*
X144132792Y-54575000D02*
X145820000Y-52887792D01*
%TO.N,Net-(D14-K)*%
X129000000Y-37850000D02*
X129000000Y-36287500D01*
%TO.N,Net-(D15-A)*%
X138462500Y-52962500D02*
X138500000Y-53000000D01*
X140500000Y-53000000D02*
X138500000Y-53000000D01*
X136500000Y-52962500D02*
X138462500Y-52962500D01*
%TO.N,Net-(D17-A)*%
X138500000Y-34787500D02*
X140500000Y-34787500D01*
X136500000Y-33175000D02*
X136675000Y-33175000D01*
X138287500Y-34787500D02*
X138500000Y-34787500D01*
X136675000Y-33175000D02*
X138287500Y-34787500D01*
%TO.N,Net-(D19-K)*%
X127000000Y-36287500D02*
X127000000Y-37850000D01*
%TO.N,out_bobine3*%
X136450000Y-54562500D02*
X136500000Y-54562500D01*
X135441393Y-53553893D02*
X136450000Y-54562500D01*
X140500000Y-48500000D02*
X139201000Y-49799000D01*
X139201000Y-49799000D02*
X137609552Y-49799000D01*
X135441393Y-51967159D02*
X135441393Y-53553893D01*
X137609552Y-49799000D02*
X135441393Y-51967159D01*
%TD*%
%TA.AperFunction,Conductor*%
%TO.N,GND*%
G36*
X132791600Y-30021132D02*
G01*
X132847968Y-30077500D01*
X132868600Y-30154500D01*
X132847968Y-30231500D01*
X132791600Y-30287868D01*
X132754460Y-30303251D01*
X132639905Y-30333947D01*
X132639904Y-30333947D01*
X132639902Y-30333948D01*
X132512094Y-30407738D01*
X132459916Y-30459916D01*
X132407738Y-30512095D01*
X132407736Y-30512097D01*
X129000438Y-33919394D01*
X128931402Y-33959253D01*
X128891545Y-33964500D01*
X128702321Y-33964500D01*
X128636918Y-33972353D01*
X128617264Y-33974714D01*
X128617262Y-33974714D01*
X128617257Y-33974716D01*
X128481923Y-34028083D01*
X128365995Y-34115995D01*
X128278083Y-34231923D01*
X128224716Y-34367256D01*
X128224712Y-34367270D01*
X128214500Y-34452308D01*
X128214500Y-34972678D01*
X128224714Y-35057734D01*
X128224716Y-35057742D01*
X128278083Y-35193076D01*
X128278085Y-35193079D01*
X128278086Y-35193080D01*
X128365995Y-35309005D01*
X128456045Y-35377292D01*
X128504932Y-35440258D01*
X128515786Y-35519232D01*
X128485700Y-35593053D01*
X128456046Y-35622706D01*
X128368698Y-35688945D01*
X128365995Y-35690995D01*
X128278083Y-35806923D01*
X128224716Y-35942256D01*
X128224712Y-35942270D01*
X128214500Y-36027308D01*
X128214500Y-36547678D01*
X128214501Y-36547684D01*
X128224404Y-36630158D01*
X128224714Y-36632734D01*
X128224716Y-36632742D01*
X128278083Y-36768076D01*
X128278085Y-36768079D01*
X128278086Y-36768080D01*
X128365995Y-36884005D01*
X128378550Y-36893526D01*
X128397274Y-36917640D01*
X128418868Y-36939234D01*
X128421411Y-36948726D01*
X128427438Y-36956488D01*
X128439500Y-37016234D01*
X128439500Y-37148941D01*
X128418868Y-37225941D01*
X128377793Y-37272221D01*
X128360309Y-37285309D01*
X128272340Y-37402821D01*
X128272335Y-37402831D01*
X128221037Y-37540365D01*
X128221037Y-37540368D01*
X128220559Y-37544811D01*
X128214500Y-37601170D01*
X128214500Y-38098830D01*
X128218720Y-38138076D01*
X128221037Y-38159631D01*
X128221037Y-38159634D01*
X128266141Y-38280561D01*
X128272337Y-38297173D01*
X128360310Y-38414690D01*
X128477827Y-38502663D01*
X128588587Y-38543974D01*
X128611757Y-38552616D01*
X128615369Y-38553963D01*
X128676170Y-38560500D01*
X128676178Y-38560500D01*
X129323822Y-38560500D01*
X129323830Y-38560500D01*
X129384631Y-38553963D01*
X129388243Y-38552616D01*
X129401260Y-38547760D01*
X129522173Y-38502663D01*
X129639690Y-38414690D01*
X129727663Y-38297173D01*
X129778963Y-38159631D01*
X129785500Y-38098830D01*
X129785500Y-37601170D01*
X129778963Y-37540369D01*
X129727663Y-37402827D01*
X129727659Y-37402821D01*
X129639690Y-37285309D01*
X129622207Y-37272221D01*
X129603048Y-37247857D01*
X129581132Y-37225941D01*
X129578711Y-37216909D01*
X129572932Y-37209559D01*
X129560500Y-37148941D01*
X129560500Y-37016234D01*
X129581132Y-36939234D01*
X129621448Y-36893526D01*
X129634005Y-36884005D01*
X129721914Y-36768080D01*
X129726947Y-36755319D01*
X129765143Y-36658458D01*
X129775286Y-36632736D01*
X129775287Y-36632726D01*
X129777705Y-36623163D01*
X129779004Y-36623491D01*
X129804940Y-36558792D01*
X129867623Y-36509543D01*
X129946533Y-36498233D01*
X130020526Y-36527894D01*
X130037076Y-36542242D01*
X130394394Y-36899560D01*
X130434253Y-36968596D01*
X130439500Y-37008454D01*
X130439500Y-42785500D01*
X130418868Y-42862500D01*
X130362500Y-42918868D01*
X130285500Y-42939500D01*
X128295954Y-42939500D01*
X128218954Y-42918868D01*
X128187060Y-42894394D01*
X126957296Y-41664630D01*
X126957284Y-41664616D01*
X125205605Y-39912938D01*
X125165746Y-39843902D01*
X125160499Y-39804044D01*
X125160499Y-38603651D01*
X125160499Y-38603644D01*
X125157488Y-38577680D01*
X125153354Y-38568318D01*
X125110600Y-38471489D01*
X125110599Y-38471486D01*
X125110596Y-38471483D01*
X125110594Y-38471480D01*
X125028519Y-38389405D01*
X125028511Y-38389399D01*
X124922320Y-38342512D01*
X124896358Y-38339500D01*
X123103651Y-38339500D01*
X123103640Y-38339501D01*
X123077677Y-38342512D01*
X122971489Y-38389399D01*
X122971480Y-38389405D01*
X122889405Y-38471480D01*
X122889399Y-38471488D01*
X122842512Y-38577679D01*
X122839500Y-38603639D01*
X122839500Y-40396348D01*
X122839501Y-40396359D01*
X122842512Y-40422322D01*
X122887316Y-40523792D01*
X122889401Y-40528514D01*
X122889403Y-40528516D01*
X122889405Y-40528519D01*
X122971480Y-40610594D01*
X122971484Y-40610597D01*
X122971486Y-40610599D01*
X123077680Y-40657488D01*
X123103643Y-40660500D01*
X124304044Y-40660499D01*
X124381044Y-40681131D01*
X124412938Y-40705605D01*
X126164616Y-42457284D01*
X126164630Y-42457296D01*
X127394394Y-43687060D01*
X127434253Y-43756096D01*
X127439500Y-43795954D01*
X127439500Y-44704045D01*
X127418868Y-44781045D01*
X127394394Y-44812939D01*
X125162145Y-47045187D01*
X125162141Y-47045191D01*
X125155847Y-47051486D01*
X125155845Y-47051488D01*
X125051488Y-47155845D01*
X124995248Y-47253256D01*
X124989609Y-47263021D01*
X124989604Y-47263029D01*
X124977698Y-47283650D01*
X124977698Y-47283651D01*
X124939952Y-47424523D01*
X124939942Y-47424557D01*
X124939087Y-47427745D01*
X124899214Y-47496772D01*
X124830168Y-47536615D01*
X124810446Y-47540535D01*
X124803682Y-47541425D01*
X124803676Y-47541427D01*
X124667335Y-47597901D01*
X124667331Y-47597903D01*
X124667331Y-47597904D01*
X124550246Y-47687746D01*
X124484843Y-47772982D01*
X124460401Y-47804835D01*
X124403928Y-47941173D01*
X124403924Y-47941186D01*
X124389501Y-48050744D01*
X124389500Y-48050760D01*
X124389500Y-50949237D01*
X124389501Y-50949241D01*
X124392078Y-50968821D01*
X124403926Y-51058820D01*
X124403926Y-51058822D01*
X124403927Y-51058823D01*
X124460401Y-51195164D01*
X124460403Y-51195166D01*
X124460404Y-51195169D01*
X124550246Y-51312254D01*
X124667331Y-51402096D01*
X124667334Y-51402097D01*
X124667335Y-51402098D01*
X124708208Y-51419028D01*
X124803680Y-51458574D01*
X124803684Y-51458574D01*
X124803686Y-51458575D01*
X124901485Y-51471450D01*
X124913259Y-51473000D01*
X126086740Y-51472999D01*
X126196320Y-51458574D01*
X126332669Y-51402096D01*
X126449754Y-51312254D01*
X126539596Y-51195169D01*
X126596074Y-51058820D01*
X126610500Y-50949241D01*
X126610499Y-48050760D01*
X126596074Y-47941180D01*
X126564312Y-47864500D01*
X126539598Y-47804835D01*
X126539597Y-47804834D01*
X126539596Y-47804831D01*
X126449754Y-47687746D01*
X126393951Y-47644927D01*
X126345424Y-47581684D01*
X126335018Y-47502650D01*
X126365524Y-47429002D01*
X126378791Y-47413873D01*
X128448512Y-45344155D01*
X128522303Y-45216345D01*
X128560500Y-45073791D01*
X128560500Y-44926208D01*
X128560500Y-44214500D01*
X128581132Y-44137500D01*
X128637500Y-44081132D01*
X128714500Y-44060500D01*
X130926209Y-44060500D01*
X133725908Y-44060500D01*
X133725909Y-44060500D01*
X136204046Y-44060500D01*
X136281046Y-44081132D01*
X136312940Y-44105606D01*
X137435962Y-45228628D01*
X137475821Y-45297664D01*
X137479171Y-45313428D01*
X137480188Y-45319844D01*
X137527748Y-45413185D01*
X137541021Y-45439235D01*
X137635764Y-45533978D01*
X137635766Y-45533979D01*
X137635767Y-45533980D01*
X137755156Y-45594812D01*
X137854207Y-45610500D01*
X138145792Y-45610499D01*
X138145796Y-45610498D01*
X138145800Y-45610498D01*
X138191098Y-45603323D01*
X138244844Y-45594812D01*
X138244850Y-45594809D01*
X138279244Y-45577285D01*
X138349158Y-45560500D01*
X140150843Y-45560500D01*
X140220754Y-45577283D01*
X140255156Y-45594812D01*
X140354207Y-45610500D01*
X140645792Y-45610499D01*
X140645796Y-45610498D01*
X140645800Y-45610498D01*
X140691098Y-45603323D01*
X140744844Y-45594812D01*
X140864233Y-45533980D01*
X140958980Y-45439233D01*
X141019812Y-45319844D01*
X141035500Y-45220793D01*
X141035499Y-45187366D01*
X141040746Y-45147511D01*
X141060500Y-45073791D01*
X141060500Y-44926209D01*
X141040746Y-44852484D01*
X141035499Y-44812627D01*
X141035499Y-44779210D01*
X141035498Y-44779200D01*
X141019812Y-44680157D01*
X141019810Y-44680152D01*
X141015260Y-44671222D01*
X140958980Y-44560767D01*
X140958979Y-44560766D01*
X140958978Y-44560764D01*
X140864235Y-44466021D01*
X140744842Y-44405187D01*
X140645795Y-44389500D01*
X140354211Y-44389500D01*
X140354199Y-44389501D01*
X140255157Y-44405187D01*
X140255149Y-44405190D01*
X140220756Y-44422715D01*
X140150842Y-44439500D01*
X138349157Y-44439500D01*
X138293713Y-44429173D01*
X138286311Y-44426316D01*
X138244844Y-44405188D01*
X138222310Y-44401618D01*
X138207077Y-44395740D01*
X138187611Y-44381544D01*
X138165600Y-44371743D01*
X138153627Y-44360961D01*
X136957296Y-43164630D01*
X136957284Y-43164616D01*
X136844157Y-43051489D01*
X136769626Y-43008459D01*
X136716345Y-42977697D01*
X136716341Y-42977696D01*
X136716339Y-42977695D01*
X136582839Y-42941923D01*
X136582834Y-42941923D01*
X136573793Y-42939500D01*
X136573792Y-42939500D01*
X136573791Y-42939500D01*
X135524654Y-42939500D01*
X135447654Y-42918868D01*
X135391286Y-42862500D01*
X135370654Y-42785500D01*
X135391286Y-42708500D01*
X135415756Y-42676609D01*
X136948512Y-41143855D01*
X137022303Y-41016045D01*
X137060500Y-40873491D01*
X137060500Y-40725908D01*
X137060500Y-38745953D01*
X137081132Y-38668953D01*
X137105602Y-38637063D01*
X138153629Y-37589035D01*
X138222663Y-37549178D01*
X138238430Y-37545827D01*
X138244844Y-37544812D01*
X138253572Y-37540365D01*
X138279244Y-37527285D01*
X138349158Y-37510500D01*
X138375044Y-37510500D01*
X138452044Y-37531132D01*
X138508412Y-37587500D01*
X138529044Y-37664500D01*
X138508412Y-37741500D01*
X138483938Y-37773395D01*
X137846368Y-38410963D01*
X137777332Y-38450821D01*
X137761572Y-38454171D01*
X137755157Y-38455187D01*
X137755155Y-38455187D01*
X137689704Y-38488536D01*
X137689700Y-38488539D01*
X137635767Y-38516020D01*
X137541020Y-38610767D01*
X137513538Y-38664702D01*
X137513536Y-38664705D01*
X137480188Y-38730155D01*
X137464500Y-38829200D01*
X137464500Y-38862631D01*
X137459253Y-38902487D01*
X137440551Y-38972287D01*
X137440547Y-38972303D01*
X137439500Y-38976209D01*
X137439500Y-39426208D01*
X137439500Y-39426209D01*
X137439500Y-40523791D01*
X137446422Y-40549627D01*
X137459253Y-40597515D01*
X137464500Y-40637367D01*
X137464500Y-40670787D01*
X137464501Y-40670800D01*
X137480187Y-40769842D01*
X137480189Y-40769847D01*
X137541021Y-40889235D01*
X137635764Y-40983978D01*
X137635766Y-40983979D01*
X137635767Y-40983980D01*
X137755156Y-41044812D01*
X137854207Y-41060500D01*
X138145792Y-41060499D01*
X138145796Y-41060498D01*
X138145800Y-41060498D01*
X138191098Y-41053323D01*
X138244844Y-41044812D01*
X138364233Y-40983980D01*
X138458980Y-40889233D01*
X138519812Y-40769844D01*
X138535500Y-40670793D01*
X138535499Y-40637366D01*
X138540746Y-40597511D01*
X138560500Y-40523791D01*
X138560500Y-39426209D01*
X138560500Y-39426208D01*
X138560500Y-39345955D01*
X138581132Y-39268955D01*
X138605606Y-39237060D01*
X139038062Y-38804605D01*
X139107098Y-38764747D01*
X139146956Y-38759500D01*
X139796870Y-38759500D01*
X139873870Y-38780132D01*
X139930238Y-38836500D01*
X139950870Y-38913500D01*
X139945623Y-38953356D01*
X139939958Y-38974500D01*
X139939500Y-38976209D01*
X139939500Y-40573791D01*
X139941363Y-40580745D01*
X139959253Y-40647515D01*
X139964500Y-40687367D01*
X139964500Y-40720787D01*
X139964501Y-40720800D01*
X139980187Y-40819842D01*
X139980189Y-40819847D01*
X140041021Y-40939235D01*
X140135764Y-41033978D01*
X140135766Y-41033979D01*
X140135767Y-41033980D01*
X140255156Y-41094812D01*
X140354207Y-41110500D01*
X140645792Y-41110499D01*
X140645796Y-41110498D01*
X140645800Y-41110498D01*
X140691098Y-41103323D01*
X140744844Y-41094812D01*
X140864233Y-41033980D01*
X140958980Y-40939233D01*
X141019812Y-40819844D01*
X141035500Y-40720793D01*
X141035499Y-40687366D01*
X141040746Y-40647511D01*
X141060500Y-40573791D01*
X141060500Y-39764500D01*
X141081132Y-39687500D01*
X141137500Y-39631132D01*
X141214500Y-39610500D01*
X141948795Y-39610500D01*
X141958798Y-39609183D01*
X141959166Y-39611981D01*
X142022966Y-39611971D01*
X142092009Y-39651817D01*
X142131879Y-39720847D01*
X142131892Y-39800563D01*
X142129596Y-39808317D01*
X142099308Y-39901535D01*
X142099307Y-39901541D01*
X142069500Y-40089727D01*
X142069500Y-40280272D01*
X142099307Y-40468458D01*
X142099307Y-40468459D01*
X142156033Y-40643047D01*
X142158186Y-40649671D01*
X142244688Y-40819440D01*
X142283957Y-40873489D01*
X142356682Y-40973588D01*
X142356686Y-40973593D01*
X142491406Y-41108313D01*
X142491411Y-41108317D01*
X142491412Y-41108318D01*
X142645560Y-41220312D01*
X142815329Y-41306814D01*
X142820634Y-41308537D01*
X142887489Y-41351954D01*
X142923679Y-41422982D01*
X142919507Y-41502589D01*
X142876090Y-41569445D01*
X142820634Y-41601462D01*
X142817830Y-41602373D01*
X142815328Y-41603186D01*
X142645561Y-41689687D01*
X142491411Y-41801682D01*
X142491406Y-41801686D01*
X142356686Y-41936406D01*
X142356682Y-41936411D01*
X142244687Y-42090561D01*
X142158185Y-42260330D01*
X142099307Y-42441540D01*
X142099307Y-42441541D01*
X142069500Y-42629727D01*
X142069500Y-42820272D01*
X142099307Y-43008458D01*
X142099307Y-43008459D01*
X142158185Y-43189669D01*
X142244687Y-43359438D01*
X142356682Y-43513588D01*
X142356686Y-43513593D01*
X142491406Y-43648313D01*
X142491411Y-43648317D01*
X142491412Y-43648318D01*
X142645560Y-43760312D01*
X142815329Y-43846814D01*
X142820634Y-43848537D01*
X142887489Y-43891954D01*
X142923679Y-43962982D01*
X142919507Y-44042589D01*
X142876090Y-44109445D01*
X142820634Y-44141462D01*
X142817830Y-44142373D01*
X142815328Y-44143186D01*
X142645561Y-44229687D01*
X142491411Y-44341682D01*
X142491406Y-44341686D01*
X142356686Y-44476406D01*
X142356682Y-44476411D01*
X142244687Y-44630561D01*
X142158185Y-44800330D01*
X142099307Y-44981540D01*
X142099307Y-44981541D01*
X142069500Y-45169727D01*
X142069500Y-45360272D01*
X142099307Y-45548458D01*
X142099307Y-45548459D01*
X142119850Y-45611686D01*
X142158186Y-45729671D01*
X142244688Y-45899440D01*
X142314478Y-45995499D01*
X142356682Y-46053588D01*
X142356686Y-46053593D01*
X142491406Y-46188313D01*
X142491411Y-46188317D01*
X142491412Y-46188318D01*
X142645560Y-46300312D01*
X142815329Y-46386814D01*
X142820634Y-46388537D01*
X142887489Y-46431954D01*
X142923679Y-46502982D01*
X142919507Y-46582589D01*
X142876090Y-46649445D01*
X142820634Y-46681462D01*
X142817830Y-46682373D01*
X142815328Y-46683186D01*
X142645561Y-46769687D01*
X142491411Y-46881682D01*
X142491406Y-46881686D01*
X142356686Y-47016406D01*
X142356682Y-47016411D01*
X142244687Y-47170561D01*
X142158185Y-47340330D01*
X142099307Y-47521540D01*
X142099307Y-47521541D01*
X142069500Y-47709727D01*
X142069500Y-47900274D01*
X142078454Y-47956803D01*
X142070122Y-48036082D01*
X142023266Y-48100574D01*
X141950441Y-48132998D01*
X141871162Y-48124666D01*
X141817456Y-48089788D01*
X141779157Y-48051489D01*
X141744910Y-48031717D01*
X141651345Y-47977697D01*
X141651341Y-47977696D01*
X141651339Y-47977695D01*
X141567340Y-47955187D01*
X141567340Y-47955188D01*
X141508793Y-47939500D01*
X141508792Y-47939500D01*
X141508791Y-47939500D01*
X141214500Y-47939500D01*
X141137500Y-47918868D01*
X141081132Y-47862500D01*
X141060500Y-47785500D01*
X141060500Y-47026209D01*
X141040746Y-46952484D01*
X141035499Y-46912627D01*
X141035499Y-46879210D01*
X141035498Y-46879200D01*
X141019812Y-46780157D01*
X141019810Y-46780152D01*
X140970403Y-46683186D01*
X140958980Y-46660767D01*
X140958979Y-46660766D01*
X140958978Y-46660764D01*
X140864235Y-46566021D01*
X140744842Y-46505187D01*
X140645795Y-46489500D01*
X140354211Y-46489500D01*
X140354199Y-46489501D01*
X140255157Y-46505187D01*
X140255152Y-46505189D01*
X140135764Y-46566021D01*
X140041021Y-46660764D01*
X139980187Y-46780157D01*
X139964500Y-46879200D01*
X139964500Y-46912631D01*
X139959253Y-46952488D01*
X139939500Y-47026209D01*
X139939500Y-48204044D01*
X139918868Y-48281044D01*
X139894395Y-48312938D01*
X139013940Y-49193394D01*
X138944903Y-49233253D01*
X138905045Y-49238500D01*
X138580119Y-49238500D01*
X138503119Y-49217868D01*
X138446751Y-49161500D01*
X138426119Y-49084500D01*
X138446751Y-49007500D01*
X138455529Y-48993983D01*
X138458978Y-48989235D01*
X138458980Y-48989233D01*
X138519812Y-48869844D01*
X138535500Y-48770793D01*
X138535499Y-48737366D01*
X138540746Y-48697511D01*
X138560500Y-48623791D01*
X138560500Y-47026209D01*
X138540746Y-46952484D01*
X138535499Y-46912627D01*
X138535499Y-46879210D01*
X138535498Y-46879200D01*
X138519812Y-46780157D01*
X138519810Y-46780152D01*
X138470403Y-46683186D01*
X138458980Y-46660767D01*
X138458979Y-46660766D01*
X138458978Y-46660764D01*
X138364235Y-46566021D01*
X138244842Y-46505187D01*
X138145795Y-46489500D01*
X137854211Y-46489500D01*
X137854199Y-46489501D01*
X137755157Y-46505187D01*
X137755152Y-46505189D01*
X137635764Y-46566021D01*
X137541021Y-46660764D01*
X137480187Y-46780157D01*
X137464500Y-46879200D01*
X137464500Y-46912631D01*
X137459253Y-46952488D01*
X137439500Y-47026209D01*
X137439500Y-47981124D01*
X137418868Y-48058124D01*
X137387869Y-48093472D01*
X137388748Y-48094351D01*
X134423394Y-51059705D01*
X134354358Y-51099564D01*
X134274642Y-51099564D01*
X134205606Y-51059705D01*
X134165747Y-50990669D01*
X134161012Y-50954703D01*
X134160975Y-50954706D01*
X134160918Y-50953992D01*
X134160500Y-50950811D01*
X134160500Y-50948674D01*
X134160500Y-50948667D01*
X134131924Y-50768249D01*
X134075477Y-50594523D01*
X133992548Y-50431766D01*
X133885179Y-50283985D01*
X133885176Y-50283982D01*
X133885174Y-50283979D01*
X133756020Y-50154825D01*
X133756016Y-50154822D01*
X133756015Y-50154821D01*
X133608234Y-50047452D01*
X133445477Y-49964523D01*
X133445476Y-49964522D01*
X133445475Y-49964522D01*
X133401307Y-49950171D01*
X133297558Y-49916461D01*
X133230705Y-49873047D01*
X133194514Y-49802019D01*
X133198686Y-49722412D01*
X133242102Y-49655556D01*
X133297557Y-49623538D01*
X133445477Y-49575477D01*
X133608234Y-49492548D01*
X133756015Y-49385179D01*
X133885179Y-49256015D01*
X133992548Y-49108234D01*
X134075477Y-48945477D01*
X134131924Y-48771751D01*
X134160500Y-48591333D01*
X134160500Y-48408667D01*
X134131924Y-48228249D01*
X134075477Y-48054523D01*
X133992548Y-47891766D01*
X133885179Y-47743985D01*
X133885176Y-47743982D01*
X133885174Y-47743979D01*
X133756020Y-47614825D01*
X133756016Y-47614822D01*
X133756015Y-47614821D01*
X133608234Y-47507452D01*
X133445477Y-47424523D01*
X133445476Y-47424522D01*
X133445475Y-47424522D01*
X133434517Y-47420962D01*
X133367661Y-47377545D01*
X133331470Y-47306518D01*
X133335642Y-47226911D01*
X133379059Y-47160055D01*
X133450086Y-47123864D01*
X133482102Y-47120499D01*
X133896356Y-47120499D01*
X133922320Y-47117488D01*
X134028514Y-47070599D01*
X134110599Y-46988514D01*
X134157488Y-46882320D01*
X134160500Y-46856357D01*
X134160499Y-45063644D01*
X134157488Y-45037680D01*
X134110599Y-44931486D01*
X134110596Y-44931483D01*
X134110594Y-44931480D01*
X134028519Y-44849405D01*
X134028511Y-44849399D01*
X133922320Y-44802512D01*
X133896358Y-44799500D01*
X132103651Y-44799500D01*
X132103640Y-44799501D01*
X132077677Y-44802512D01*
X131971489Y-44849399D01*
X131971480Y-44849405D01*
X131889405Y-44931480D01*
X131889399Y-44931488D01*
X131842512Y-45037679D01*
X131839500Y-45063639D01*
X131839500Y-46856348D01*
X131839501Y-46856359D01*
X131842512Y-46882322D01*
X131889399Y-46988510D01*
X131889401Y-46988514D01*
X131889403Y-46988516D01*
X131889405Y-46988519D01*
X131971480Y-47070594D01*
X131971484Y-47070597D01*
X131971486Y-47070599D01*
X132077680Y-47117488D01*
X132103643Y-47120500D01*
X132517894Y-47120499D01*
X132594892Y-47141131D01*
X132651260Y-47197499D01*
X132671892Y-47274499D01*
X132651260Y-47351499D01*
X132594892Y-47407867D01*
X132565488Y-47420959D01*
X132554529Y-47424520D01*
X132554527Y-47424520D01*
X132391767Y-47507451D01*
X132243979Y-47614825D01*
X132114825Y-47743979D01*
X132007451Y-47891767D01*
X131924522Y-48054524D01*
X131868076Y-48228248D01*
X131868076Y-48228249D01*
X131839500Y-48408667D01*
X131839500Y-48591333D01*
X131867924Y-48770793D01*
X131868076Y-48771749D01*
X131868076Y-48771751D01*
X131919018Y-48928536D01*
X131924523Y-48945477D01*
X132007452Y-49108234D01*
X132102096Y-49238500D01*
X132114825Y-49256020D01*
X132243979Y-49385174D01*
X132243982Y-49385176D01*
X132243985Y-49385179D01*
X132391766Y-49492548D01*
X132554523Y-49575477D01*
X132702439Y-49623537D01*
X132769294Y-49666954D01*
X132805485Y-49737981D01*
X132801313Y-49817588D01*
X132757896Y-49884444D01*
X132702439Y-49916461D01*
X132639674Y-49936855D01*
X132554524Y-49964522D01*
X132391767Y-50047451D01*
X132243979Y-50154825D01*
X132114825Y-50283979D01*
X132007451Y-50431767D01*
X131924522Y-50594524D01*
X131868076Y-50768248D01*
X131868076Y-50768250D01*
X131839500Y-50948666D01*
X131839500Y-51131333D01*
X131865031Y-51292526D01*
X131856698Y-51371806D01*
X131821821Y-51425511D01*
X131226333Y-52021000D01*
X130655847Y-52591486D01*
X130655845Y-52591488D01*
X130607706Y-52639627D01*
X130551488Y-52695844D01*
X130500791Y-52783655D01*
X130477698Y-52823653D01*
X130440744Y-52961569D01*
X130440741Y-52961580D01*
X130439500Y-52966210D01*
X130439500Y-54573791D01*
X130461485Y-54655844D01*
X130469484Y-54685695D01*
X130477697Y-54716345D01*
X130511587Y-54775045D01*
X130551489Y-54844156D01*
X130551491Y-54844159D01*
X130664616Y-54957284D01*
X130664629Y-54957295D01*
X133551487Y-57844154D01*
X133551488Y-57844155D01*
X133655845Y-57948512D01*
X133783655Y-58022303D01*
X133926209Y-58060500D01*
X133926211Y-58060500D01*
X146892099Y-58060500D01*
X146892101Y-58060500D01*
X147034654Y-58022303D01*
X147162464Y-57948512D01*
X147266821Y-57844155D01*
X147266821Y-57844153D01*
X147279499Y-57831476D01*
X147279501Y-57831473D01*
X148844152Y-56266822D01*
X148844155Y-56266821D01*
X148948512Y-56162464D01*
X149022303Y-56034654D01*
X149028370Y-56012011D01*
X149060500Y-55892101D01*
X149060500Y-55744518D01*
X149060500Y-49141209D01*
X149059918Y-49139036D01*
X149058702Y-49134498D01*
X149058700Y-49134493D01*
X149051664Y-49108234D01*
X149022303Y-48998655D01*
X148993353Y-48948512D01*
X148948512Y-48870845D01*
X148948511Y-48870844D01*
X148948510Y-48870842D01*
X148838788Y-48761120D01*
X148838765Y-48761099D01*
X147041432Y-46963766D01*
X147001573Y-46894730D01*
X147000657Y-46824578D01*
X146999746Y-46824434D01*
X147000585Y-46819131D01*
X147000583Y-46818911D01*
X147000686Y-46818478D01*
X147000693Y-46818459D01*
X147030500Y-46630268D01*
X147030500Y-46439732D01*
X147000693Y-46251541D01*
X146941814Y-46070329D01*
X146855312Y-45900560D01*
X146743318Y-45746412D01*
X146743317Y-45746411D01*
X146743313Y-45746406D01*
X146608593Y-45611686D01*
X146608588Y-45611682D01*
X146521568Y-45548459D01*
X146454440Y-45499688D01*
X146284671Y-45413186D01*
X146284670Y-45413185D01*
X146284669Y-45413185D01*
X146103459Y-45354307D01*
X145915272Y-45324500D01*
X145915268Y-45324500D01*
X145724732Y-45324500D01*
X145724727Y-45324500D01*
X145536541Y-45354307D01*
X145536540Y-45354307D01*
X145355330Y-45413185D01*
X145185561Y-45499687D01*
X145031411Y-45611682D01*
X145031406Y-45611686D01*
X144896686Y-45746406D01*
X144896682Y-45746411D01*
X144784687Y-45900561D01*
X144698185Y-46070330D01*
X144639307Y-46251540D01*
X144639307Y-46251541D01*
X144609500Y-46439727D01*
X144609500Y-46630272D01*
X144639307Y-46818458D01*
X144639307Y-46818459D01*
X144694562Y-46988519D01*
X144698186Y-46999671D01*
X144784688Y-47169440D01*
X144852684Y-47263029D01*
X144896682Y-47323588D01*
X144896686Y-47323593D01*
X145031406Y-47458313D01*
X145031411Y-47458317D01*
X145031412Y-47458318D01*
X145185560Y-47570312D01*
X145355329Y-47656814D01*
X145360634Y-47658537D01*
X145427489Y-47701954D01*
X145463679Y-47772982D01*
X145459507Y-47852589D01*
X145416090Y-47919445D01*
X145360634Y-47951462D01*
X145357830Y-47952373D01*
X145355328Y-47953186D01*
X145185561Y-48039687D01*
X145031411Y-48151682D01*
X145031406Y-48151686D01*
X144896686Y-48286406D01*
X144896682Y-48286411D01*
X144784687Y-48440561D01*
X144698185Y-48610330D01*
X144639307Y-48791540D01*
X144639307Y-48791541D01*
X144609500Y-48979727D01*
X144609500Y-49170272D01*
X144639307Y-49358458D01*
X144639307Y-49358459D01*
X144686519Y-49503765D01*
X144698186Y-49539671D01*
X144784688Y-49709440D01*
X144896682Y-49863588D01*
X144896686Y-49863593D01*
X145031406Y-49998313D01*
X145031411Y-49998317D01*
X145031412Y-49998318D01*
X145185560Y-50110312D01*
X145355329Y-50196814D01*
X145360634Y-50198537D01*
X145427489Y-50241954D01*
X145463679Y-50312982D01*
X145459507Y-50392589D01*
X145416090Y-50459445D01*
X145360634Y-50491462D01*
X145357830Y-50492373D01*
X145355328Y-50493186D01*
X145185561Y-50579687D01*
X145031411Y-50691682D01*
X145031406Y-50691686D01*
X144896686Y-50826406D01*
X144896682Y-50826411D01*
X144784687Y-50980561D01*
X144698185Y-51150330D01*
X144639307Y-51331540D01*
X144639307Y-51331541D01*
X144609500Y-51519727D01*
X144609500Y-51710272D01*
X144623081Y-51796015D01*
X144639307Y-51898459D01*
X144698186Y-52079671D01*
X144784688Y-52249440D01*
X144851950Y-52342019D01*
X144896682Y-52403588D01*
X144896686Y-52403593D01*
X145031410Y-52538317D01*
X145085586Y-52577677D01*
X145135753Y-52639627D01*
X145148225Y-52718362D01*
X145119657Y-52792784D01*
X145103963Y-52811160D01*
X143945732Y-53969394D01*
X143876695Y-54009253D01*
X143836837Y-54014500D01*
X141233273Y-54014500D01*
X141223780Y-54011956D01*
X141214042Y-54013295D01*
X141185765Y-54001770D01*
X141156273Y-53993868D01*
X141140221Y-53983208D01*
X141043955Y-53910208D01*
X140995068Y-53847243D01*
X140984212Y-53768269D01*
X141014299Y-53694448D01*
X141043955Y-53664792D01*
X141072415Y-53643210D01*
X141134005Y-53596505D01*
X141221914Y-53480580D01*
X141275286Y-53345236D01*
X141285500Y-53260185D01*
X141285499Y-52739816D01*
X141275286Y-52654764D01*
X141245486Y-52579195D01*
X141221916Y-52519423D01*
X141210616Y-52504522D01*
X141134005Y-52403495D01*
X141018080Y-52315586D01*
X141018079Y-52315585D01*
X141018076Y-52315583D01*
X140882743Y-52262216D01*
X140882729Y-52262212D01*
X140797686Y-52252000D01*
X140202321Y-52252000D01*
X140147885Y-52258537D01*
X140117264Y-52262214D01*
X140117262Y-52262214D01*
X140117257Y-52262216D01*
X139981921Y-52315584D01*
X139859779Y-52408208D01*
X139785959Y-52438294D01*
X139766727Y-52439500D01*
X139233273Y-52439500D01*
X139156273Y-52418868D01*
X139140221Y-52408208D01*
X139018078Y-52315584D01*
X138882743Y-52262216D01*
X138882729Y-52262212D01*
X138797686Y-52252000D01*
X138202321Y-52252000D01*
X138147885Y-52258537D01*
X138117264Y-52262214D01*
X138117262Y-52262214D01*
X138117257Y-52262216D01*
X137981922Y-52315584D01*
X137957894Y-52333804D01*
X137909229Y-52370709D01*
X137835411Y-52400794D01*
X137816179Y-52402000D01*
X137196544Y-52402000D01*
X137119544Y-52381368D01*
X137104254Y-52371283D01*
X137022175Y-52309838D01*
X137022168Y-52309835D01*
X136884633Y-52258537D01*
X136867259Y-52256669D01*
X136823830Y-52252000D01*
X136321006Y-52252000D01*
X136244006Y-52231368D01*
X136187638Y-52175000D01*
X136167006Y-52098000D01*
X136187638Y-52021000D01*
X136212112Y-51989106D01*
X136932901Y-51268318D01*
X137796613Y-50404606D01*
X137865649Y-50364747D01*
X137905507Y-50359500D01*
X139274790Y-50359500D01*
X139274792Y-50359500D01*
X139417345Y-50321303D01*
X139443005Y-50306488D01*
X139545155Y-50247512D01*
X139649512Y-50143155D01*
X139649512Y-50143153D01*
X139662190Y-50130476D01*
X139662191Y-50130473D01*
X140653633Y-49139032D01*
X140707083Y-49104255D01*
X140722304Y-49098381D01*
X140744844Y-49094812D01*
X140786310Y-49073683D01*
X140793719Y-49070825D01*
X140816125Y-49068430D01*
X140849158Y-49060500D01*
X141139046Y-49060500D01*
X141216046Y-49081132D01*
X141247940Y-49105606D01*
X142058566Y-49916232D01*
X142098425Y-49985268D01*
X142099347Y-50055421D01*
X142100253Y-50055565D01*
X142099419Y-50060830D01*
X142099422Y-50061054D01*
X142099309Y-50061524D01*
X142069500Y-50249725D01*
X142069500Y-50440272D01*
X142099307Y-50628458D01*
X142099307Y-50628459D01*
X142144727Y-50768250D01*
X142158186Y-50809671D01*
X142244688Y-50979440D01*
X142331962Y-51099564D01*
X142356682Y-51133588D01*
X142356686Y-51133593D01*
X142491406Y-51268313D01*
X142491411Y-51268317D01*
X142491412Y-51268318D01*
X142645560Y-51380312D01*
X142815329Y-51466814D01*
X142996541Y-51525693D01*
X143184732Y-51555500D01*
X143375268Y-51555500D01*
X143563459Y-51525693D01*
X143744671Y-51466814D01*
X143914440Y-51380312D01*
X144068588Y-51268318D01*
X144203318Y-51133588D01*
X144315312Y-50979440D01*
X144401814Y-50809671D01*
X144460693Y-50628459D01*
X144490500Y-50440268D01*
X144490500Y-50249732D01*
X144460693Y-50061541D01*
X144401814Y-49880329D01*
X144315312Y-49710560D01*
X144203318Y-49556412D01*
X144203317Y-49556411D01*
X144203313Y-49556406D01*
X144068593Y-49421686D01*
X144068588Y-49421682D01*
X144018345Y-49385179D01*
X143914440Y-49309688D01*
X143744671Y-49223186D01*
X143739368Y-49221463D01*
X143672513Y-49178049D01*
X143636321Y-49107022D01*
X143640491Y-49027415D01*
X143683906Y-48960558D01*
X143739368Y-48928536D01*
X143744671Y-48926814D01*
X143914440Y-48840312D01*
X144068588Y-48728318D01*
X144203318Y-48593588D01*
X144315312Y-48439440D01*
X144401814Y-48269671D01*
X144460693Y-48088459D01*
X144490500Y-47900268D01*
X144490500Y-47709732D01*
X144460693Y-47521541D01*
X144401814Y-47340329D01*
X144315312Y-47170560D01*
X144203318Y-47016412D01*
X144203317Y-47016411D01*
X144203313Y-47016406D01*
X144068593Y-46881686D01*
X144068588Y-46881682D01*
X144033735Y-46856360D01*
X143914440Y-46769688D01*
X143744671Y-46683186D01*
X143739368Y-46681463D01*
X143672513Y-46638049D01*
X143636321Y-46567022D01*
X143640491Y-46487415D01*
X143683906Y-46420558D01*
X143739368Y-46388536D01*
X143744671Y-46386814D01*
X143914440Y-46300312D01*
X144068588Y-46188318D01*
X144203318Y-46053588D01*
X144315312Y-45899440D01*
X144401814Y-45729671D01*
X144460693Y-45548459D01*
X144490500Y-45360268D01*
X144490500Y-45169732D01*
X144460693Y-44981541D01*
X144401814Y-44800329D01*
X144315312Y-44630560D01*
X144203318Y-44476412D01*
X144203317Y-44476411D01*
X144203313Y-44476406D01*
X144068593Y-44341686D01*
X144068588Y-44341682D01*
X143914440Y-44229688D01*
X143744671Y-44143186D01*
X143739368Y-44141463D01*
X143672513Y-44098049D01*
X143636321Y-44027022D01*
X143640491Y-43947415D01*
X143683906Y-43880558D01*
X143707652Y-43863867D01*
X161819500Y-43863867D01*
X161819500Y-44126132D01*
X161850418Y-44360961D01*
X161853730Y-44386116D01*
X161916459Y-44620228D01*
X161921603Y-44639423D01*
X161921603Y-44639424D01*
X162021955Y-44881693D01*
X162021960Y-44881703D01*
X162050704Y-44931489D01*
X162153076Y-45108803D01*
X162239010Y-45220793D01*
X162312721Y-45316855D01*
X162498144Y-45502278D01*
X162498148Y-45502281D01*
X162498149Y-45502282D01*
X162706197Y-45661924D01*
X162933303Y-45793043D01*
X163175581Y-45893398D01*
X163428884Y-45961270D01*
X163565666Y-45979278D01*
X163688867Y-45995499D01*
X163688880Y-45995500D01*
X163951120Y-45995500D01*
X163951132Y-45995499D01*
X164051536Y-45982279D01*
X164211116Y-45961270D01*
X164464419Y-45893398D01*
X164706697Y-45793043D01*
X164933803Y-45661924D01*
X165141851Y-45502282D01*
X165327282Y-45316851D01*
X165486924Y-45108803D01*
X165618043Y-44881697D01*
X165718398Y-44639419D01*
X165786270Y-44386116D01*
X165808864Y-44214500D01*
X165820499Y-44126132D01*
X165820500Y-44126119D01*
X165820500Y-43863880D01*
X165820499Y-43863867D01*
X165786270Y-43603886D01*
X165786270Y-43603884D01*
X165718398Y-43350581D01*
X165618043Y-43108303D01*
X165486924Y-42881197D01*
X165327282Y-42673149D01*
X165327281Y-42673148D01*
X165327278Y-42673144D01*
X165141855Y-42487721D01*
X165124614Y-42474491D01*
X164933803Y-42328076D01*
X164807903Y-42255388D01*
X164706703Y-42196960D01*
X164706693Y-42196955D01*
X164464423Y-42096603D01*
X164408994Y-42081751D01*
X164211116Y-42028730D01*
X164211109Y-42028729D01*
X163951132Y-41994500D01*
X163951120Y-41994500D01*
X163688880Y-41994500D01*
X163688867Y-41994500D01*
X163428890Y-42028729D01*
X163428888Y-42028729D01*
X163428884Y-42028730D01*
X163266412Y-42072263D01*
X163175576Y-42096603D01*
X163175575Y-42096603D01*
X162933306Y-42196955D01*
X162933296Y-42196960D01*
X162706197Y-42328076D01*
X162498144Y-42487721D01*
X162312721Y-42673144D01*
X162153076Y-42881197D01*
X162021960Y-43108296D01*
X162021955Y-43108306D01*
X161921603Y-43350575D01*
X161921603Y-43350576D01*
X161919228Y-43359440D01*
X161853730Y-43603884D01*
X161853730Y-43603886D01*
X161819500Y-43863867D01*
X143707652Y-43863867D01*
X143714168Y-43859287D01*
X143726286Y-43852787D01*
X143744671Y-43846814D01*
X143914440Y-43760312D01*
X144068588Y-43648318D01*
X144203318Y-43513588D01*
X144315312Y-43359440D01*
X144401814Y-43189671D01*
X144460693Y-43008459D01*
X144490500Y-42820268D01*
X144490500Y-42629732D01*
X144460693Y-42441541D01*
X144401814Y-42260329D01*
X144315312Y-42090560D01*
X144203318Y-41936412D01*
X144203317Y-41936411D01*
X144203313Y-41936406D01*
X144068593Y-41801686D01*
X144068588Y-41801682D01*
X143981568Y-41738459D01*
X143914440Y-41689688D01*
X143744671Y-41603186D01*
X143739368Y-41601463D01*
X143672513Y-41558049D01*
X143636321Y-41487022D01*
X143640491Y-41407415D01*
X143683906Y-41340558D01*
X143739368Y-41308536D01*
X143744671Y-41306814D01*
X143914440Y-41220312D01*
X144068588Y-41108318D01*
X144203318Y-40973588D01*
X144315312Y-40819440D01*
X144401814Y-40649671D01*
X144460693Y-40468459D01*
X144490500Y-40280268D01*
X144490500Y-40089732D01*
X144460693Y-39901541D01*
X144401814Y-39720329D01*
X144315312Y-39550560D01*
X144203318Y-39396412D01*
X144203317Y-39396411D01*
X144203313Y-39396406D01*
X144068593Y-39261686D01*
X144068588Y-39261682D01*
X143981568Y-39198459D01*
X143914440Y-39149688D01*
X143744671Y-39063186D01*
X143739368Y-39061463D01*
X143672513Y-39018049D01*
X143636321Y-38947022D01*
X143640491Y-38867415D01*
X143683906Y-38800558D01*
X143739368Y-38768536D01*
X143744671Y-38766814D01*
X143914440Y-38680312D01*
X144068588Y-38568318D01*
X144203318Y-38433588D01*
X144315312Y-38279440D01*
X144401814Y-38109671D01*
X144460693Y-37928459D01*
X144490500Y-37740268D01*
X144490500Y-37549732D01*
X144460693Y-37361541D01*
X144401814Y-37180329D01*
X144315312Y-37010560D01*
X144203318Y-36856412D01*
X144203317Y-36856411D01*
X144203313Y-36856406D01*
X144068593Y-36721686D01*
X144068588Y-36721682D01*
X144040925Y-36701584D01*
X143914440Y-36609688D01*
X143744671Y-36523186D01*
X143744670Y-36523185D01*
X143744669Y-36523185D01*
X143563459Y-36464307D01*
X143375272Y-36434500D01*
X143375268Y-36434500D01*
X143184732Y-36434500D01*
X143184727Y-36434500D01*
X142996541Y-36464307D01*
X142996540Y-36464307D01*
X142815330Y-36523185D01*
X142645561Y-36609687D01*
X142491411Y-36721682D01*
X142491406Y-36721686D01*
X142352403Y-36860690D01*
X142351346Y-36859633D01*
X142291904Y-36900486D01*
X142212434Y-36906740D01*
X142140484Y-36872420D01*
X142095333Y-36806723D01*
X142086500Y-36755319D01*
X142086500Y-34164710D01*
X142086500Y-34164709D01*
X142048303Y-34022155D01*
X142037820Y-34003999D01*
X142017189Y-33927000D01*
X142037821Y-33850000D01*
X142094189Y-33793632D01*
X142171189Y-33773000D01*
X144416546Y-33773000D01*
X144493546Y-33793632D01*
X144525440Y-33818106D01*
X145214394Y-34507060D01*
X145254253Y-34576096D01*
X145259500Y-34615954D01*
X145259500Y-35208133D01*
X145238868Y-35285133D01*
X145189913Y-35335388D01*
X145190454Y-35336132D01*
X145186127Y-35339275D01*
X145185971Y-35339436D01*
X145185558Y-35339689D01*
X145031411Y-35451682D01*
X145031406Y-35451686D01*
X144896686Y-35586406D01*
X144896682Y-35586411D01*
X144784687Y-35740561D01*
X144698185Y-35910330D01*
X144639307Y-36091540D01*
X144639307Y-36091541D01*
X144609500Y-36279727D01*
X144609500Y-36279732D01*
X144609500Y-36470268D01*
X144638550Y-36653676D01*
X144639307Y-36658458D01*
X144639307Y-36658459D01*
X144692227Y-36821333D01*
X144698186Y-36839671D01*
X144784688Y-37009440D01*
X144820544Y-37058792D01*
X144896682Y-37163588D01*
X144896686Y-37163593D01*
X145031406Y-37298313D01*
X145031411Y-37298317D01*
X145031412Y-37298318D01*
X145185560Y-37410312D01*
X145355329Y-37496814D01*
X145360634Y-37498537D01*
X145427489Y-37541954D01*
X145463679Y-37612982D01*
X145459507Y-37692589D01*
X145416090Y-37759445D01*
X145360634Y-37791462D01*
X145357830Y-37792373D01*
X145355328Y-37793186D01*
X145185561Y-37879687D01*
X145031411Y-37991682D01*
X145031406Y-37991686D01*
X144896686Y-38126406D01*
X144896682Y-38126411D01*
X144784687Y-38280561D01*
X144698185Y-38450330D01*
X144639307Y-38631540D01*
X144639307Y-38631541D01*
X144609500Y-38819727D01*
X144609500Y-39010272D01*
X144639307Y-39198458D01*
X144639307Y-39198459D01*
X144692227Y-39361333D01*
X144698186Y-39379671D01*
X144784688Y-39549440D01*
X144896682Y-39703588D01*
X144896686Y-39703593D01*
X145031406Y-39838313D01*
X145031411Y-39838317D01*
X145031412Y-39838318D01*
X145185560Y-39950312D01*
X145355329Y-40036814D01*
X145360634Y-40038537D01*
X145427489Y-40081954D01*
X145463679Y-40152982D01*
X145459507Y-40232589D01*
X145416090Y-40299445D01*
X145360634Y-40331462D01*
X145357830Y-40332373D01*
X145355328Y-40333186D01*
X145185561Y-40419687D01*
X145031411Y-40531682D01*
X145031406Y-40531686D01*
X144896686Y-40666406D01*
X144896682Y-40666411D01*
X144784687Y-40820561D01*
X144698185Y-40990330D01*
X144639307Y-41171540D01*
X144639307Y-41171541D01*
X144609500Y-41359727D01*
X144609500Y-41550272D01*
X144639307Y-41738458D01*
X144639307Y-41738459D01*
X144692227Y-41901333D01*
X144698186Y-41919671D01*
X144784688Y-42089440D01*
X144862803Y-42196957D01*
X144896682Y-42243588D01*
X144896686Y-42243593D01*
X145031406Y-42378313D01*
X145031411Y-42378317D01*
X145031412Y-42378318D01*
X145185560Y-42490312D01*
X145355329Y-42576814D01*
X145536541Y-42635693D01*
X145724732Y-42665500D01*
X145915268Y-42665500D01*
X146103459Y-42635693D01*
X146284671Y-42576814D01*
X146454440Y-42490312D01*
X146608588Y-42378318D01*
X146743318Y-42243588D01*
X146855312Y-42089440D01*
X146941814Y-41919671D01*
X147000693Y-41738459D01*
X147030500Y-41550268D01*
X147030500Y-41359732D01*
X147000693Y-41171541D01*
X146941814Y-40990329D01*
X146855312Y-40820560D01*
X146743318Y-40666412D01*
X146743317Y-40666411D01*
X146743313Y-40666406D01*
X146608593Y-40531686D01*
X146608588Y-40531682D01*
X146575966Y-40507981D01*
X146454440Y-40419688D01*
X146284671Y-40333186D01*
X146279368Y-40331463D01*
X146212513Y-40288049D01*
X146176321Y-40217022D01*
X146180491Y-40137415D01*
X146223906Y-40070558D01*
X146279368Y-40038536D01*
X146284671Y-40036814D01*
X146454440Y-39950312D01*
X146608588Y-39838318D01*
X146743318Y-39703588D01*
X146855312Y-39549440D01*
X146941814Y-39379671D01*
X147000693Y-39198459D01*
X147030500Y-39010268D01*
X147030500Y-38819732D01*
X147000693Y-38631541D01*
X147000688Y-38631526D01*
X147000581Y-38631076D01*
X147000586Y-38630871D01*
X146999746Y-38625566D01*
X147000729Y-38625410D01*
X147002668Y-38551387D01*
X147041430Y-38486234D01*
X148094152Y-37433513D01*
X148094155Y-37433512D01*
X148198512Y-37329155D01*
X148272303Y-37201345D01*
X148286345Y-37148941D01*
X148295457Y-37114936D01*
X148310500Y-37058791D01*
X148310500Y-34176209D01*
X148307418Y-34164708D01*
X148272303Y-34033655D01*
X148237662Y-33973655D01*
X148198512Y-33905845D01*
X148198511Y-33905844D01*
X148198510Y-33905842D01*
X148088788Y-33796120D01*
X148088765Y-33796099D01*
X144813546Y-30520880D01*
X144813534Y-30520866D01*
X144700409Y-30407741D01*
X144700406Y-30407739D01*
X144700405Y-30407738D01*
X144572595Y-30333947D01*
X144458040Y-30303252D01*
X144389005Y-30263394D01*
X144349147Y-30194358D01*
X144349147Y-30114642D01*
X144389006Y-30045605D01*
X144458042Y-30005747D01*
X144497900Y-30000500D01*
X166845500Y-30000500D01*
X166922500Y-30021132D01*
X166978868Y-30077500D01*
X166999500Y-30154500D01*
X166999500Y-58845500D01*
X166978868Y-58922500D01*
X166922500Y-58978868D01*
X166845500Y-58999500D01*
X120654500Y-58999500D01*
X120577500Y-58978868D01*
X120521132Y-58922500D01*
X120500500Y-58845500D01*
X120500500Y-43868867D01*
X121999500Y-43868867D01*
X121999500Y-44131132D01*
X122027222Y-44341686D01*
X122033730Y-44391116D01*
X122056585Y-44476411D01*
X122101603Y-44644423D01*
X122101603Y-44644424D01*
X122201955Y-44886693D01*
X122201960Y-44886703D01*
X122256714Y-44981540D01*
X122333076Y-45113803D01*
X122474159Y-45297664D01*
X122492721Y-45321855D01*
X122678144Y-45507278D01*
X122678148Y-45507281D01*
X122678149Y-45507282D01*
X122886197Y-45666924D01*
X123113303Y-45798043D01*
X123355581Y-45898398D01*
X123608884Y-45966270D01*
X123745666Y-45984278D01*
X123868867Y-46000499D01*
X123868880Y-46000500D01*
X124131120Y-46000500D01*
X124131132Y-46000499D01*
X124231536Y-45987279D01*
X124391116Y-45966270D01*
X124644419Y-45898398D01*
X124886697Y-45798043D01*
X125113803Y-45666924D01*
X125321851Y-45507282D01*
X125507282Y-45321851D01*
X125666924Y-45113803D01*
X125798043Y-44886697D01*
X125898398Y-44644419D01*
X125966270Y-44391116D01*
X125989523Y-44214500D01*
X126000499Y-44131132D01*
X126000500Y-44131119D01*
X126000500Y-43868879D01*
X126000499Y-43868867D01*
X125976562Y-43687060D01*
X125966270Y-43608884D01*
X125898398Y-43355581D01*
X125896324Y-43350575D01*
X125819303Y-43164630D01*
X125798043Y-43113303D01*
X125666924Y-42886197D01*
X125507282Y-42678149D01*
X125507281Y-42678148D01*
X125507278Y-42678144D01*
X125321855Y-42492721D01*
X125224782Y-42418234D01*
X125113803Y-42333076D01*
X124958813Y-42243593D01*
X124886703Y-42201960D01*
X124886693Y-42201955D01*
X124644423Y-42101603D01*
X124603209Y-42090560D01*
X124391116Y-42033730D01*
X124391109Y-42033729D01*
X124131132Y-41999500D01*
X124131120Y-41999500D01*
X123868880Y-41999500D01*
X123868867Y-41999500D01*
X123608890Y-42033729D01*
X123608888Y-42033729D01*
X123608884Y-42033730D01*
X123446412Y-42077263D01*
X123355576Y-42101603D01*
X123355575Y-42101603D01*
X123113306Y-42201955D01*
X123113296Y-42201960D01*
X122886197Y-42333076D01*
X122678144Y-42492721D01*
X122492721Y-42678144D01*
X122333076Y-42886197D01*
X122201960Y-43113296D01*
X122201955Y-43113306D01*
X122101603Y-43355575D01*
X122101603Y-43355576D01*
X122100568Y-43359440D01*
X122033730Y-43608884D01*
X122033729Y-43608888D01*
X122033729Y-43608890D01*
X121999500Y-43868867D01*
X120500500Y-43868867D01*
X120500500Y-31208066D01*
X122464500Y-31208066D01*
X122464500Y-31791920D01*
X122464501Y-31791926D01*
X122474834Y-31877979D01*
X122474835Y-31877981D01*
X122528835Y-32014919D01*
X122528836Y-32014921D01*
X122528837Y-32014922D01*
X122577819Y-32079514D01*
X122617788Y-32132221D01*
X122619394Y-32133827D01*
X122620631Y-32135970D01*
X122624149Y-32140609D01*
X122623565Y-32141051D01*
X122659253Y-32202863D01*
X122664500Y-32242721D01*
X122664500Y-32298791D01*
X122702697Y-32441345D01*
X122721963Y-32474714D01*
X122776489Y-32569157D01*
X122889616Y-32682284D01*
X122889630Y-32682296D01*
X123394394Y-33187060D01*
X123404530Y-33204616D01*
X123418868Y-33218954D01*
X123424115Y-33238537D01*
X123434253Y-33256096D01*
X123439500Y-33295954D01*
X123439500Y-33314304D01*
X123418868Y-33391304D01*
X123376019Y-33438893D01*
X123243979Y-33534825D01*
X123114825Y-33663979D01*
X123007451Y-33811767D01*
X122924522Y-33974524D01*
X122869362Y-34144290D01*
X122868076Y-34148249D01*
X122839500Y-34328667D01*
X122839500Y-34511333D01*
X122865049Y-34672642D01*
X122868076Y-34691749D01*
X122868076Y-34691751D01*
X122910199Y-34821394D01*
X122924523Y-34865477D01*
X123007452Y-35028234D01*
X123084754Y-35134631D01*
X123114825Y-35176020D01*
X123243979Y-35305174D01*
X123243982Y-35305176D01*
X123243985Y-35305179D01*
X123391766Y-35412548D01*
X123554523Y-35495477D01*
X123728249Y-35551924D01*
X123908667Y-35580500D01*
X123908674Y-35580500D01*
X124091326Y-35580500D01*
X124091333Y-35580500D01*
X124271751Y-35551924D01*
X124445477Y-35495477D01*
X124608234Y-35412548D01*
X124756015Y-35305179D01*
X124885179Y-35176015D01*
X124981107Y-35043980D01*
X125043059Y-34993814D01*
X125105696Y-34980500D01*
X126089444Y-34980500D01*
X126166444Y-35001132D01*
X126222812Y-35057500D01*
X126232707Y-35078006D01*
X126278083Y-35193076D01*
X126278085Y-35193079D01*
X126278086Y-35193080D01*
X126365995Y-35309005D01*
X126456045Y-35377292D01*
X126504932Y-35440258D01*
X126515786Y-35519232D01*
X126485700Y-35593053D01*
X126456046Y-35622706D01*
X126368698Y-35688945D01*
X126365995Y-35690995D01*
X126278083Y-35806923D01*
X126224716Y-35942256D01*
X126224712Y-35942270D01*
X126214500Y-36027308D01*
X126214500Y-36547678D01*
X126214501Y-36547684D01*
X126224404Y-36630158D01*
X126224714Y-36632734D01*
X126224716Y-36632742D01*
X126278083Y-36768076D01*
X126278085Y-36768079D01*
X126278086Y-36768080D01*
X126365995Y-36884005D01*
X126378550Y-36893526D01*
X126397274Y-36917640D01*
X126418868Y-36939234D01*
X126421411Y-36948726D01*
X126427438Y-36956488D01*
X126439500Y-37016234D01*
X126439500Y-37148941D01*
X126418868Y-37225941D01*
X126377793Y-37272221D01*
X126360309Y-37285309D01*
X126272340Y-37402821D01*
X126272335Y-37402831D01*
X126221037Y-37540365D01*
X126221037Y-37540368D01*
X126220559Y-37544811D01*
X126214500Y-37601170D01*
X126214500Y-38098830D01*
X126218720Y-38138076D01*
X126221037Y-38159631D01*
X126221037Y-38159634D01*
X126266141Y-38280561D01*
X126272337Y-38297173D01*
X126360310Y-38414690D01*
X126477827Y-38502663D01*
X126588587Y-38543974D01*
X126611757Y-38552616D01*
X126615369Y-38553963D01*
X126676170Y-38560500D01*
X126676178Y-38560500D01*
X127323822Y-38560500D01*
X127323830Y-38560500D01*
X127384631Y-38553963D01*
X127388243Y-38552616D01*
X127401260Y-38547760D01*
X127522173Y-38502663D01*
X127639690Y-38414690D01*
X127727663Y-38297173D01*
X127778963Y-38159631D01*
X127785500Y-38098830D01*
X127785500Y-37601170D01*
X127778963Y-37540369D01*
X127727663Y-37402827D01*
X127727659Y-37402821D01*
X127639690Y-37285309D01*
X127622207Y-37272221D01*
X127603048Y-37247857D01*
X127581132Y-37225941D01*
X127578711Y-37216909D01*
X127572932Y-37209559D01*
X127560500Y-37148941D01*
X127560500Y-37016234D01*
X127581132Y-36939234D01*
X127621448Y-36893526D01*
X127634005Y-36884005D01*
X127721914Y-36768080D01*
X127726947Y-36755319D01*
X127765143Y-36658458D01*
X127775286Y-36632736D01*
X127785500Y-36547685D01*
X127785499Y-36027316D01*
X127775286Y-35942264D01*
X127736862Y-35844825D01*
X127721916Y-35806923D01*
X127721914Y-35806920D01*
X127634005Y-35690995D01*
X127634003Y-35690994D01*
X127634003Y-35690993D01*
X127543955Y-35622708D01*
X127495067Y-35559742D01*
X127484213Y-35480769D01*
X127514299Y-35406948D01*
X127543955Y-35377292D01*
X127634005Y-35309005D01*
X127721914Y-35193080D01*
X127728642Y-35176020D01*
X127763999Y-35086359D01*
X127775286Y-35057736D01*
X127775315Y-35057500D01*
X127782084Y-35001132D01*
X127785500Y-34972685D01*
X127785499Y-34452316D01*
X127775286Y-34367264D01*
X127760065Y-34328666D01*
X127721916Y-34231923D01*
X127690879Y-34190995D01*
X127634005Y-34115995D01*
X127518080Y-34028086D01*
X127518079Y-34028085D01*
X127518076Y-34028083D01*
X127382743Y-33974716D01*
X127382729Y-33974712D01*
X127297691Y-33964500D01*
X127297685Y-33964500D01*
X127080816Y-33964500D01*
X127003817Y-33943868D01*
X126923850Y-33897699D01*
X126923845Y-33897697D01*
X126923843Y-33897696D01*
X126923839Y-33897695D01*
X126878325Y-33885499D01*
X126878325Y-33885500D01*
X126781292Y-33859500D01*
X126781291Y-33859500D01*
X126781290Y-33859500D01*
X125105696Y-33859500D01*
X125028696Y-33838868D01*
X124981107Y-33796019D01*
X124964383Y-33773000D01*
X124885179Y-33663985D01*
X124885176Y-33663982D01*
X124885174Y-33663979D01*
X124756020Y-33534825D01*
X124756021Y-33534825D01*
X124623981Y-33438893D01*
X124603803Y-33413975D01*
X124581132Y-33391304D01*
X124578999Y-33383344D01*
X124573814Y-33376941D01*
X124560500Y-33314304D01*
X124560500Y-33086212D01*
X124560501Y-33086199D01*
X124560501Y-32926212D01*
X124560501Y-32926209D01*
X124522303Y-32783655D01*
X124448512Y-32655845D01*
X123960464Y-32167798D01*
X123920606Y-32098762D01*
X123920606Y-32019046D01*
X123926090Y-32002426D01*
X123975166Y-31877979D01*
X123985500Y-31791927D01*
X123985499Y-31208074D01*
X123975166Y-31122021D01*
X123921163Y-30985078D01*
X123832216Y-30867784D01*
X123714922Y-30778837D01*
X123714921Y-30778836D01*
X123714919Y-30778835D01*
X123577983Y-30724835D01*
X123577972Y-30724832D01*
X123491928Y-30714500D01*
X122958079Y-30714500D01*
X122924990Y-30718473D01*
X122872021Y-30724834D01*
X122872018Y-30724834D01*
X122872018Y-30724835D01*
X122735080Y-30778835D01*
X122617784Y-30867784D01*
X122528835Y-30985080D01*
X122474835Y-31122016D01*
X122474832Y-31122027D01*
X122464500Y-31208066D01*
X120500500Y-31208066D01*
X120500500Y-30154500D01*
X120521132Y-30077500D01*
X120577500Y-30021132D01*
X120654500Y-30000500D01*
X132714600Y-30000500D01*
X132791600Y-30021132D01*
G37*
%TD.AperFunction*%
%TD*%
M02*
