%TF.GenerationSoftware,KiCad,Pcbnew,9.0.1*%
%TF.CreationDate,2025-04-11T16:24:36+02:00*%
%TF.ProjectId,Alimentation_DC_DC,416c696d-656e-4746-9174-696f6e5f4443,rev?*%
%TF.SameCoordinates,Original*%
%TF.FileFunction,Copper,L2,Bot*%
%TF.FilePolarity,Positive*%
%FSLAX46Y46*%
G04 Gerber Fmt 4.6, Leading zero omitted, Abs format (unit mm)*
G04 Created by KiCad (PCBNEW 9.0.1) date 2025-04-11 16:24:36*
%MOMM*%
%LPD*%
G01*
G04 APERTURE LIST*
G04 Aperture macros list*
%AMRoundRect*
0 Rectangle with rounded corners*
0 $1 Rounding radius*
0 $2 $3 $4 $5 $6 $7 $8 $9 X,Y pos of 4 corners*
0 Add a 4 corners polygon primitive as box body*
4,1,4,$2,$3,$4,$5,$6,$7,$8,$9,$2,$3,0*
0 Add four circle primitives for the rounded corners*
1,1,$1+$1,$2,$3*
1,1,$1+$1,$4,$5*
1,1,$1+$1,$6,$7*
1,1,$1+$1,$8,$9*
0 Add four rect primitives between the rounded corners*
20,1,$1+$1,$2,$3,$4,$5,0*
20,1,$1+$1,$4,$5,$6,$7,0*
20,1,$1+$1,$6,$7,$8,$9,0*
20,1,$1+$1,$8,$9,$2,$3,0*%
G04 Aperture macros list end*
%TA.AperFunction,ComponentPad*%
%ADD10R,1.700000X1.700000*%
%TD*%
%TA.AperFunction,ComponentPad*%
%ADD11C,1.700000*%
%TD*%
%TA.AperFunction,ComponentPad*%
%ADD12RoundRect,1.500000X1.500000X-1.500000X1.500000X1.500000X-1.500000X1.500000X-1.500000X-1.500000X0*%
%TD*%
%TA.AperFunction,ComponentPad*%
%ADD13C,6.000000*%
%TD*%
G04 APERTURE END LIST*
D10*
%TO.P,J8,1,Pin_1*%
%TO.N,Net-(J1-Pin_1)*%
X133750000Y-66975000D03*
D11*
%TO.P,J8,2,Pin_2*%
%TO.N,GND*%
X133750000Y-69515000D03*
%TD*%
D10*
%TO.P,J7,1,Pin_1*%
%TO.N,Net-(J2-Pin_1)*%
X182340000Y-66960000D03*
D11*
%TO.P,J7,2,Pin_2*%
%TO.N,GND*%
X182340000Y-69500000D03*
%TO.P,J7,3,Pin_3*%
%TO.N,Net-(J2-Pin_1)*%
X182340000Y-72040000D03*
%TD*%
D10*
%TO.P,J6,1,Pin_1*%
%TO.N,Net-(J2-Pin_1)*%
X177750000Y-66960000D03*
D11*
%TO.P,J6,2,Pin_2*%
%TO.N,GND*%
X177750000Y-69500000D03*
%TO.P,J6,3,Pin_3*%
%TO.N,Net-(J2-Pin_1)*%
X177750000Y-72040000D03*
%TD*%
D10*
%TO.P,J5,1,Pin_1*%
%TO.N,Net-(J2-Pin_1)*%
X173160000Y-66960000D03*
D11*
%TO.P,J5,2,Pin_2*%
%TO.N,GND*%
X173160000Y-69500000D03*
%TO.P,J5,3,Pin_3*%
%TO.N,Net-(J2-Pin_1)*%
X173160000Y-72040000D03*
%TD*%
D10*
%TO.P,J4,1,Pin_1*%
%TO.N,Net-(J2-Pin_1)*%
X168570000Y-66960000D03*
D11*
%TO.P,J4,2,Pin_2*%
%TO.N,GND*%
X168570000Y-69500000D03*
%TO.P,J4,3,Pin_3*%
%TO.N,Net-(J2-Pin_1)*%
X168570000Y-72040000D03*
%TD*%
D10*
%TO.P,J3,1,Pin_1*%
%TO.N,Net-(J2-Pin_1)*%
X163980000Y-66960000D03*
D11*
%TO.P,J3,2,Pin_2*%
%TO.N,GND*%
X163980000Y-69500000D03*
%TO.P,J3,3,Pin_3*%
%TO.N,Net-(J2-Pin_1)*%
X163980000Y-72040000D03*
%TD*%
D10*
%TO.P,J2,1,Pin_1*%
%TO.N,Net-(J2-Pin_1)*%
X159390000Y-66960000D03*
D11*
%TO.P,J2,2,Pin_2*%
%TO.N,GND*%
X159390000Y-69500000D03*
%TO.P,J2,3,Pin_3*%
%TO.N,Net-(J2-Pin_1)*%
X159390000Y-72040000D03*
%TD*%
D12*
%TO.P,J1,1,Pin_1*%
%TO.N,Net-(J1-Pin_1)*%
X137500000Y-84850000D03*
D13*
%TO.P,J1,2,Pin_2*%
%TO.N,GND*%
X137500000Y-77650000D03*
%TD*%
%TA.AperFunction,Conductor*%
%TO.N,GND*%
G36*
X186386843Y-63020207D02*
G01*
X186456084Y-63075426D01*
X186494511Y-63155218D01*
X186499500Y-63199500D01*
X186499500Y-89550500D01*
X186479793Y-89636843D01*
X186424574Y-89706084D01*
X186344782Y-89744511D01*
X186300500Y-89749500D01*
X131449500Y-89749500D01*
X131363157Y-89729793D01*
X131293916Y-89674574D01*
X131255489Y-89594782D01*
X131250500Y-89550500D01*
X131250500Y-77453486D01*
X133500000Y-77453486D01*
X133500000Y-77846513D01*
X133538522Y-78237631D01*
X133615194Y-78623083D01*
X133615198Y-78623099D01*
X133729282Y-78999185D01*
X133729287Y-78999198D01*
X133817212Y-79211467D01*
X135250000Y-77778679D01*
X135250000Y-77797473D01*
X135288498Y-78089895D01*
X135364835Y-78374791D01*
X135477706Y-78647285D01*
X135625179Y-78902715D01*
X135804731Y-79136711D01*
X136013289Y-79345269D01*
X136247285Y-79524821D01*
X136502715Y-79672294D01*
X136775209Y-79785165D01*
X137060105Y-79861502D01*
X137352527Y-79900000D01*
X137371320Y-79900000D01*
X135973783Y-81297534D01*
X135898794Y-81344653D01*
X135847266Y-81355313D01*
X135714572Y-81364803D01*
X135434951Y-81425631D01*
X135166838Y-81525633D01*
X134915688Y-81662771D01*
X134686596Y-81834268D01*
X134484268Y-82036596D01*
X134312771Y-82265688D01*
X134175633Y-82516838D01*
X134075631Y-82784951D01*
X134014803Y-83064572D01*
X133999500Y-83278551D01*
X133999500Y-86421448D01*
X134014803Y-86635427D01*
X134075631Y-86915048D01*
X134175633Y-87183161D01*
X134312771Y-87434311D01*
X134312774Y-87434315D01*
X134484261Y-87663395D01*
X134484265Y-87663399D01*
X134484268Y-87663403D01*
X134686596Y-87865731D01*
X134686599Y-87865733D01*
X134686605Y-87865739D01*
X134915685Y-88037226D01*
X134915688Y-88037228D01*
X135027088Y-88098057D01*
X135166839Y-88174367D01*
X135434954Y-88274369D01*
X135714572Y-88335196D01*
X135928552Y-88350500D01*
X135928564Y-88350500D01*
X139071436Y-88350500D01*
X139071448Y-88350500D01*
X139285428Y-88335196D01*
X139565046Y-88274369D01*
X139833161Y-88174367D01*
X140084315Y-88037226D01*
X140313395Y-87865739D01*
X140515739Y-87663395D01*
X140687226Y-87434315D01*
X140824367Y-87183161D01*
X140924369Y-86915046D01*
X140985196Y-86635428D01*
X141000500Y-86421448D01*
X141000500Y-83278552D01*
X140985196Y-83064572D01*
X140924369Y-82784954D01*
X140824367Y-82516839D01*
X140687226Y-82265685D01*
X140515739Y-82036605D01*
X140515733Y-82036599D01*
X140515731Y-82036596D01*
X140313403Y-81834268D01*
X140313399Y-81834265D01*
X140313395Y-81834261D01*
X140084315Y-81662774D01*
X140084311Y-81662771D01*
X139833161Y-81525633D01*
X139565048Y-81425631D01*
X139285427Y-81364803D01*
X139152731Y-81355313D01*
X139068014Y-81329496D01*
X139026214Y-81297534D01*
X137628681Y-79900000D01*
X137647473Y-79900000D01*
X137939895Y-79861502D01*
X138224791Y-79785165D01*
X138497285Y-79672294D01*
X138752715Y-79524821D01*
X138986711Y-79345269D01*
X139195269Y-79136711D01*
X139374821Y-78902715D01*
X139522294Y-78647285D01*
X139635165Y-78374791D01*
X139711502Y-78089895D01*
X139750000Y-77797473D01*
X139750000Y-77778680D01*
X141182786Y-79211466D01*
X141270720Y-78999178D01*
X141270723Y-78999169D01*
X141384800Y-78623105D01*
X141384805Y-78623083D01*
X141461477Y-78237631D01*
X141499999Y-77846513D01*
X141500000Y-77846505D01*
X141500000Y-77453494D01*
X141499999Y-77453486D01*
X141461477Y-77062368D01*
X141384805Y-76676916D01*
X141384801Y-76676900D01*
X141270718Y-76300816D01*
X141182787Y-76088531D01*
X139750000Y-77521318D01*
X139750000Y-77502527D01*
X139711502Y-77210105D01*
X139635165Y-76925209D01*
X139522294Y-76652715D01*
X139374821Y-76397285D01*
X139195269Y-76163289D01*
X138986711Y-75954731D01*
X138752715Y-75775179D01*
X138497285Y-75627706D01*
X138224791Y-75514835D01*
X137939895Y-75438498D01*
X137647473Y-75400000D01*
X137628681Y-75400000D01*
X139061467Y-73967212D01*
X139061467Y-73967211D01*
X138849198Y-73879287D01*
X138849185Y-73879282D01*
X138473099Y-73765198D01*
X138473083Y-73765194D01*
X138087631Y-73688522D01*
X137696513Y-73650000D01*
X137303486Y-73650000D01*
X136912368Y-73688522D01*
X136526916Y-73765194D01*
X136526900Y-73765198D01*
X136150811Y-73879283D01*
X135938531Y-73967212D01*
X137371320Y-75400000D01*
X137352527Y-75400000D01*
X137060105Y-75438498D01*
X136775209Y-75514835D01*
X136502715Y-75627706D01*
X136247285Y-75775179D01*
X136013289Y-75954731D01*
X135804731Y-76163289D01*
X135625179Y-76397285D01*
X135477706Y-76652715D01*
X135364835Y-76925209D01*
X135288498Y-77210105D01*
X135250000Y-77502527D01*
X135250000Y-77521319D01*
X133817212Y-76088531D01*
X133729283Y-76300811D01*
X133615198Y-76676900D01*
X133615194Y-76676916D01*
X133538522Y-77062368D01*
X133500000Y-77453486D01*
X131250500Y-77453486D01*
X131250500Y-71933713D01*
X158039500Y-71933713D01*
X158039500Y-72146286D01*
X158072752Y-72356234D01*
X158072756Y-72356251D01*
X158138441Y-72558407D01*
X158138445Y-72558418D01*
X158231590Y-72741223D01*
X158234949Y-72747816D01*
X158300523Y-72838071D01*
X158359893Y-72919789D01*
X158510210Y-73070106D01*
X158564688Y-73109685D01*
X158682184Y-73195051D01*
X158773589Y-73241624D01*
X158871581Y-73291554D01*
X158871584Y-73291555D01*
X158871588Y-73291557D01*
X159073757Y-73357246D01*
X159283713Y-73390500D01*
X159496287Y-73390500D01*
X159706243Y-73357246D01*
X159908412Y-73291557D01*
X160097816Y-73195051D01*
X160269792Y-73070104D01*
X160420104Y-72919792D01*
X160545051Y-72747816D01*
X160641557Y-72558412D01*
X160707246Y-72356243D01*
X160740500Y-72146287D01*
X160740500Y-71933713D01*
X162629500Y-71933713D01*
X162629500Y-72146286D01*
X162662752Y-72356234D01*
X162662756Y-72356251D01*
X162728441Y-72558407D01*
X162728445Y-72558418D01*
X162821590Y-72741223D01*
X162824949Y-72747816D01*
X162890523Y-72838071D01*
X162949893Y-72919789D01*
X163100210Y-73070106D01*
X163154688Y-73109685D01*
X163272184Y-73195051D01*
X163363589Y-73241624D01*
X163461581Y-73291554D01*
X163461584Y-73291555D01*
X163461588Y-73291557D01*
X163663757Y-73357246D01*
X163873713Y-73390500D01*
X164086287Y-73390500D01*
X164296243Y-73357246D01*
X164498412Y-73291557D01*
X164687816Y-73195051D01*
X164859792Y-73070104D01*
X165010104Y-72919792D01*
X165135051Y-72747816D01*
X165231557Y-72558412D01*
X165297246Y-72356243D01*
X165330500Y-72146287D01*
X165330500Y-71933713D01*
X167219500Y-71933713D01*
X167219500Y-72146286D01*
X167252752Y-72356234D01*
X167252756Y-72356251D01*
X167318441Y-72558407D01*
X167318445Y-72558418D01*
X167411590Y-72741223D01*
X167414949Y-72747816D01*
X167480523Y-72838071D01*
X167539893Y-72919789D01*
X167690210Y-73070106D01*
X167744688Y-73109685D01*
X167862184Y-73195051D01*
X167953589Y-73241624D01*
X168051581Y-73291554D01*
X168051584Y-73291555D01*
X168051588Y-73291557D01*
X168253757Y-73357246D01*
X168463713Y-73390500D01*
X168676287Y-73390500D01*
X168886243Y-73357246D01*
X169088412Y-73291557D01*
X169277816Y-73195051D01*
X169449792Y-73070104D01*
X169600104Y-72919792D01*
X169725051Y-72747816D01*
X169821557Y-72558412D01*
X169887246Y-72356243D01*
X169920500Y-72146287D01*
X169920500Y-71933713D01*
X171809500Y-71933713D01*
X171809500Y-72146286D01*
X171842752Y-72356234D01*
X171842756Y-72356251D01*
X171908441Y-72558407D01*
X171908445Y-72558418D01*
X172001590Y-72741223D01*
X172004949Y-72747816D01*
X172070523Y-72838071D01*
X172129893Y-72919789D01*
X172280210Y-73070106D01*
X172334688Y-73109685D01*
X172452184Y-73195051D01*
X172543589Y-73241624D01*
X172641581Y-73291554D01*
X172641584Y-73291555D01*
X172641588Y-73291557D01*
X172843757Y-73357246D01*
X173053713Y-73390500D01*
X173266287Y-73390500D01*
X173476243Y-73357246D01*
X173678412Y-73291557D01*
X173867816Y-73195051D01*
X174039792Y-73070104D01*
X174190104Y-72919792D01*
X174315051Y-72747816D01*
X174411557Y-72558412D01*
X174477246Y-72356243D01*
X174510500Y-72146287D01*
X174510500Y-71933713D01*
X176399500Y-71933713D01*
X176399500Y-72146286D01*
X176432752Y-72356234D01*
X176432756Y-72356251D01*
X176498441Y-72558407D01*
X176498445Y-72558418D01*
X176591590Y-72741223D01*
X176594949Y-72747816D01*
X176660523Y-72838071D01*
X176719893Y-72919789D01*
X176870210Y-73070106D01*
X176924688Y-73109685D01*
X177042184Y-73195051D01*
X177133589Y-73241624D01*
X177231581Y-73291554D01*
X177231584Y-73291555D01*
X177231588Y-73291557D01*
X177433757Y-73357246D01*
X177643713Y-73390500D01*
X177856287Y-73390500D01*
X178066243Y-73357246D01*
X178268412Y-73291557D01*
X178457816Y-73195051D01*
X178629792Y-73070104D01*
X178780104Y-72919792D01*
X178905051Y-72747816D01*
X179001557Y-72558412D01*
X179067246Y-72356243D01*
X179100500Y-72146287D01*
X179100500Y-71933713D01*
X180989500Y-71933713D01*
X180989500Y-72146286D01*
X181022752Y-72356234D01*
X181022756Y-72356251D01*
X181088441Y-72558407D01*
X181088445Y-72558418D01*
X181181590Y-72741223D01*
X181184949Y-72747816D01*
X181250523Y-72838071D01*
X181309893Y-72919789D01*
X181460210Y-73070106D01*
X181514688Y-73109685D01*
X181632184Y-73195051D01*
X181723589Y-73241624D01*
X181821581Y-73291554D01*
X181821584Y-73291555D01*
X181821588Y-73291557D01*
X182023757Y-73357246D01*
X182233713Y-73390500D01*
X182446287Y-73390500D01*
X182656243Y-73357246D01*
X182858412Y-73291557D01*
X183047816Y-73195051D01*
X183219792Y-73070104D01*
X183370104Y-72919792D01*
X183495051Y-72747816D01*
X183591557Y-72558412D01*
X183657246Y-72356243D01*
X183690500Y-72146287D01*
X183690500Y-71933713D01*
X183657246Y-71723757D01*
X183591557Y-71521588D01*
X183591555Y-71521584D01*
X183591554Y-71521581D01*
X183541624Y-71423589D01*
X183495051Y-71332184D01*
X183409685Y-71214688D01*
X183370106Y-71160210D01*
X183219789Y-71009893D01*
X183138071Y-70950523D01*
X183047816Y-70884949D01*
X183041223Y-70881590D01*
X182858418Y-70788445D01*
X182858407Y-70788441D01*
X182656251Y-70722756D01*
X182656234Y-70722752D01*
X182446287Y-70689500D01*
X182233713Y-70689500D01*
X182023765Y-70722752D01*
X182023748Y-70722756D01*
X181821592Y-70788441D01*
X181821581Y-70788445D01*
X181632187Y-70884947D01*
X181460210Y-71009893D01*
X181309893Y-71160210D01*
X181184947Y-71332187D01*
X181088445Y-71521581D01*
X181088441Y-71521592D01*
X181022756Y-71723748D01*
X181022752Y-71723765D01*
X180989500Y-71933713D01*
X179100500Y-71933713D01*
X179067246Y-71723757D01*
X179001557Y-71521588D01*
X179001555Y-71521584D01*
X179001554Y-71521581D01*
X178951624Y-71423589D01*
X178905051Y-71332184D01*
X178819685Y-71214688D01*
X178780106Y-71160210D01*
X178629789Y-71009893D01*
X178548071Y-70950523D01*
X178457816Y-70884949D01*
X178451223Y-70881590D01*
X178268418Y-70788445D01*
X178268407Y-70788441D01*
X178066251Y-70722756D01*
X178066234Y-70722752D01*
X177856287Y-70689500D01*
X177643713Y-70689500D01*
X177433765Y-70722752D01*
X177433748Y-70722756D01*
X177231592Y-70788441D01*
X177231581Y-70788445D01*
X177042187Y-70884947D01*
X176870210Y-71009893D01*
X176719893Y-71160210D01*
X176594947Y-71332187D01*
X176498445Y-71521581D01*
X176498441Y-71521592D01*
X176432756Y-71723748D01*
X176432752Y-71723765D01*
X176399500Y-71933713D01*
X174510500Y-71933713D01*
X174477246Y-71723757D01*
X174411557Y-71521588D01*
X174411555Y-71521584D01*
X174411554Y-71521581D01*
X174361624Y-71423589D01*
X174315051Y-71332184D01*
X174229685Y-71214688D01*
X174190106Y-71160210D01*
X174039789Y-71009893D01*
X173958071Y-70950523D01*
X173867816Y-70884949D01*
X173861223Y-70881590D01*
X173678418Y-70788445D01*
X173678407Y-70788441D01*
X173476251Y-70722756D01*
X173476234Y-70722752D01*
X173266287Y-70689500D01*
X173053713Y-70689500D01*
X172843765Y-70722752D01*
X172843748Y-70722756D01*
X172641592Y-70788441D01*
X172641581Y-70788445D01*
X172452187Y-70884947D01*
X172280210Y-71009893D01*
X172129893Y-71160210D01*
X172004947Y-71332187D01*
X171908445Y-71521581D01*
X171908441Y-71521592D01*
X171842756Y-71723748D01*
X171842752Y-71723765D01*
X171809500Y-71933713D01*
X169920500Y-71933713D01*
X169887246Y-71723757D01*
X169821557Y-71521588D01*
X169821555Y-71521584D01*
X169821554Y-71521581D01*
X169771624Y-71423589D01*
X169725051Y-71332184D01*
X169639685Y-71214688D01*
X169600106Y-71160210D01*
X169449789Y-71009893D01*
X169368071Y-70950523D01*
X169277816Y-70884949D01*
X169271223Y-70881590D01*
X169088418Y-70788445D01*
X169088407Y-70788441D01*
X168886251Y-70722756D01*
X168886234Y-70722752D01*
X168676287Y-70689500D01*
X168463713Y-70689500D01*
X168253765Y-70722752D01*
X168253748Y-70722756D01*
X168051592Y-70788441D01*
X168051581Y-70788445D01*
X167862187Y-70884947D01*
X167690210Y-71009893D01*
X167539893Y-71160210D01*
X167414947Y-71332187D01*
X167318445Y-71521581D01*
X167318441Y-71521592D01*
X167252756Y-71723748D01*
X167252752Y-71723765D01*
X167219500Y-71933713D01*
X165330500Y-71933713D01*
X165297246Y-71723757D01*
X165231557Y-71521588D01*
X165231555Y-71521584D01*
X165231554Y-71521581D01*
X165181624Y-71423589D01*
X165135051Y-71332184D01*
X165049685Y-71214688D01*
X165010106Y-71160210D01*
X164859789Y-71009893D01*
X164778071Y-70950523D01*
X164687816Y-70884949D01*
X164681223Y-70881590D01*
X164498418Y-70788445D01*
X164498407Y-70788441D01*
X164296251Y-70722756D01*
X164296234Y-70722752D01*
X164086287Y-70689500D01*
X163873713Y-70689500D01*
X163663765Y-70722752D01*
X163663748Y-70722756D01*
X163461592Y-70788441D01*
X163461581Y-70788445D01*
X163272187Y-70884947D01*
X163100210Y-71009893D01*
X162949893Y-71160210D01*
X162824947Y-71332187D01*
X162728445Y-71521581D01*
X162728441Y-71521592D01*
X162662756Y-71723748D01*
X162662752Y-71723765D01*
X162629500Y-71933713D01*
X160740500Y-71933713D01*
X160707246Y-71723757D01*
X160641557Y-71521588D01*
X160641555Y-71521584D01*
X160641554Y-71521581D01*
X160591624Y-71423589D01*
X160545051Y-71332184D01*
X160459685Y-71214688D01*
X160420106Y-71160210D01*
X160269789Y-71009893D01*
X160188071Y-70950523D01*
X160097816Y-70884949D01*
X160091223Y-70881590D01*
X159908418Y-70788445D01*
X159908407Y-70788441D01*
X159706251Y-70722756D01*
X159706234Y-70722752D01*
X159496287Y-70689500D01*
X159283713Y-70689500D01*
X159073765Y-70722752D01*
X159073748Y-70722756D01*
X158871592Y-70788441D01*
X158871581Y-70788445D01*
X158682187Y-70884947D01*
X158510210Y-71009893D01*
X158359893Y-71160210D01*
X158234947Y-71332187D01*
X158138445Y-71521581D01*
X158138441Y-71521592D01*
X158072756Y-71723748D01*
X158072752Y-71723765D01*
X158039500Y-71933713D01*
X131250500Y-71933713D01*
X131250500Y-71279546D01*
X133187533Y-71279546D01*
X133388311Y-71333346D01*
X133388315Y-71333347D01*
X133628737Y-71364999D01*
X133628743Y-71365000D01*
X133871257Y-71365000D01*
X133871262Y-71364999D01*
X134111684Y-71333347D01*
X134111688Y-71333346D01*
X134312465Y-71279547D01*
X134312465Y-71279546D01*
X133750001Y-70717081D01*
X133750000Y-70717081D01*
X133187533Y-71279546D01*
X131250500Y-71279546D01*
X131250500Y-69393737D01*
X131900000Y-69393737D01*
X131900000Y-69636262D01*
X131931652Y-69876684D01*
X131931653Y-69876689D01*
X131985452Y-70077466D01*
X132547918Y-69515001D01*
X132547918Y-69514999D01*
X132482093Y-69449174D01*
X133250000Y-69449174D01*
X133250000Y-69580826D01*
X133284075Y-69707993D01*
X133349901Y-69822007D01*
X133442993Y-69915099D01*
X133557007Y-69980925D01*
X133684174Y-70015000D01*
X133815826Y-70015000D01*
X133942993Y-69980925D01*
X134057007Y-69915099D01*
X134150099Y-69822007D01*
X134215925Y-69707993D01*
X134250000Y-69580826D01*
X134250000Y-69514999D01*
X134952081Y-69514999D01*
X134952081Y-69515000D01*
X135514546Y-70077465D01*
X135514547Y-70077465D01*
X135568346Y-69876688D01*
X135568347Y-69876684D01*
X135599999Y-69636262D01*
X135600000Y-69636257D01*
X135600000Y-69393742D01*
X135599999Y-69393735D01*
X135598024Y-69378737D01*
X157540000Y-69378737D01*
X157540000Y-69621262D01*
X157571652Y-69861684D01*
X157571653Y-69861689D01*
X157625452Y-70062466D01*
X158187918Y-69500001D01*
X158187918Y-69499999D01*
X158122093Y-69434174D01*
X158890000Y-69434174D01*
X158890000Y-69565826D01*
X158924075Y-69692993D01*
X158989901Y-69807007D01*
X159082993Y-69900099D01*
X159197007Y-69965925D01*
X159324174Y-70000000D01*
X159455826Y-70000000D01*
X159582993Y-69965925D01*
X159697007Y-69900099D01*
X159790099Y-69807007D01*
X159855925Y-69692993D01*
X159890000Y-69565826D01*
X159890000Y-69499999D01*
X160592081Y-69499999D01*
X160592081Y-69500000D01*
X161154546Y-70062465D01*
X161154547Y-70062465D01*
X161208346Y-69861688D01*
X161208347Y-69861684D01*
X161239999Y-69621262D01*
X161240000Y-69621257D01*
X161240000Y-69378742D01*
X161239999Y-69378737D01*
X162130000Y-69378737D01*
X162130000Y-69621262D01*
X162161652Y-69861684D01*
X162161653Y-69861689D01*
X162215452Y-70062466D01*
X162777918Y-69500001D01*
X162777918Y-69499999D01*
X162712093Y-69434174D01*
X163480000Y-69434174D01*
X163480000Y-69565826D01*
X163514075Y-69692993D01*
X163579901Y-69807007D01*
X163672993Y-69900099D01*
X163787007Y-69965925D01*
X163914174Y-70000000D01*
X164045826Y-70000000D01*
X164172993Y-69965925D01*
X164287007Y-69900099D01*
X164380099Y-69807007D01*
X164445925Y-69692993D01*
X164480000Y-69565826D01*
X164480000Y-69499999D01*
X165182081Y-69499999D01*
X165182081Y-69500000D01*
X165744546Y-70062465D01*
X165744547Y-70062465D01*
X165798346Y-69861688D01*
X165798347Y-69861684D01*
X165829999Y-69621262D01*
X165830000Y-69621257D01*
X165830000Y-69378742D01*
X165829999Y-69378737D01*
X166720000Y-69378737D01*
X166720000Y-69621262D01*
X166751652Y-69861684D01*
X166751653Y-69861689D01*
X166805452Y-70062466D01*
X167367918Y-69500001D01*
X167367918Y-69499999D01*
X167302093Y-69434174D01*
X168070000Y-69434174D01*
X168070000Y-69565826D01*
X168104075Y-69692993D01*
X168169901Y-69807007D01*
X168262993Y-69900099D01*
X168377007Y-69965925D01*
X168504174Y-70000000D01*
X168635826Y-70000000D01*
X168762993Y-69965925D01*
X168877007Y-69900099D01*
X168970099Y-69807007D01*
X169035925Y-69692993D01*
X169070000Y-69565826D01*
X169070000Y-69499999D01*
X169772081Y-69499999D01*
X169772081Y-69500000D01*
X170334546Y-70062465D01*
X170334547Y-70062465D01*
X170388346Y-69861688D01*
X170388347Y-69861684D01*
X170419999Y-69621262D01*
X170420000Y-69621257D01*
X170420000Y-69378742D01*
X170419999Y-69378737D01*
X171310000Y-69378737D01*
X171310000Y-69621262D01*
X171341652Y-69861684D01*
X171341653Y-69861689D01*
X171395452Y-70062466D01*
X171957918Y-69500001D01*
X171957918Y-69499999D01*
X171892093Y-69434174D01*
X172660000Y-69434174D01*
X172660000Y-69565826D01*
X172694075Y-69692993D01*
X172759901Y-69807007D01*
X172852993Y-69900099D01*
X172967007Y-69965925D01*
X173094174Y-70000000D01*
X173225826Y-70000000D01*
X173352993Y-69965925D01*
X173467007Y-69900099D01*
X173560099Y-69807007D01*
X173625925Y-69692993D01*
X173660000Y-69565826D01*
X173660000Y-69499999D01*
X174362081Y-69499999D01*
X174362081Y-69500000D01*
X174924546Y-70062465D01*
X174924547Y-70062465D01*
X174978346Y-69861688D01*
X174978347Y-69861684D01*
X175009999Y-69621262D01*
X175010000Y-69621257D01*
X175010000Y-69378742D01*
X175009999Y-69378737D01*
X175900000Y-69378737D01*
X175900000Y-69621262D01*
X175931652Y-69861684D01*
X175931653Y-69861689D01*
X175985452Y-70062466D01*
X176547918Y-69500001D01*
X176547918Y-69499999D01*
X176482093Y-69434174D01*
X177250000Y-69434174D01*
X177250000Y-69565826D01*
X177284075Y-69692993D01*
X177349901Y-69807007D01*
X177442993Y-69900099D01*
X177557007Y-69965925D01*
X177684174Y-70000000D01*
X177815826Y-70000000D01*
X177942993Y-69965925D01*
X178057007Y-69900099D01*
X178150099Y-69807007D01*
X178215925Y-69692993D01*
X178250000Y-69565826D01*
X178250000Y-69499999D01*
X178952081Y-69499999D01*
X178952081Y-69500000D01*
X179514546Y-70062465D01*
X179514547Y-70062465D01*
X179568346Y-69861688D01*
X179568347Y-69861684D01*
X179599999Y-69621262D01*
X179600000Y-69621257D01*
X179600000Y-69378742D01*
X179599999Y-69378737D01*
X180490000Y-69378737D01*
X180490000Y-69621262D01*
X180521652Y-69861684D01*
X180521653Y-69861689D01*
X180575452Y-70062466D01*
X181137918Y-69500001D01*
X181137918Y-69499999D01*
X181072093Y-69434174D01*
X181840000Y-69434174D01*
X181840000Y-69565826D01*
X181874075Y-69692993D01*
X181939901Y-69807007D01*
X182032993Y-69900099D01*
X182147007Y-69965925D01*
X182274174Y-70000000D01*
X182405826Y-70000000D01*
X182532993Y-69965925D01*
X182647007Y-69900099D01*
X182740099Y-69807007D01*
X182805925Y-69692993D01*
X182840000Y-69565826D01*
X182840000Y-69499999D01*
X183542081Y-69499999D01*
X183542081Y-69500000D01*
X184104546Y-70062465D01*
X184104547Y-70062465D01*
X184158346Y-69861688D01*
X184158347Y-69861684D01*
X184189999Y-69621262D01*
X184190000Y-69621257D01*
X184190000Y-69378742D01*
X184189999Y-69378737D01*
X184158347Y-69138315D01*
X184158346Y-69138311D01*
X184104546Y-68937533D01*
X183542081Y-69499999D01*
X182840000Y-69499999D01*
X182840000Y-69434174D01*
X182805925Y-69307007D01*
X182740099Y-69192993D01*
X182647007Y-69099901D01*
X182532993Y-69034075D01*
X182405826Y-69000000D01*
X182274174Y-69000000D01*
X182147007Y-69034075D01*
X182032993Y-69099901D01*
X181939901Y-69192993D01*
X181874075Y-69307007D01*
X181840000Y-69434174D01*
X181072093Y-69434174D01*
X180575452Y-68937532D01*
X180575451Y-68937532D01*
X180521654Y-69138306D01*
X180521652Y-69138315D01*
X180490000Y-69378737D01*
X179599999Y-69378737D01*
X179568347Y-69138315D01*
X179568346Y-69138311D01*
X179514546Y-68937533D01*
X178952081Y-69499999D01*
X178250000Y-69499999D01*
X178250000Y-69434174D01*
X178215925Y-69307007D01*
X178150099Y-69192993D01*
X178057007Y-69099901D01*
X177942993Y-69034075D01*
X177815826Y-69000000D01*
X177684174Y-69000000D01*
X177557007Y-69034075D01*
X177442993Y-69099901D01*
X177349901Y-69192993D01*
X177284075Y-69307007D01*
X177250000Y-69434174D01*
X176482093Y-69434174D01*
X175985452Y-68937532D01*
X175985451Y-68937532D01*
X175931654Y-69138306D01*
X175931652Y-69138315D01*
X175900000Y-69378737D01*
X175009999Y-69378737D01*
X174978347Y-69138315D01*
X174978346Y-69138311D01*
X174924546Y-68937533D01*
X174362081Y-69499999D01*
X173660000Y-69499999D01*
X173660000Y-69434174D01*
X173625925Y-69307007D01*
X173560099Y-69192993D01*
X173467007Y-69099901D01*
X173352993Y-69034075D01*
X173225826Y-69000000D01*
X173094174Y-69000000D01*
X172967007Y-69034075D01*
X172852993Y-69099901D01*
X172759901Y-69192993D01*
X172694075Y-69307007D01*
X172660000Y-69434174D01*
X171892093Y-69434174D01*
X171395451Y-68937532D01*
X171341654Y-69138306D01*
X171341652Y-69138315D01*
X171310000Y-69378737D01*
X170419999Y-69378737D01*
X170388347Y-69138315D01*
X170388346Y-69138311D01*
X170334546Y-68937533D01*
X169772081Y-69499999D01*
X169070000Y-69499999D01*
X169070000Y-69434174D01*
X169035925Y-69307007D01*
X168970099Y-69192993D01*
X168877007Y-69099901D01*
X168762993Y-69034075D01*
X168635826Y-69000000D01*
X168504174Y-69000000D01*
X168377007Y-69034075D01*
X168262993Y-69099901D01*
X168169901Y-69192993D01*
X168104075Y-69307007D01*
X168070000Y-69434174D01*
X167302093Y-69434174D01*
X166805451Y-68937532D01*
X166751654Y-69138306D01*
X166751652Y-69138315D01*
X166720000Y-69378737D01*
X165829999Y-69378737D01*
X165798347Y-69138315D01*
X165798346Y-69138311D01*
X165744546Y-68937533D01*
X165182081Y-69499999D01*
X164480000Y-69499999D01*
X164480000Y-69434174D01*
X164445925Y-69307007D01*
X164380099Y-69192993D01*
X164287007Y-69099901D01*
X164172993Y-69034075D01*
X164045826Y-69000000D01*
X163914174Y-69000000D01*
X163787007Y-69034075D01*
X163672993Y-69099901D01*
X163579901Y-69192993D01*
X163514075Y-69307007D01*
X163480000Y-69434174D01*
X162712093Y-69434174D01*
X162215452Y-68937532D01*
X162215451Y-68937532D01*
X162161654Y-69138306D01*
X162161652Y-69138315D01*
X162130000Y-69378737D01*
X161239999Y-69378737D01*
X161208347Y-69138315D01*
X161208346Y-69138311D01*
X161154546Y-68937533D01*
X160592081Y-69499999D01*
X159890000Y-69499999D01*
X159890000Y-69434174D01*
X159855925Y-69307007D01*
X159790099Y-69192993D01*
X159697007Y-69099901D01*
X159582993Y-69034075D01*
X159455826Y-69000000D01*
X159324174Y-69000000D01*
X159197007Y-69034075D01*
X159082993Y-69099901D01*
X158989901Y-69192993D01*
X158924075Y-69307007D01*
X158890000Y-69434174D01*
X158122093Y-69434174D01*
X157625451Y-68937532D01*
X157571654Y-69138306D01*
X157571652Y-69138315D01*
X157540000Y-69378737D01*
X135598024Y-69378737D01*
X135568347Y-69153315D01*
X135568346Y-69153311D01*
X135514546Y-68952533D01*
X134952081Y-69514999D01*
X134250000Y-69514999D01*
X134250000Y-69449174D01*
X134215925Y-69322007D01*
X134150099Y-69207993D01*
X134057007Y-69114901D01*
X133942993Y-69049075D01*
X133815826Y-69015000D01*
X133684174Y-69015000D01*
X133557007Y-69049075D01*
X133442993Y-69114901D01*
X133349901Y-69207993D01*
X133284075Y-69322007D01*
X133250000Y-69449174D01*
X132482093Y-69449174D01*
X131985451Y-68952532D01*
X131931654Y-69153306D01*
X131931652Y-69153315D01*
X131900000Y-69393737D01*
X131250500Y-69393737D01*
X131250500Y-66077127D01*
X132399500Y-66077127D01*
X132399500Y-66077128D01*
X132399500Y-66077132D01*
X132399500Y-67872876D01*
X132405908Y-67932481D01*
X132456203Y-68067329D01*
X132456207Y-68067335D01*
X132542453Y-68182546D01*
X132628219Y-68246750D01*
X132657669Y-68268796D01*
X132792517Y-68319091D01*
X132852127Y-68325500D01*
X134647872Y-68325499D01*
X134647876Y-68325499D01*
X134687612Y-68321227D01*
X134707483Y-68319091D01*
X134842331Y-68268796D01*
X134957546Y-68182546D01*
X135043796Y-68067331D01*
X135094091Y-67932483D01*
X135100500Y-67872873D01*
X135100499Y-66077128D01*
X135098886Y-66062127D01*
X158039500Y-66062127D01*
X158039500Y-66062128D01*
X158039500Y-66062132D01*
X158039500Y-67857876D01*
X158045908Y-67917481D01*
X158096203Y-68052329D01*
X158096207Y-68052335D01*
X158182453Y-68167546D01*
X158202491Y-68182546D01*
X158297669Y-68253796D01*
X158432517Y-68304091D01*
X158492127Y-68310500D01*
X160287872Y-68310499D01*
X160287876Y-68310499D01*
X160327612Y-68306227D01*
X160347483Y-68304091D01*
X160482331Y-68253796D01*
X160597546Y-68167546D01*
X160683796Y-68052331D01*
X160734091Y-67917483D01*
X160740500Y-67857873D01*
X160740499Y-66062128D01*
X160740499Y-66062127D01*
X162629500Y-66062127D01*
X162629500Y-66062128D01*
X162629500Y-66062132D01*
X162629500Y-67857876D01*
X162635908Y-67917481D01*
X162686203Y-68052329D01*
X162686207Y-68052335D01*
X162772453Y-68167546D01*
X162792491Y-68182546D01*
X162887669Y-68253796D01*
X163022517Y-68304091D01*
X163082127Y-68310500D01*
X164877872Y-68310499D01*
X164877876Y-68310499D01*
X164917612Y-68306227D01*
X164937483Y-68304091D01*
X165072331Y-68253796D01*
X165187546Y-68167546D01*
X165273796Y-68052331D01*
X165324091Y-67917483D01*
X165330500Y-67857873D01*
X165330499Y-66062128D01*
X165330499Y-66062127D01*
X167219500Y-66062127D01*
X167219500Y-66062128D01*
X167219500Y-66062132D01*
X167219500Y-67857876D01*
X167225908Y-67917481D01*
X167276203Y-68052329D01*
X167276207Y-68052335D01*
X167362453Y-68167546D01*
X167382491Y-68182546D01*
X167477669Y-68253796D01*
X167612517Y-68304091D01*
X167672127Y-68310500D01*
X169467872Y-68310499D01*
X169467876Y-68310499D01*
X169507612Y-68306227D01*
X169527483Y-68304091D01*
X169662331Y-68253796D01*
X169777546Y-68167546D01*
X169863796Y-68052331D01*
X169914091Y-67917483D01*
X169920500Y-67857873D01*
X169920499Y-66062128D01*
X169920499Y-66062127D01*
X171809500Y-66062127D01*
X171809500Y-66062128D01*
X171809500Y-66062132D01*
X171809500Y-67857876D01*
X171815908Y-67917481D01*
X171866203Y-68052329D01*
X171866207Y-68052335D01*
X171952453Y-68167546D01*
X171972491Y-68182546D01*
X172067669Y-68253796D01*
X172202517Y-68304091D01*
X172262127Y-68310500D01*
X174057872Y-68310499D01*
X174057876Y-68310499D01*
X174097612Y-68306227D01*
X174117483Y-68304091D01*
X174252331Y-68253796D01*
X174367546Y-68167546D01*
X174453796Y-68052331D01*
X174504091Y-67917483D01*
X174510500Y-67857873D01*
X174510499Y-66062128D01*
X174510499Y-66062127D01*
X176399500Y-66062127D01*
X176399500Y-66062128D01*
X176399500Y-66062132D01*
X176399500Y-67857876D01*
X176405908Y-67917481D01*
X176456203Y-68052329D01*
X176456207Y-68052335D01*
X176542453Y-68167546D01*
X176562491Y-68182546D01*
X176657669Y-68253796D01*
X176792517Y-68304091D01*
X176852127Y-68310500D01*
X178647872Y-68310499D01*
X178647876Y-68310499D01*
X178687612Y-68306227D01*
X178707483Y-68304091D01*
X178842331Y-68253796D01*
X178957546Y-68167546D01*
X179043796Y-68052331D01*
X179094091Y-67917483D01*
X179100500Y-67857873D01*
X179100499Y-66062128D01*
X179100499Y-66062127D01*
X180989500Y-66062127D01*
X180989500Y-66062128D01*
X180989500Y-66062132D01*
X180989500Y-67857876D01*
X180995908Y-67917481D01*
X181046203Y-68052329D01*
X181046207Y-68052335D01*
X181132453Y-68167546D01*
X181152491Y-68182546D01*
X181247669Y-68253796D01*
X181382517Y-68304091D01*
X181442127Y-68310500D01*
X183237872Y-68310499D01*
X183237876Y-68310499D01*
X183277612Y-68306227D01*
X183297483Y-68304091D01*
X183432331Y-68253796D01*
X183547546Y-68167546D01*
X183633796Y-68052331D01*
X183684091Y-67917483D01*
X183690500Y-67857873D01*
X183690499Y-66062128D01*
X183690499Y-66062127D01*
X183690499Y-66062123D01*
X183684091Y-66002518D01*
X183639391Y-65882669D01*
X183633796Y-65867669D01*
X183611750Y-65838219D01*
X183547546Y-65752453D01*
X183432335Y-65666207D01*
X183432331Y-65666204D01*
X183297483Y-65615909D01*
X183237873Y-65609500D01*
X183237867Y-65609500D01*
X181442123Y-65609500D01*
X181382518Y-65615908D01*
X181247670Y-65666203D01*
X181247664Y-65666207D01*
X181132453Y-65752453D01*
X181046207Y-65867664D01*
X181046204Y-65867669D01*
X180995909Y-66002517D01*
X180989500Y-66062127D01*
X179100499Y-66062127D01*
X179100499Y-66062123D01*
X179094091Y-66002518D01*
X179049391Y-65882669D01*
X179043796Y-65867669D01*
X179021750Y-65838219D01*
X178957546Y-65752453D01*
X178842335Y-65666207D01*
X178842331Y-65666204D01*
X178707483Y-65615909D01*
X178647873Y-65609500D01*
X178647867Y-65609500D01*
X176852123Y-65609500D01*
X176792518Y-65615908D01*
X176657670Y-65666203D01*
X176657664Y-65666207D01*
X176542453Y-65752453D01*
X176456207Y-65867664D01*
X176456204Y-65867669D01*
X176405909Y-66002517D01*
X176399500Y-66062127D01*
X174510499Y-66062127D01*
X174510499Y-66062123D01*
X174504091Y-66002518D01*
X174459391Y-65882669D01*
X174453796Y-65867669D01*
X174431750Y-65838219D01*
X174367546Y-65752453D01*
X174252335Y-65666207D01*
X174252331Y-65666204D01*
X174117483Y-65615909D01*
X174057873Y-65609500D01*
X174057867Y-65609500D01*
X172262123Y-65609500D01*
X172202518Y-65615908D01*
X172067670Y-65666203D01*
X172067664Y-65666207D01*
X171952453Y-65752453D01*
X171866207Y-65867664D01*
X171866204Y-65867669D01*
X171815909Y-66002517D01*
X171809500Y-66062127D01*
X169920499Y-66062127D01*
X169920499Y-66062123D01*
X169914091Y-66002518D01*
X169869391Y-65882669D01*
X169863796Y-65867669D01*
X169841750Y-65838219D01*
X169777546Y-65752453D01*
X169662335Y-65666207D01*
X169662331Y-65666204D01*
X169527483Y-65615909D01*
X169467873Y-65609500D01*
X169467867Y-65609500D01*
X167672123Y-65609500D01*
X167612518Y-65615908D01*
X167477670Y-65666203D01*
X167477664Y-65666207D01*
X167362453Y-65752453D01*
X167276207Y-65867664D01*
X167276204Y-65867669D01*
X167225909Y-66002517D01*
X167219500Y-66062127D01*
X165330499Y-66062127D01*
X165330499Y-66062123D01*
X165324091Y-66002518D01*
X165279391Y-65882669D01*
X165273796Y-65867669D01*
X165251750Y-65838219D01*
X165187546Y-65752453D01*
X165072335Y-65666207D01*
X165072331Y-65666204D01*
X164937483Y-65615909D01*
X164877873Y-65609500D01*
X164877867Y-65609500D01*
X163082123Y-65609500D01*
X163022518Y-65615908D01*
X162887670Y-65666203D01*
X162887664Y-65666207D01*
X162772453Y-65752453D01*
X162686207Y-65867664D01*
X162686204Y-65867669D01*
X162635909Y-66002517D01*
X162629500Y-66062127D01*
X160740499Y-66062127D01*
X160740499Y-66062123D01*
X160734091Y-66002518D01*
X160689391Y-65882669D01*
X160683796Y-65867669D01*
X160661750Y-65838219D01*
X160597546Y-65752453D01*
X160482335Y-65666207D01*
X160482331Y-65666204D01*
X160347483Y-65615909D01*
X160287873Y-65609500D01*
X160287867Y-65609500D01*
X158492123Y-65609500D01*
X158432518Y-65615908D01*
X158297670Y-65666203D01*
X158297664Y-65666207D01*
X158182453Y-65752453D01*
X158096207Y-65867664D01*
X158096204Y-65867669D01*
X158045909Y-66002517D01*
X158039500Y-66062127D01*
X135098886Y-66062127D01*
X135094091Y-66017518D01*
X135088497Y-66002518D01*
X135043796Y-65882669D01*
X135021750Y-65853219D01*
X134957546Y-65767453D01*
X134842335Y-65681207D01*
X134842331Y-65681204D01*
X134707483Y-65630909D01*
X134647873Y-65624500D01*
X134647867Y-65624500D01*
X132852123Y-65624500D01*
X132792518Y-65630908D01*
X132657670Y-65681203D01*
X132657664Y-65681207D01*
X132542453Y-65767453D01*
X132456207Y-65882664D01*
X132456204Y-65882669D01*
X132405909Y-66017517D01*
X132399500Y-66077127D01*
X131250500Y-66077127D01*
X131250500Y-63199500D01*
X131270207Y-63113157D01*
X131325426Y-63043916D01*
X131405218Y-63005489D01*
X131449500Y-63000500D01*
X186300500Y-63000500D01*
X186386843Y-63020207D01*
G37*
%TD.AperFunction*%
%TD*%
M02*
