%TF.GenerationSoftware,KiCad,Pcbnew,9.0.1*%
%TF.CreationDate,2025-04-11T16:24:37+02:00*%
%TF.ProjectId,Alimentation_DC_DC,416c696d-656e-4746-9174-696f6e5f4443,rev?*%
%TF.SameCoordinates,Original*%
%TF.FileFunction,Soldermask,Top*%
%TF.FilePolarity,Negative*%
%FSLAX46Y46*%
G04 Gerber Fmt 4.6, Leading zero omitted, Abs format (unit mm)*
G04 Created by KiCad (PCBNEW 9.0.1) date 2025-04-11 16:24:37*
%MOMM*%
%LPD*%
G01*
G04 APERTURE LIST*
G04 Aperture macros list*
%AMRoundRect*
0 Rectangle with rounded corners*
0 $1 Rounding radius*
0 $2 $3 $4 $5 $6 $7 $8 $9 X,Y pos of 4 corners*
0 Add a 4 corners polygon primitive as box body*
4,1,4,$2,$3,$4,$5,$6,$7,$8,$9,$2,$3,0*
0 Add four circle primitives for the rounded corners*
1,1,$1+$1,$2,$3*
1,1,$1+$1,$4,$5*
1,1,$1+$1,$6,$7*
1,1,$1+$1,$8,$9*
0 Add four rect primitives between the rounded corners*
20,1,$1+$1,$2,$3,$4,$5,0*
20,1,$1+$1,$4,$5,$6,$7,0*
20,1,$1+$1,$6,$7,$8,$9,0*
20,1,$1+$1,$8,$9,$2,$3,0*%
%AMOutline4P*
0 Free polygon, 4 corners , with rotation*
0 The origin of the aperture is its center*
0 number of corners: always 4*
0 $1 to $8 corner X, Y*
0 $9 Rotation angle, in degrees counterclockwise*
0 create outline with 4 corners*
4,1,4,$1,$2,$3,$4,$5,$6,$7,$8,$1,$2,$9*%
G04 Aperture macros list end*
%ADD10R,1.700000X1.700000*%
%ADD11C,1.700000*%
%ADD12RoundRect,0.250000X0.300000X-2.050000X0.300000X2.050000X-0.300000X2.050000X-0.300000X-2.050000X0*%
%ADD13RoundRect,0.250002X5.149998X-4.449998X5.149998X4.449998X-5.149998X4.449998X-5.149998X-4.449998X0*%
%ADD14RoundRect,0.200000X-0.200000X-0.275000X0.200000X-0.275000X0.200000X0.275000X-0.200000X0.275000X0*%
%ADD15RoundRect,0.200000X-0.275000X0.200000X-0.275000X-0.200000X0.275000X-0.200000X0.275000X0.200000X0*%
%ADD16R,2.800000X5.300000*%
%ADD17RoundRect,1.500000X1.500000X-1.500000X1.500000X1.500000X-1.500000X1.500000X-1.500000X-1.500000X0*%
%ADD18C,6.000000*%
%ADD19Outline4P,-2.150000X-1.800000X2.150000X-0.800000X2.150000X0.800000X-2.150000X1.800000X0.000000*%
%ADD20Outline4P,-2.150000X-1.800000X2.150000X-0.800000X2.150000X0.800000X-2.150000X1.800000X180.000000*%
%ADD21RoundRect,0.225000X0.250000X-0.225000X0.250000X0.225000X-0.250000X0.225000X-0.250000X-0.225000X0*%
%ADD22RoundRect,0.250000X-0.550000X1.412500X-0.550000X-1.412500X0.550000X-1.412500X0.550000X1.412500X0*%
%ADD23RoundRect,0.250000X-1.950000X-1.000000X1.950000X-1.000000X1.950000X1.000000X-1.950000X1.000000X0*%
G04 APERTURE END LIST*
D10*
%TO.C,J8*%
X133750000Y-66975000D03*
D11*
X133750000Y-69515000D03*
%TD*%
D12*
%TO.C,U1*%
X146075000Y-78475000D03*
X147775000Y-78475000D03*
X149475000Y-78475000D03*
D13*
X149475000Y-69325000D03*
D12*
X151175000Y-78475000D03*
X152875000Y-78475000D03*
%TD*%
D14*
%TO.C,R2*%
X169925000Y-75500000D03*
X171575000Y-75500000D03*
%TD*%
D15*
%TO.C,R1*%
X171500000Y-77925000D03*
X171500000Y-79575000D03*
%TD*%
D16*
%TO.C,L1*%
X157700000Y-83000000D03*
X167800000Y-83000000D03*
%TD*%
D10*
%TO.C,J7*%
X182340000Y-66960000D03*
D11*
X182340000Y-69500000D03*
X182340000Y-72040000D03*
%TD*%
D10*
%TO.C,J6*%
X177750000Y-66960000D03*
D11*
X177750000Y-69500000D03*
X177750000Y-72040000D03*
%TD*%
D10*
%TO.C,J5*%
X173160000Y-66960000D03*
D11*
X173160000Y-69500000D03*
X173160000Y-72040000D03*
%TD*%
D10*
%TO.C,J4*%
X168570000Y-66960000D03*
D11*
X168570000Y-69500000D03*
X168570000Y-72040000D03*
%TD*%
D10*
%TO.C,J3*%
X163980000Y-66960000D03*
D11*
X163980000Y-69500000D03*
X163980000Y-72040000D03*
%TD*%
D10*
%TO.C,J2*%
X159390000Y-66960000D03*
D11*
X159390000Y-69500000D03*
X159390000Y-72040000D03*
%TD*%
D17*
%TO.C,J1*%
X137500000Y-84850000D03*
D18*
X137500000Y-77650000D03*
%TD*%
D19*
%TO.C,D1*%
X145800000Y-86250000D03*
D20*
X152200000Y-86250000D03*
%TD*%
D21*
%TO.C,C3*%
X171500000Y-83100000D03*
X171500000Y-81550000D03*
%TD*%
D22*
%TO.C,C2*%
X139500000Y-65212500D03*
X139500000Y-70287500D03*
%TD*%
D23*
%TO.C,C1*%
X175300000Y-83000000D03*
X183700000Y-83000000D03*
%TD*%
M02*
