%TF.GenerationSoftware,KiCad,Pcbnew,9.0.1*%
%TF.CreationDate,2025-04-11T16:34:43+02:00*%
%TF.ProjectId,Driver_CMS,44726976-6572-45f4-934d-532e6b696361,rev?*%
%TF.SameCoordinates,Original*%
%TF.FileFunction,Copper,L2,Bot*%
%TF.FilePolarity,Positive*%
%FSLAX46Y46*%
G04 Gerber Fmt 4.6, Leading zero omitted, Abs format (unit mm)*
G04 Created by KiCad (PCBNEW 9.0.1) date 2025-04-11 16:34:43*
%MOMM*%
%LPD*%
G01*
G04 APERTURE LIST*
%TA.AperFunction,ComponentPad*%
%ADD10R,1.700000X1.700000*%
%TD*%
%TA.AperFunction,ComponentPad*%
%ADD11C,1.700000*%
%TD*%
%TA.AperFunction,ViaPad*%
%ADD12C,1.200000*%
%TD*%
%TA.AperFunction,Conductor*%
%ADD13C,0.500000*%
%TD*%
G04 APERTURE END LIST*
D10*
%TO.P,J3,1,Pin_1*%
%TO.N,+24V*%
X123220000Y-52355000D03*
D11*
%TO.P,J3,2,Pin_2*%
%TO.N,GND*%
X123220000Y-49815000D03*
%TO.P,J3,3,Pin_3*%
%TO.N,+5V*%
X123220000Y-47275000D03*
%TD*%
D10*
%TO.P,J2,1,Pin_1*%
%TO.N,alim_bobine1*%
X132220000Y-58815000D03*
D11*
%TO.P,J2,2,Pin_2*%
%TO.N,alim_bobine2*%
X132220000Y-61355000D03*
%TO.P,J2,3,Pin_3*%
%TO.N,alim_bobine3*%
X132220000Y-63895000D03*
%TO.P,J2,4,Pin_4*%
%TO.N,alim_bobine4*%
X132220000Y-66435000D03*
%TD*%
D10*
%TO.P,J1,1,Pin_1*%
%TO.N,out_bobine1*%
X132220000Y-47045000D03*
D11*
%TO.P,J1,2,Pin_2*%
%TO.N,out_bobine2*%
X132220000Y-49585000D03*
%TO.P,J1,3,Pin_3*%
%TO.N,out_bobine3*%
X132220000Y-52125000D03*
%TO.P,J1,4,Pin_4*%
%TO.N,out_bobine4*%
X132220000Y-54665000D03*
%TD*%
D12*
%TO.N,out_bobine4*%
X165000000Y-55810000D03*
%TO.N,GND*%
X142000000Y-67000000D03*
X146500000Y-65000000D03*
X141000000Y-56500000D03*
%TO.N,out_bobine2*%
X142000000Y-55000000D03*
%TO.N,out_bobine3*%
X162500000Y-56942169D03*
X142250000Y-60000000D03*
%TO.N,out_bobine4*%
X135500000Y-60000000D03*
%TO.N,alim_bobine2*%
X143750000Y-63500000D03*
%TO.N,alim_bobine3*%
X143541645Y-65458355D03*
%TD*%
D13*
%TO.N,alim_bobine3*%
X143541645Y-65458355D02*
X141708355Y-65458355D01*
X140145000Y-63895000D02*
X132220000Y-63895000D01*
X141708355Y-65458355D02*
X140145000Y-63895000D01*
%TO.N,out_bobine3*%
X142250000Y-60000000D02*
X141875000Y-60000000D01*
X141875000Y-60000000D02*
X141375000Y-59500000D01*
X141375000Y-59500000D02*
X139595000Y-59500000D01*
X139595000Y-59500000D02*
X132220000Y-52125000D01*
X142250000Y-60000000D02*
X142750000Y-60500000D01*
X142750000Y-60500000D02*
X158942169Y-60500000D01*
X158942169Y-60500000D02*
X162500000Y-56942169D01*
%TO.N,alim_bobine2*%
X143750000Y-63500000D02*
X143250000Y-63000000D01*
X143250000Y-63000000D02*
X133865000Y-63000000D01*
X133865000Y-63000000D02*
X132220000Y-61355000D01*
%TO.N,out_bobine4*%
X165000000Y-55810000D02*
X165000000Y-56069929D01*
X165000000Y-56069929D02*
X159518929Y-61551000D01*
X159518929Y-61551000D02*
X137051000Y-61551000D01*
X137051000Y-61551000D02*
X135500000Y-60000000D01*
%TO.N,out_bobine2*%
X142000000Y-55000000D02*
X141500000Y-55000000D01*
X141500000Y-55000000D02*
X140540000Y-54040000D01*
X136675000Y-54040000D02*
X132220000Y-49585000D01*
X140540000Y-54040000D02*
X136675000Y-54040000D01*
%TO.N,out_bobine4*%
X135500000Y-60000000D02*
X135500000Y-57945000D01*
X135500000Y-57945000D02*
X132220000Y-54665000D01*
%TD*%
%TA.AperFunction,Conductor*%
%TO.N,GND*%
G36*
X166145000Y-42875462D02*
G01*
X166199538Y-42930000D01*
X166219500Y-43004500D01*
X166219500Y-71705500D01*
X166199538Y-71780000D01*
X166145000Y-71834538D01*
X166070500Y-71854500D01*
X119869500Y-71854500D01*
X119795000Y-71834538D01*
X119740462Y-71780000D01*
X119720500Y-71705500D01*
X119720500Y-56723876D01*
X121219500Y-56723876D01*
X121219500Y-56986123D01*
X121253728Y-57246107D01*
X121253728Y-57246110D01*
X121321600Y-57499415D01*
X121321600Y-57499416D01*
X121421959Y-57741701D01*
X121553078Y-57968806D01*
X121553078Y-57968807D01*
X121712715Y-58176848D01*
X121898151Y-58362284D01*
X122106193Y-58521921D01*
X122106197Y-58521924D01*
X122333303Y-58653043D01*
X122537809Y-58737752D01*
X122575583Y-58753399D01*
X122663332Y-58776910D01*
X122828884Y-58821270D01*
X122828890Y-58821270D01*
X122828891Y-58821271D01*
X122865834Y-58826134D01*
X123088877Y-58855499D01*
X123088878Y-58855500D01*
X123088880Y-58855500D01*
X123351122Y-58855500D01*
X123351122Y-58855499D01*
X123611108Y-58821271D01*
X123611110Y-58821271D01*
X123611111Y-58821270D01*
X123611116Y-58821270D01*
X123864415Y-58753399D01*
X123864416Y-58753399D01*
X123864417Y-58753398D01*
X123864419Y-58753398D01*
X124106697Y-58653043D01*
X124333803Y-58521924D01*
X124541848Y-58362284D01*
X124541849Y-58362284D01*
X124727284Y-58176849D01*
X124727284Y-58176848D01*
X124886921Y-57968807D01*
X124886921Y-57968806D01*
X124886924Y-57968803D01*
X124915022Y-57920135D01*
X131069500Y-57920135D01*
X131069500Y-57920136D01*
X131069500Y-57920140D01*
X131069500Y-59709866D01*
X131072414Y-59734989D01*
X131072415Y-59734992D01*
X131117793Y-59837764D01*
X131117794Y-59837765D01*
X131197235Y-59917206D01*
X131300009Y-59962585D01*
X131325135Y-59965500D01*
X131832596Y-59965499D01*
X131907094Y-59985461D01*
X131961632Y-60039999D01*
X131981594Y-60114499D01*
X131961632Y-60188999D01*
X131907094Y-60243537D01*
X131878638Y-60256206D01*
X131778364Y-60288786D01*
X131778363Y-60288787D01*
X131617004Y-60371005D01*
X131617003Y-60371005D01*
X131470500Y-60477446D01*
X131470497Y-60477448D01*
X131342448Y-60605497D01*
X131342446Y-60605500D01*
X131236005Y-60752003D01*
X131236005Y-60752004D01*
X131153789Y-60913360D01*
X131146992Y-60934281D01*
X131097829Y-61085591D01*
X131069500Y-61264454D01*
X131069500Y-61445546D01*
X131096103Y-61613510D01*
X131097829Y-61624408D01*
X131153789Y-61796639D01*
X131236005Y-61957995D01*
X131236005Y-61957996D01*
X131289225Y-62031247D01*
X131342447Y-62104501D01*
X131470499Y-62232553D01*
X131617006Y-62338996D01*
X131778361Y-62421211D01*
X131950591Y-62477171D01*
X131950592Y-62477171D01*
X131950595Y-62477172D01*
X131954779Y-62477835D01*
X132025238Y-62509206D01*
X132070573Y-62571604D01*
X132078634Y-62648310D01*
X132047263Y-62718769D01*
X131984865Y-62764104D01*
X131954779Y-62772165D01*
X131950595Y-62772827D01*
X131778360Y-62828789D01*
X131617004Y-62911005D01*
X131617003Y-62911005D01*
X131470500Y-63017446D01*
X131470497Y-63017448D01*
X131342448Y-63145497D01*
X131342446Y-63145500D01*
X131236005Y-63292003D01*
X131236005Y-63292004D01*
X131153789Y-63453360D01*
X131098021Y-63625000D01*
X131097829Y-63625591D01*
X131069500Y-63804454D01*
X131069500Y-63985546D01*
X131097829Y-64164409D01*
X131153789Y-64336639D01*
X131235836Y-64497665D01*
X131236005Y-64497995D01*
X131236005Y-64497996D01*
X131279495Y-64557855D01*
X131342447Y-64644501D01*
X131470499Y-64772553D01*
X131617006Y-64878996D01*
X131778361Y-64961211D01*
X131950591Y-65017171D01*
X131950592Y-65017171D01*
X131950595Y-65017172D01*
X131954779Y-65017835D01*
X132025238Y-65049206D01*
X132070573Y-65111604D01*
X132078634Y-65188310D01*
X132047263Y-65258769D01*
X131984865Y-65304104D01*
X131954779Y-65312165D01*
X131950595Y-65312827D01*
X131778360Y-65368789D01*
X131617004Y-65451005D01*
X131617003Y-65451005D01*
X131470500Y-65557446D01*
X131470497Y-65557448D01*
X131342448Y-65685497D01*
X131342446Y-65685500D01*
X131236005Y-65832003D01*
X131236005Y-65832004D01*
X131153789Y-65993360D01*
X131134575Y-66052496D01*
X131097829Y-66165591D01*
X131069500Y-66344454D01*
X131069500Y-66525546D01*
X131097829Y-66704409D01*
X131153789Y-66876639D01*
X131236004Y-67037994D01*
X131342447Y-67184501D01*
X131470499Y-67312553D01*
X131617006Y-67418996D01*
X131778361Y-67501211D01*
X131950591Y-67557171D01*
X132129454Y-67585500D01*
X132129458Y-67585500D01*
X132310542Y-67585500D01*
X132310546Y-67585500D01*
X132489409Y-67557171D01*
X132661639Y-67501211D01*
X132822994Y-67418996D01*
X132969501Y-67312553D01*
X133097553Y-67184501D01*
X133203996Y-67037994D01*
X133286211Y-66876639D01*
X133342171Y-66704409D01*
X133370500Y-66525546D01*
X133370500Y-66344454D01*
X133342171Y-66165591D01*
X133286211Y-65993361D01*
X133203996Y-65832006D01*
X133097553Y-65685499D01*
X132969501Y-65557447D01*
X132822994Y-65451004D01*
X132661639Y-65368789D01*
X132489408Y-65312828D01*
X132485223Y-65312166D01*
X132414762Y-65280796D01*
X132369427Y-65218398D01*
X132361364Y-65141693D01*
X132392734Y-65071232D01*
X132455132Y-65025897D01*
X132485223Y-65017834D01*
X132485362Y-65017811D01*
X132489409Y-65017171D01*
X132661639Y-64961211D01*
X132822994Y-64878996D01*
X132969501Y-64772553D01*
X133097553Y-64644501D01*
X133197511Y-64506920D01*
X133257451Y-64458382D01*
X133318055Y-64445500D01*
X139855257Y-64445500D01*
X139929757Y-64465462D01*
X139960616Y-64489141D01*
X141370340Y-65898865D01*
X141495870Y-65971339D01*
X141635880Y-66008855D01*
X141635881Y-66008855D01*
X141780829Y-66008855D01*
X142756928Y-66008855D01*
X142831428Y-66028817D01*
X142862287Y-66052496D01*
X142967610Y-66157819D01*
X142967613Y-66157821D01*
X143115096Y-66256367D01*
X143115098Y-66256368D01*
X143278979Y-66324249D01*
X143452954Y-66358855D01*
X143630336Y-66358855D01*
X143804311Y-66324249D01*
X143968192Y-66256368D01*
X144115680Y-66157819D01*
X144241109Y-66032390D01*
X144339658Y-65884902D01*
X144407539Y-65721021D01*
X144442145Y-65547046D01*
X144442145Y-65369664D01*
X144407539Y-65195689D01*
X144339658Y-65031808D01*
X144335708Y-65025897D01*
X144241111Y-64884323D01*
X144241107Y-64884318D01*
X144115681Y-64758892D01*
X144115676Y-64758888D01*
X143968193Y-64660342D01*
X143968191Y-64660341D01*
X143956175Y-64655364D01*
X143894986Y-64608411D01*
X143865471Y-64537153D01*
X143875540Y-64460685D01*
X143922493Y-64399496D01*
X143984131Y-64371570D01*
X144012666Y-64365894D01*
X144176547Y-64298013D01*
X144324035Y-64199464D01*
X144449464Y-64074035D01*
X144548013Y-63926547D01*
X144615894Y-63762666D01*
X144650500Y-63588691D01*
X144650500Y-63411309D01*
X144615894Y-63237334D01*
X144548013Y-63073453D01*
X144510591Y-63017448D01*
X144449466Y-62925968D01*
X144449462Y-62925963D01*
X144324036Y-62800537D01*
X144324031Y-62800533D01*
X144176548Y-62701987D01*
X144176546Y-62701986D01*
X144012667Y-62634106D01*
X144012663Y-62634105D01*
X143838691Y-62599500D01*
X143689743Y-62599500D01*
X143620990Y-62582689D01*
X143600618Y-62572093D01*
X143588015Y-62559490D01*
X143462485Y-62487016D01*
X143425743Y-62477171D01*
X143410008Y-62472955D01*
X143410007Y-62472954D01*
X143322475Y-62449500D01*
X134154743Y-62449500D01*
X134080243Y-62429538D01*
X134049384Y-62405859D01*
X133385703Y-61742178D01*
X133347139Y-61675383D01*
X133343896Y-61613515D01*
X133370500Y-61445546D01*
X133370500Y-61264454D01*
X133342171Y-61085591D01*
X133286211Y-60913361D01*
X133203996Y-60752006D01*
X133097553Y-60605499D01*
X132969501Y-60477447D01*
X132822994Y-60371004D01*
X132661639Y-60288789D01*
X132647900Y-60284325D01*
X132561361Y-60256207D01*
X132496676Y-60214200D01*
X132461660Y-60145478D01*
X132465696Y-60068456D01*
X132507703Y-60003771D01*
X132576425Y-59968755D01*
X132607401Y-59965499D01*
X133114864Y-59965499D01*
X133114867Y-59965499D01*
X133129940Y-59963750D01*
X133139991Y-59962585D01*
X133242765Y-59917206D01*
X133322206Y-59837765D01*
X133367585Y-59734991D01*
X133370500Y-59709865D01*
X133370499Y-57920136D01*
X133367585Y-57895009D01*
X133322206Y-57792235D01*
X133242765Y-57712794D01*
X133242764Y-57712793D01*
X133139994Y-57667416D01*
X133139991Y-57667415D01*
X133139982Y-57667414D01*
X133114865Y-57664500D01*
X133114859Y-57664500D01*
X131325133Y-57664500D01*
X131300010Y-57667414D01*
X131300007Y-57667415D01*
X131197235Y-57712793D01*
X131117793Y-57792235D01*
X131072416Y-57895005D01*
X131072415Y-57895008D01*
X131072415Y-57895009D01*
X131069500Y-57920135D01*
X124915022Y-57920135D01*
X125018043Y-57741697D01*
X125118398Y-57499419D01*
X125186270Y-57246116D01*
X125220500Y-56986120D01*
X125220500Y-56723880D01*
X125186270Y-56463884D01*
X125118398Y-56210581D01*
X125018043Y-55968303D01*
X124886924Y-55741197D01*
X124886921Y-55741193D01*
X124886921Y-55741192D01*
X124727284Y-55533151D01*
X124541848Y-55347715D01*
X124333806Y-55188078D01*
X124106701Y-55056959D01*
X124106699Y-55056958D01*
X124106697Y-55056957D01*
X123998128Y-55011986D01*
X123864416Y-54956600D01*
X123638255Y-54896002D01*
X123611116Y-54888730D01*
X123611114Y-54888729D01*
X123611108Y-54888728D01*
X123351123Y-54854500D01*
X123351120Y-54854500D01*
X123088880Y-54854500D01*
X123088876Y-54854500D01*
X122828892Y-54888728D01*
X122828889Y-54888728D01*
X122575584Y-54956600D01*
X122575583Y-54956600D01*
X122333298Y-55056959D01*
X122106193Y-55188078D01*
X122106192Y-55188078D01*
X121898151Y-55347715D01*
X121898151Y-55347716D01*
X121898149Y-55347718D01*
X121712718Y-55533149D01*
X121712716Y-55533151D01*
X121712715Y-55533151D01*
X121553078Y-55741192D01*
X121553078Y-55741193D01*
X121421959Y-55968298D01*
X121321600Y-56210583D01*
X121321600Y-56210584D01*
X121253728Y-56463889D01*
X121253728Y-56463892D01*
X121219500Y-56723876D01*
X119720500Y-56723876D01*
X119720500Y-51460135D01*
X122069500Y-51460135D01*
X122069500Y-51460136D01*
X122069500Y-51460140D01*
X122069500Y-53249866D01*
X122072414Y-53274989D01*
X122072415Y-53274992D01*
X122117793Y-53377764D01*
X122117794Y-53377765D01*
X122197235Y-53457206D01*
X122300009Y-53502585D01*
X122325135Y-53505500D01*
X124114864Y-53505499D01*
X124114866Y-53505499D01*
X124127427Y-53504042D01*
X124139991Y-53502585D01*
X124242765Y-53457206D01*
X124322206Y-53377765D01*
X124367585Y-53274991D01*
X124370500Y-53249865D01*
X124370499Y-51460136D01*
X124367585Y-51435009D01*
X124322206Y-51332235D01*
X124242765Y-51252794D01*
X124242764Y-51252793D01*
X124139994Y-51207416D01*
X124139991Y-51207415D01*
X124139982Y-51207414D01*
X124114865Y-51204500D01*
X124114859Y-51204500D01*
X122325133Y-51204500D01*
X122300010Y-51207414D01*
X122300007Y-51207415D01*
X122197235Y-51252793D01*
X122117793Y-51332235D01*
X122072416Y-51435005D01*
X122072415Y-51435008D01*
X122072415Y-51435009D01*
X122069500Y-51460135D01*
X119720500Y-51460135D01*
X119720500Y-47184454D01*
X122069500Y-47184454D01*
X122069500Y-47365546D01*
X122097829Y-47544409D01*
X122153789Y-47716639D01*
X122236004Y-47877994D01*
X122342447Y-48024501D01*
X122470499Y-48152553D01*
X122617006Y-48258996D01*
X122778361Y-48341211D01*
X122950591Y-48397171D01*
X123129454Y-48425500D01*
X123129458Y-48425500D01*
X123310542Y-48425500D01*
X123310546Y-48425500D01*
X123489409Y-48397171D01*
X123661639Y-48341211D01*
X123822994Y-48258996D01*
X123969501Y-48152553D01*
X124097553Y-48024501D01*
X124203996Y-47877994D01*
X124286211Y-47716639D01*
X124342171Y-47544409D01*
X124370500Y-47365546D01*
X124370500Y-47184454D01*
X124342171Y-47005591D01*
X124286211Y-46833361D01*
X124203996Y-46672006D01*
X124097553Y-46525499D01*
X123969501Y-46397447D01*
X123896247Y-46344225D01*
X123822996Y-46291005D01*
X123822990Y-46291002D01*
X123798635Y-46278592D01*
X123798634Y-46278592D01*
X123661639Y-46208789D01*
X123489409Y-46152829D01*
X123472400Y-46150135D01*
X131069500Y-46150135D01*
X131069500Y-46150136D01*
X131069500Y-46150140D01*
X131069500Y-47939866D01*
X131072414Y-47964989D01*
X131072415Y-47964992D01*
X131117793Y-48067764D01*
X131117794Y-48067765D01*
X131197235Y-48147206D01*
X131300009Y-48192585D01*
X131325135Y-48195500D01*
X131832596Y-48195499D01*
X131907094Y-48215461D01*
X131961632Y-48269999D01*
X131981594Y-48344499D01*
X131961632Y-48418999D01*
X131907094Y-48473537D01*
X131878638Y-48486206D01*
X131778364Y-48518786D01*
X131778363Y-48518787D01*
X131617004Y-48601005D01*
X131617003Y-48601005D01*
X131470500Y-48707446D01*
X131470497Y-48707448D01*
X131342448Y-48835497D01*
X131342446Y-48835500D01*
X131236005Y-48982003D01*
X131236005Y-48982004D01*
X131153789Y-49143360D01*
X131153789Y-49143361D01*
X131097829Y-49315591D01*
X131069500Y-49494454D01*
X131069500Y-49675546D01*
X131097829Y-49854409D01*
X131153789Y-50026639D01*
X131236004Y-50187994D01*
X131342447Y-50334501D01*
X131470499Y-50462553D01*
X131617006Y-50568996D01*
X131778361Y-50651211D01*
X131950591Y-50707171D01*
X131950592Y-50707171D01*
X131950595Y-50707172D01*
X131954779Y-50707835D01*
X132025238Y-50739206D01*
X132070573Y-50801604D01*
X132078634Y-50878310D01*
X132047263Y-50948769D01*
X131984865Y-50994104D01*
X131954779Y-51002165D01*
X131950595Y-51002827D01*
X131778360Y-51058789D01*
X131617004Y-51141005D01*
X131617003Y-51141005D01*
X131470500Y-51247446D01*
X131470497Y-51247448D01*
X131342448Y-51375497D01*
X131342446Y-51375500D01*
X131236005Y-51522003D01*
X131236005Y-51522004D01*
X131153789Y-51683360D01*
X131097829Y-51855591D01*
X131069500Y-52034454D01*
X131069500Y-52215546D01*
X131097829Y-52394409D01*
X131153789Y-52566639D01*
X131236004Y-52727994D01*
X131342447Y-52874501D01*
X131470499Y-53002553D01*
X131617006Y-53108996D01*
X131778361Y-53191211D01*
X131950591Y-53247171D01*
X131950592Y-53247171D01*
X131950595Y-53247172D01*
X131954779Y-53247835D01*
X132025238Y-53279206D01*
X132070573Y-53341604D01*
X132078634Y-53418310D01*
X132047263Y-53488769D01*
X131984865Y-53534104D01*
X131954779Y-53542165D01*
X131950595Y-53542827D01*
X131778360Y-53598789D01*
X131617004Y-53681005D01*
X131617003Y-53681005D01*
X131470500Y-53787446D01*
X131470497Y-53787448D01*
X131342448Y-53915497D01*
X131342446Y-53915500D01*
X131236005Y-54062003D01*
X131236005Y-54062004D01*
X131153789Y-54223360D01*
X131097829Y-54395591D01*
X131069500Y-54574454D01*
X131069500Y-54755546D01*
X131097829Y-54934409D01*
X131153789Y-55106639D01*
X131236004Y-55267994D01*
X131342447Y-55414501D01*
X131470499Y-55542553D01*
X131617006Y-55648996D01*
X131778361Y-55731211D01*
X131950591Y-55787171D01*
X132129454Y-55815500D01*
X132129458Y-55815500D01*
X132310541Y-55815500D01*
X132310546Y-55815500D01*
X132478514Y-55788896D01*
X132555216Y-55796958D01*
X132607178Y-55830703D01*
X134905859Y-58129384D01*
X134944423Y-58196179D01*
X134949500Y-58234743D01*
X134949500Y-59215283D01*
X134929538Y-59289783D01*
X134905859Y-59320642D01*
X134800537Y-59425963D01*
X134800533Y-59425968D01*
X134701987Y-59573451D01*
X134701986Y-59573453D01*
X134634106Y-59737332D01*
X134634105Y-59737336D01*
X134599500Y-59911308D01*
X134599500Y-60088691D01*
X134634105Y-60262663D01*
X134634106Y-60262667D01*
X134701986Y-60426546D01*
X134701987Y-60426548D01*
X134735998Y-60477448D01*
X134800536Y-60574035D01*
X134925965Y-60699464D01*
X134925968Y-60699466D01*
X135073451Y-60798012D01*
X135073453Y-60798013D01*
X135237334Y-60865894D01*
X135411309Y-60900500D01*
X135560257Y-60900500D01*
X135634757Y-60920462D01*
X135665616Y-60944141D01*
X136712985Y-61991510D01*
X136838515Y-62063984D01*
X136978525Y-62101500D01*
X159591404Y-62101500D01*
X159731414Y-62063984D01*
X159856944Y-61991510D01*
X165118227Y-56730225D01*
X165185020Y-56691663D01*
X165194508Y-56689450D01*
X165262666Y-56675894D01*
X165426547Y-56608013D01*
X165574035Y-56509464D01*
X165699464Y-56384035D01*
X165798013Y-56236547D01*
X165865894Y-56072666D01*
X165900500Y-55898691D01*
X165900500Y-55721309D01*
X165865894Y-55547334D01*
X165798013Y-55383453D01*
X165774135Y-55347718D01*
X165699466Y-55235968D01*
X165699462Y-55235963D01*
X165574036Y-55110537D01*
X165574031Y-55110533D01*
X165426548Y-55011987D01*
X165426546Y-55011986D01*
X165262667Y-54944106D01*
X165262663Y-54944105D01*
X165088691Y-54909500D01*
X164911309Y-54909500D01*
X164737336Y-54944105D01*
X164737332Y-54944106D01*
X164573453Y-55011986D01*
X164573451Y-55011987D01*
X164425968Y-55110533D01*
X164425963Y-55110537D01*
X164300537Y-55235963D01*
X164300533Y-55235968D01*
X164201987Y-55383451D01*
X164201986Y-55383453D01*
X164134106Y-55547332D01*
X164134105Y-55547336D01*
X164099500Y-55721308D01*
X164099500Y-55898691D01*
X164132609Y-56065144D01*
X164127564Y-56142107D01*
X164091831Y-56199571D01*
X163595628Y-56695775D01*
X163528833Y-56734339D01*
X163451705Y-56734339D01*
X163384910Y-56695775D01*
X163352611Y-56647435D01*
X163298013Y-56515622D01*
X163298012Y-56515620D01*
X163199466Y-56368137D01*
X163199462Y-56368132D01*
X163074036Y-56242706D01*
X163074031Y-56242702D01*
X162926548Y-56144156D01*
X162926546Y-56144155D01*
X162762667Y-56076275D01*
X162762663Y-56076274D01*
X162588691Y-56041669D01*
X162411309Y-56041669D01*
X162237336Y-56076274D01*
X162237332Y-56076275D01*
X162073453Y-56144155D01*
X162073451Y-56144156D01*
X161925968Y-56242702D01*
X161925963Y-56242706D01*
X161800537Y-56368132D01*
X161800533Y-56368137D01*
X161701987Y-56515620D01*
X161701986Y-56515622D01*
X161634106Y-56679501D01*
X161634105Y-56679505D01*
X161599500Y-56853477D01*
X161599500Y-57002425D01*
X161579538Y-57076925D01*
X161555859Y-57107784D01*
X158757785Y-59905859D01*
X158690990Y-59944423D01*
X158652426Y-59949500D01*
X143280378Y-59949500D01*
X143205878Y-59929538D01*
X143151340Y-59875000D01*
X143134241Y-59829569D01*
X143115894Y-59737334D01*
X143115893Y-59737332D01*
X143114923Y-59734991D01*
X143048013Y-59573453D01*
X142949464Y-59425965D01*
X142824035Y-59300536D01*
X142824031Y-59300533D01*
X142676548Y-59201987D01*
X142676546Y-59201986D01*
X142512667Y-59134106D01*
X142512663Y-59134105D01*
X142338691Y-59099500D01*
X142161309Y-59099500D01*
X141987336Y-59134105D01*
X141987332Y-59134106D01*
X141938102Y-59154498D01*
X141861634Y-59164565D01*
X141790377Y-59135049D01*
X141775724Y-59122199D01*
X141713015Y-59059490D01*
X141587485Y-58987016D01*
X141447475Y-58949500D01*
X139884743Y-58949500D01*
X139810243Y-58929538D01*
X139779384Y-58905859D01*
X133385703Y-52512178D01*
X133347139Y-52445383D01*
X133343896Y-52383515D01*
X133370500Y-52215546D01*
X133370500Y-52034454D01*
X133344296Y-51869010D01*
X133352358Y-51792308D01*
X133397693Y-51729910D01*
X133468153Y-51698539D01*
X133544859Y-51706601D01*
X133596821Y-51740346D01*
X136336985Y-54480510D01*
X136462515Y-54552984D01*
X136602525Y-54590500D01*
X140250257Y-54590500D01*
X140324757Y-54610462D01*
X140355616Y-54634141D01*
X141161985Y-55440510D01*
X141212212Y-55469508D01*
X141261600Y-55515764D01*
X141282695Y-55547334D01*
X141300536Y-55574035D01*
X141425965Y-55699464D01*
X141425968Y-55699466D01*
X141573451Y-55798012D01*
X141573453Y-55798013D01*
X141737334Y-55865894D01*
X141911309Y-55900500D01*
X142088691Y-55900500D01*
X142262666Y-55865894D01*
X142426547Y-55798013D01*
X142574035Y-55699464D01*
X142699464Y-55574035D01*
X142798013Y-55426547D01*
X142865894Y-55262666D01*
X142900500Y-55088691D01*
X142900500Y-54911309D01*
X142865894Y-54737334D01*
X142798013Y-54573453D01*
X142735909Y-54480509D01*
X142699466Y-54425968D01*
X142699462Y-54425963D01*
X142574036Y-54300537D01*
X142574031Y-54300533D01*
X142426548Y-54201987D01*
X142426546Y-54201986D01*
X142262667Y-54134106D01*
X142262663Y-54134105D01*
X142088691Y-54099500D01*
X141911309Y-54099500D01*
X141737338Y-54134104D01*
X141599713Y-54191110D01*
X141523244Y-54201176D01*
X141451988Y-54171660D01*
X141437335Y-54158810D01*
X140878015Y-53599490D01*
X140779874Y-53542829D01*
X140752485Y-53527016D01*
X140661308Y-53502585D01*
X140661306Y-53502584D01*
X140661304Y-53502583D01*
X140612477Y-53489500D01*
X140612475Y-53489500D01*
X136964743Y-53489500D01*
X136890243Y-53469538D01*
X136859384Y-53445859D01*
X133385703Y-49972178D01*
X133347139Y-49905383D01*
X133343896Y-49843515D01*
X133370500Y-49675546D01*
X133370500Y-49494454D01*
X133342171Y-49315591D01*
X133286211Y-49143361D01*
X133203996Y-48982006D01*
X133097553Y-48835499D01*
X132969501Y-48707447D01*
X132822994Y-48601004D01*
X132661639Y-48518789D01*
X132661630Y-48518786D01*
X132561361Y-48486207D01*
X132496676Y-48444200D01*
X132461660Y-48375478D01*
X132465696Y-48298456D01*
X132507703Y-48233771D01*
X132576425Y-48198755D01*
X132607401Y-48195499D01*
X133114864Y-48195499D01*
X133114867Y-48195499D01*
X133129940Y-48193750D01*
X133139991Y-48192585D01*
X133242765Y-48147206D01*
X133322206Y-48067765D01*
X133367585Y-47964991D01*
X133370500Y-47939865D01*
X133370499Y-46150136D01*
X133367585Y-46125009D01*
X133322206Y-46022235D01*
X133242765Y-45942794D01*
X133242764Y-45942793D01*
X133139994Y-45897416D01*
X133139991Y-45897415D01*
X133139982Y-45897414D01*
X133114865Y-45894500D01*
X133114859Y-45894500D01*
X131325133Y-45894500D01*
X131300010Y-45897414D01*
X131300007Y-45897415D01*
X131197235Y-45942793D01*
X131117793Y-46022235D01*
X131072416Y-46125005D01*
X131072415Y-46125008D01*
X131072415Y-46125009D01*
X131069500Y-46150135D01*
X123472400Y-46150135D01*
X123310546Y-46124500D01*
X123129454Y-46124500D01*
X122967594Y-46150136D01*
X122950591Y-46152829D01*
X122778360Y-46208789D01*
X122617004Y-46291005D01*
X122617003Y-46291005D01*
X122470500Y-46397446D01*
X122470497Y-46397448D01*
X122342448Y-46525497D01*
X122342446Y-46525500D01*
X122236005Y-46672003D01*
X122236005Y-46672004D01*
X122153789Y-46833360D01*
X122153789Y-46833361D01*
X122097829Y-47005591D01*
X122069500Y-47184454D01*
X119720500Y-47184454D01*
X119720500Y-43004500D01*
X119740462Y-42930000D01*
X119795000Y-42875462D01*
X119869500Y-42855500D01*
X166070500Y-42855500D01*
X166145000Y-42875462D01*
G37*
%TD.AperFunction*%
%TD*%
M02*
