%TF.GenerationSoftware,KiCad,Pcbnew,9.0.1*%
%TF.CreationDate,2025-04-11T16:34:43+02:00*%
%TF.ProjectId,Driver_CMS,44726976-6572-45f4-934d-532e6b696361,rev?*%
%TF.SameCoordinates,Original*%
%TF.FileFunction,Legend,Bot*%
%TF.FilePolarity,Positive*%
%FSLAX46Y46*%
G04 Gerber Fmt 4.6, Leading zero omitted, Abs format (unit mm)*
G04 Created by KiCad (PCBNEW 9.0.1) date 2025-04-11 16:34:43*
%MOMM*%
%LPD*%
G01*
G04 APERTURE LIST*
%ADD10C,0.100000*%
G04 APERTURE END LIST*
D10*
G36*
X161527923Y-64663094D02*
G01*
X161932201Y-64755420D01*
X162311615Y-64907812D01*
X162670559Y-65122319D01*
X163012219Y-65403770D01*
X163315124Y-65740423D01*
X163546913Y-66102906D01*
X163712663Y-66495124D01*
X163813949Y-66922732D01*
X163848750Y-67392822D01*
X163811896Y-67871432D01*
X163704874Y-68303597D01*
X163529907Y-68697278D01*
X163285045Y-69058693D01*
X162964286Y-69391950D01*
X162624194Y-69651506D01*
X162271296Y-69849245D01*
X161902795Y-69989421D01*
X161514995Y-70074024D01*
X161103461Y-70102697D01*
X160703868Y-70075715D01*
X160328614Y-69996262D01*
X159973486Y-69864995D01*
X159634951Y-69680462D01*
X159221875Y-70102697D01*
X158222311Y-70102697D01*
X159092121Y-69253953D01*
X158814870Y-68917857D01*
X158605185Y-68570899D01*
X158457439Y-68210264D01*
X158368653Y-67832078D01*
X158338632Y-67431596D01*
X158342139Y-67377252D01*
X159139748Y-67377252D01*
X159172696Y-67757955D01*
X159268184Y-68097512D01*
X159424675Y-68403676D01*
X159645331Y-68682119D01*
X160410422Y-67918555D01*
X161438684Y-67918555D01*
X160198846Y-69123893D01*
X160484761Y-69254154D01*
X160793794Y-69333175D01*
X161131243Y-69360198D01*
X161498237Y-69325428D01*
X161841498Y-69222365D01*
X162167430Y-69049023D01*
X162480685Y-68798440D01*
X162683974Y-68569315D01*
X162840801Y-68318429D01*
X162953889Y-68042681D01*
X163023545Y-67737688D01*
X163047634Y-67398012D01*
X163011291Y-66967456D01*
X162906615Y-66588364D01*
X162736290Y-66251394D01*
X162497782Y-65949652D01*
X162267078Y-65742498D01*
X162015901Y-65583216D01*
X161741290Y-65468729D01*
X161439009Y-65398417D01*
X161103766Y-65374155D01*
X160695766Y-65411363D01*
X160331762Y-65519386D01*
X160003014Y-65697153D01*
X159703339Y-65949347D01*
X159457098Y-66253784D01*
X159282731Y-66588659D01*
X159176425Y-66960255D01*
X159139748Y-67377252D01*
X158342139Y-67377252D01*
X158366612Y-66997979D01*
X158447904Y-66602698D01*
X158580202Y-66240191D01*
X158763485Y-65905809D01*
X159000016Y-65596008D01*
X159294232Y-65308515D01*
X159626806Y-65060969D01*
X159970027Y-64872547D01*
X160326497Y-64739170D01*
X160699606Y-64658827D01*
X161093386Y-64631657D01*
X161527923Y-64663094D01*
G37*
G36*
X157361660Y-69620622D02*
G01*
X157326700Y-69441362D01*
X157220610Y-69286620D01*
X157065120Y-69180438D01*
X156882944Y-69145265D01*
X156700821Y-69180448D01*
X156545584Y-69286620D01*
X156439412Y-69441857D01*
X156404228Y-69623981D01*
X156439556Y-69809045D01*
X156545584Y-69965005D01*
X156698225Y-70068051D01*
X156882944Y-70102697D01*
X157070818Y-70067888D01*
X157223968Y-69965005D01*
X157326705Y-69811388D01*
X157361660Y-69620622D01*
G37*
G36*
X152467034Y-67269480D02*
G01*
X150278618Y-67269480D01*
X150278618Y-67442892D01*
X150295389Y-67836013D01*
X150343166Y-68183440D01*
X150418752Y-68490389D01*
X150528861Y-68761601D01*
X150681576Y-69024060D01*
X150880371Y-69279598D01*
X151193093Y-69578155D01*
X151531689Y-69806068D01*
X151899961Y-69968887D01*
X152303642Y-70068435D01*
X152750050Y-70102697D01*
X153184434Y-70070128D01*
X153586085Y-69974657D01*
X153960902Y-69817209D01*
X154313610Y-69595474D01*
X154647512Y-69304023D01*
X154934903Y-68966024D01*
X155154083Y-68608536D01*
X155310023Y-68228211D01*
X155404707Y-67820337D01*
X155437027Y-67379084D01*
X155403928Y-66927876D01*
X155307211Y-66513345D01*
X155148330Y-66129240D01*
X154925496Y-65770535D01*
X154633773Y-65433689D01*
X154295267Y-65142567D01*
X153934761Y-64920070D01*
X153548700Y-64761364D01*
X153132060Y-64664729D01*
X152678609Y-64631657D01*
X152271918Y-64660062D01*
X151888280Y-64743915D01*
X151523340Y-64882922D01*
X151198886Y-65074456D01*
X150863715Y-65342072D01*
X150515228Y-65698082D01*
X151084619Y-66246102D01*
X151369678Y-65918271D01*
X151666792Y-65675999D01*
X151978432Y-65508116D01*
X152309258Y-65408028D01*
X152665786Y-65374155D01*
X152995665Y-65398188D01*
X153296667Y-65468201D01*
X153573568Y-65582835D01*
X153830203Y-65743115D01*
X154069267Y-65952400D01*
X154316600Y-66253444D01*
X154491889Y-66586265D01*
X154598918Y-66957352D01*
X154635910Y-67375725D01*
X154609543Y-67723495D01*
X154532977Y-68037768D01*
X154407872Y-68324200D01*
X154232982Y-68587244D01*
X154004237Y-68829886D01*
X153691786Y-69068887D01*
X153377173Y-69232367D01*
X153056295Y-69328270D01*
X152723794Y-69360198D01*
X152437618Y-69335538D01*
X152169011Y-69262545D01*
X151913688Y-69140431D01*
X151668360Y-68965441D01*
X151455415Y-68750363D01*
X151300906Y-68521936D01*
X151198683Y-68277316D01*
X151146290Y-68011978D01*
X152467034Y-68011978D01*
X152467034Y-67269480D01*
G37*
M02*
