%TF.GenerationSoftware,KiCad,Pcbnew,9.0.1*%
%TF.CreationDate,2025-04-11T16:24:36+02:00*%
%TF.ProjectId,Alimentation_DC_DC,416c696d-656e-4746-9174-696f6e5f4443,rev?*%
%TF.SameCoordinates,Original*%
%TF.FileFunction,Copper,L1,Top*%
%TF.FilePolarity,Positive*%
%FSLAX46Y46*%
G04 Gerber Fmt 4.6, Leading zero omitted, Abs format (unit mm)*
G04 Created by KiCad (PCBNEW 9.0.1) date 2025-04-11 16:24:36*
%MOMM*%
%LPD*%
G01*
G04 APERTURE LIST*
G04 Aperture macros list*
%AMRoundRect*
0 Rectangle with rounded corners*
0 $1 Rounding radius*
0 $2 $3 $4 $5 $6 $7 $8 $9 X,Y pos of 4 corners*
0 Add a 4 corners polygon primitive as box body*
4,1,4,$2,$3,$4,$5,$6,$7,$8,$9,$2,$3,0*
0 Add four circle primitives for the rounded corners*
1,1,$1+$1,$2,$3*
1,1,$1+$1,$4,$5*
1,1,$1+$1,$6,$7*
1,1,$1+$1,$8,$9*
0 Add four rect primitives between the rounded corners*
20,1,$1+$1,$2,$3,$4,$5,0*
20,1,$1+$1,$4,$5,$6,$7,0*
20,1,$1+$1,$6,$7,$8,$9,0*
20,1,$1+$1,$8,$9,$2,$3,0*%
%AMOutline4P*
0 Free polygon, 4 corners , with rotation*
0 The origin of the aperture is its center*
0 number of corners: always 4*
0 $1 to $8 corner X, Y*
0 $9 Rotation angle, in degrees counterclockwise*
0 create outline with 4 corners*
4,1,4,$1,$2,$3,$4,$5,$6,$7,$8,$1,$2,$9*%
G04 Aperture macros list end*
%TA.AperFunction,ComponentPad*%
%ADD10R,1.700000X1.700000*%
%TD*%
%TA.AperFunction,ComponentPad*%
%ADD11C,1.700000*%
%TD*%
%TA.AperFunction,SMDPad,CuDef*%
%ADD12RoundRect,0.250000X0.300000X-2.050000X0.300000X2.050000X-0.300000X2.050000X-0.300000X-2.050000X0*%
%TD*%
%TA.AperFunction,SMDPad,CuDef*%
%ADD13RoundRect,0.250002X5.149998X-4.449998X5.149998X4.449998X-5.149998X4.449998X-5.149998X-4.449998X0*%
%TD*%
%TA.AperFunction,SMDPad,CuDef*%
%ADD14RoundRect,0.200000X-0.200000X-0.275000X0.200000X-0.275000X0.200000X0.275000X-0.200000X0.275000X0*%
%TD*%
%TA.AperFunction,SMDPad,CuDef*%
%ADD15RoundRect,0.200000X-0.275000X0.200000X-0.275000X-0.200000X0.275000X-0.200000X0.275000X0.200000X0*%
%TD*%
%TA.AperFunction,SMDPad,CuDef*%
%ADD16R,2.800000X5.300000*%
%TD*%
%TA.AperFunction,ComponentPad*%
%ADD17RoundRect,1.500000X1.500000X-1.500000X1.500000X1.500000X-1.500000X1.500000X-1.500000X-1.500000X0*%
%TD*%
%TA.AperFunction,ComponentPad*%
%ADD18C,6.000000*%
%TD*%
%TA.AperFunction,SMDPad,CuDef*%
%ADD19Outline4P,-2.150000X-1.800000X2.150000X-0.800000X2.150000X0.800000X-2.150000X1.800000X0.000000*%
%TD*%
%TA.AperFunction,SMDPad,CuDef*%
%ADD20Outline4P,-2.150000X-1.800000X2.150000X-0.800000X2.150000X0.800000X-2.150000X1.800000X180.000000*%
%TD*%
%TA.AperFunction,SMDPad,CuDef*%
%ADD21RoundRect,0.225000X0.250000X-0.225000X0.250000X0.225000X-0.250000X0.225000X-0.250000X-0.225000X0*%
%TD*%
%TA.AperFunction,SMDPad,CuDef*%
%ADD22RoundRect,0.250000X-0.550000X1.412500X-0.550000X-1.412500X0.550000X-1.412500X0.550000X1.412500X0*%
%TD*%
%TA.AperFunction,SMDPad,CuDef*%
%ADD23RoundRect,0.250000X-1.950000X-1.000000X1.950000X-1.000000X1.950000X1.000000X-1.950000X1.000000X0*%
%TD*%
%TA.AperFunction,Conductor*%
%ADD24C,0.600000*%
%TD*%
G04 APERTURE END LIST*
D10*
%TO.P,J8,1,Pin_1*%
%TO.N,Net-(J1-Pin_1)*%
X133750000Y-66975000D03*
D11*
%TO.P,J8,2,Pin_2*%
%TO.N,GND*%
X133750000Y-69515000D03*
%TD*%
D12*
%TO.P,U1,1,VIN*%
%TO.N,Net-(J1-Pin_1)*%
X146075000Y-78475000D03*
%TO.P,U1,2,OUT*%
%TO.N,Net-(D1-K)*%
X147775000Y-78475000D03*
%TO.P,U1,3,GND*%
%TO.N,GND*%
X149475000Y-78475000D03*
D13*
X149475000Y-69325000D03*
D12*
%TO.P,U1,4,FB*%
%TO.N,Net-(U1-FB)*%
X151175000Y-78475000D03*
%TO.P,U1,5,~{ON}/OFF*%
%TO.N,GND*%
X152875000Y-78475000D03*
%TD*%
D14*
%TO.P,R2,1*%
%TO.N,Net-(U1-FB)*%
X169925000Y-75500000D03*
%TO.P,R2,2*%
%TO.N,GND*%
X171575000Y-75500000D03*
%TD*%
D15*
%TO.P,R1,1*%
%TO.N,Net-(U1-FB)*%
X171500000Y-77925000D03*
%TO.P,R1,2*%
%TO.N,Net-(J2-Pin_1)*%
X171500000Y-79575000D03*
%TD*%
D16*
%TO.P,L1,1,1*%
%TO.N,Net-(D1-K)*%
X157700000Y-83000000D03*
%TO.P,L1,2,2*%
%TO.N,Net-(J2-Pin_1)*%
X167800000Y-83000000D03*
%TD*%
D10*
%TO.P,J7,1,Pin_1*%
%TO.N,Net-(J2-Pin_1)*%
X182340000Y-66960000D03*
D11*
%TO.P,J7,2,Pin_2*%
%TO.N,GND*%
X182340000Y-69500000D03*
%TO.P,J7,3,Pin_3*%
%TO.N,Net-(J2-Pin_1)*%
X182340000Y-72040000D03*
%TD*%
D10*
%TO.P,J6,1,Pin_1*%
%TO.N,Net-(J2-Pin_1)*%
X177750000Y-66960000D03*
D11*
%TO.P,J6,2,Pin_2*%
%TO.N,GND*%
X177750000Y-69500000D03*
%TO.P,J6,3,Pin_3*%
%TO.N,Net-(J2-Pin_1)*%
X177750000Y-72040000D03*
%TD*%
D10*
%TO.P,J5,1,Pin_1*%
%TO.N,Net-(J2-Pin_1)*%
X173160000Y-66960000D03*
D11*
%TO.P,J5,2,Pin_2*%
%TO.N,GND*%
X173160000Y-69500000D03*
%TO.P,J5,3,Pin_3*%
%TO.N,Net-(J2-Pin_1)*%
X173160000Y-72040000D03*
%TD*%
D10*
%TO.P,J4,1,Pin_1*%
%TO.N,Net-(J2-Pin_1)*%
X168570000Y-66960000D03*
D11*
%TO.P,J4,2,Pin_2*%
%TO.N,GND*%
X168570000Y-69500000D03*
%TO.P,J4,3,Pin_3*%
%TO.N,Net-(J2-Pin_1)*%
X168570000Y-72040000D03*
%TD*%
D10*
%TO.P,J3,1,Pin_1*%
%TO.N,Net-(J2-Pin_1)*%
X163980000Y-66960000D03*
D11*
%TO.P,J3,2,Pin_2*%
%TO.N,GND*%
X163980000Y-69500000D03*
%TO.P,J3,3,Pin_3*%
%TO.N,Net-(J2-Pin_1)*%
X163980000Y-72040000D03*
%TD*%
D10*
%TO.P,J2,1,Pin_1*%
%TO.N,Net-(J2-Pin_1)*%
X159390000Y-66960000D03*
D11*
%TO.P,J2,2,Pin_2*%
%TO.N,GND*%
X159390000Y-69500000D03*
%TO.P,J2,3,Pin_3*%
%TO.N,Net-(J2-Pin_1)*%
X159390000Y-72040000D03*
%TD*%
D17*
%TO.P,J1,1,Pin_1*%
%TO.N,Net-(J1-Pin_1)*%
X137500000Y-84850000D03*
D18*
%TO.P,J1,2,Pin_2*%
%TO.N,GND*%
X137500000Y-77650000D03*
%TD*%
D19*
%TO.P,D1,1,K*%
%TO.N,Net-(D1-K)*%
X145800000Y-86250000D03*
D20*
%TO.P,D1,2,A*%
%TO.N,GND*%
X152200000Y-86250000D03*
%TD*%
D21*
%TO.P,C3,1*%
%TO.N,Net-(J2-Pin_1)*%
X171500000Y-83100000D03*
%TO.P,C3,2*%
%TO.N,Net-(U1-FB)*%
X171500000Y-81550000D03*
%TD*%
D22*
%TO.P,C2,1*%
%TO.N,Net-(J1-Pin_1)*%
X139500000Y-65212500D03*
%TO.P,C2,2*%
%TO.N,GND*%
X139500000Y-70287500D03*
%TD*%
D23*
%TO.P,C1,1*%
%TO.N,Net-(J2-Pin_1)*%
X175300000Y-83000000D03*
%TO.P,C1,2*%
%TO.N,GND*%
X183700000Y-83000000D03*
%TD*%
D24*
%TO.N,Net-(J1-Pin_1)*%
X137500000Y-84850000D02*
X131750000Y-79100000D01*
X131750000Y-79100000D02*
X131750000Y-68975000D01*
X131750000Y-68975000D02*
X133750000Y-66975000D01*
%TO.N,GND*%
X156750000Y-69500000D02*
X156750000Y-73250000D01*
X156750000Y-73250000D02*
X157250000Y-73750000D01*
X157250000Y-73750000D02*
X169825000Y-73750000D01*
X169825000Y-73750000D02*
X171575000Y-75500000D01*
X182340000Y-69500000D02*
X156750000Y-69500000D01*
%TO.N,Net-(J2-Pin_1)*%
X182340000Y-72040000D02*
X184510000Y-69870000D01*
X184510000Y-69870000D02*
X184510000Y-69130000D01*
X184510000Y-69130000D02*
X182340000Y-66960000D01*
%TO.N,Net-(U1-FB)*%
X151175000Y-78475000D02*
X151175000Y-76175000D01*
X151175000Y-76175000D02*
X152350000Y-75000000D01*
X152350000Y-75000000D02*
X169425000Y-75000000D01*
X169425000Y-75000000D02*
X169925000Y-75500000D01*
%TO.N,GND*%
X149475000Y-78475000D02*
X149475000Y-69325000D01*
%TO.N,Net-(U1-FB)*%
X171500000Y-81550000D02*
X169925000Y-79975000D01*
X169925000Y-79975000D02*
X169925000Y-75500000D01*
X169925000Y-75500000D02*
X169925000Y-76350000D01*
X169925000Y-76350000D02*
X171500000Y-77925000D01*
%TO.N,Net-(J2-Pin_1)*%
X175300000Y-83000000D02*
X173160000Y-80860000D01*
X173160000Y-80860000D02*
X173160000Y-77915000D01*
%TO.N,GND*%
X156750000Y-69500000D02*
X140287500Y-69500000D01*
X140287500Y-69500000D02*
X139500000Y-70287500D01*
X133750000Y-69515000D02*
X138727500Y-69515000D01*
X138727500Y-69515000D02*
X139500000Y-70287500D01*
X137500000Y-77650000D02*
X137500000Y-72287500D01*
X137500000Y-72287500D02*
X139500000Y-70287500D01*
%TO.N,Net-(J1-Pin_1)*%
X133750000Y-66975000D02*
X137737500Y-66975000D01*
X137737500Y-66975000D02*
X139500000Y-65212500D01*
%TO.N,Net-(J2-Pin_1)*%
X159390000Y-66960000D02*
X182340000Y-66960000D01*
X159390000Y-72040000D02*
X182340000Y-72040000D01*
X173160000Y-72040000D02*
X173160000Y-77915000D01*
X173160000Y-77915000D02*
X171500000Y-79575000D01*
X175300000Y-83000000D02*
X171600000Y-83000000D01*
X171600000Y-83000000D02*
X171500000Y-83100000D01*
X167800000Y-83000000D02*
X171400000Y-83000000D01*
X171400000Y-83000000D02*
X171500000Y-83100000D01*
%TO.N,Net-(D1-K)*%
X147775000Y-84275000D02*
X149050000Y-83000000D01*
X149050000Y-83000000D02*
X157700000Y-83000000D01*
X145800000Y-86250000D02*
X147775000Y-84275000D01*
X147775000Y-84275000D02*
X147775000Y-78475000D01*
%TO.N,Net-(J1-Pin_1)*%
X137500000Y-84850000D02*
X139700000Y-84850000D01*
X139700000Y-84850000D02*
X146075000Y-78475000D01*
%TD*%
%TA.AperFunction,Conductor*%
%TO.N,GND*%
G36*
X186386843Y-63020207D02*
G01*
X186456084Y-63075426D01*
X186494511Y-63155218D01*
X186499500Y-63199500D01*
X186499500Y-80703999D01*
X186479793Y-80790342D01*
X186424574Y-80859583D01*
X186344782Y-80898010D01*
X186256218Y-80898010D01*
X186218202Y-80885184D01*
X186064516Y-80815376D01*
X186064509Y-80815374D01*
X185846338Y-80760401D01*
X185714183Y-80750000D01*
X184950000Y-80750000D01*
X184950000Y-85249999D01*
X185714183Y-85249999D01*
X185846331Y-85239599D01*
X186064515Y-85184623D01*
X186218201Y-85114815D01*
X186304964Y-85097050D01*
X186390843Y-85118689D01*
X186458829Y-85175447D01*
X186495455Y-85256082D01*
X186499500Y-85296000D01*
X186499500Y-89550500D01*
X186479793Y-89636843D01*
X186424574Y-89706084D01*
X186344782Y-89744511D01*
X186300500Y-89749500D01*
X131449500Y-89749500D01*
X131363157Y-89729793D01*
X131293916Y-89674574D01*
X131255489Y-89594782D01*
X131250500Y-89550500D01*
X131250500Y-88879009D01*
X153500000Y-88879009D01*
X154176123Y-89036248D01*
X154311572Y-89054421D01*
X154514540Y-89041597D01*
X154710780Y-88988177D01*
X154710789Y-88988174D01*
X154892252Y-88896347D01*
X154892254Y-88896345D01*
X155051521Y-88769867D01*
X155051522Y-88769865D01*
X155182063Y-88613922D01*
X155182069Y-88613914D01*
X155278550Y-88434880D01*
X155278555Y-88434869D01*
X155337019Y-88240087D01*
X155349999Y-88104053D01*
X155350000Y-88104051D01*
X155350000Y-87550000D01*
X153500000Y-87550000D01*
X153500000Y-88879009D01*
X131250500Y-88879009D01*
X131250500Y-80213006D01*
X131270207Y-80126663D01*
X131325426Y-80057422D01*
X131405218Y-80018995D01*
X131493782Y-80018995D01*
X131573574Y-80057422D01*
X131590214Y-80072292D01*
X134046932Y-82529010D01*
X134094051Y-82603998D01*
X134103967Y-82692005D01*
X134092671Y-82739266D01*
X134075631Y-82784951D01*
X134075628Y-82784962D01*
X134014804Y-83064570D01*
X133999500Y-83278551D01*
X133999500Y-86421448D01*
X134014803Y-86635427D01*
X134075631Y-86915048D01*
X134175633Y-87183161D01*
X134312771Y-87434311D01*
X134312774Y-87434315D01*
X134484261Y-87663395D01*
X134484265Y-87663399D01*
X134484268Y-87663403D01*
X134686596Y-87865731D01*
X134686599Y-87865733D01*
X134686605Y-87865739D01*
X134837306Y-87978552D01*
X134915688Y-88037228D01*
X135027088Y-88098057D01*
X135166839Y-88174367D01*
X135434954Y-88274369D01*
X135714572Y-88335196D01*
X135928552Y-88350500D01*
X135928564Y-88350500D01*
X139071436Y-88350500D01*
X139071448Y-88350500D01*
X139285428Y-88335196D01*
X139565046Y-88274369D01*
X139833161Y-88174367D01*
X140084315Y-88037226D01*
X140313395Y-87865739D01*
X140515739Y-87663395D01*
X140687226Y-87434315D01*
X140824367Y-87183161D01*
X140924369Y-86915046D01*
X140985196Y-86635428D01*
X141000500Y-86421448D01*
X141000500Y-84764005D01*
X141020207Y-84677662D01*
X141058783Y-84623294D01*
X144815919Y-80866157D01*
X144890905Y-80819040D01*
X144978912Y-80809124D01*
X145062505Y-80838375D01*
X145125129Y-80900999D01*
X145125967Y-80902345D01*
X145182288Y-80993656D01*
X145306344Y-81117712D01*
X145455666Y-81209814D01*
X145622203Y-81264999D01*
X145724991Y-81275500D01*
X146425008Y-81275499D01*
X146527797Y-81264999D01*
X146694334Y-81209814D01*
X146694336Y-81209812D01*
X146705335Y-81206168D01*
X146705958Y-81208050D01*
X146777970Y-81192552D01*
X146864061Y-81213330D01*
X146932612Y-81269403D01*
X146970045Y-81349666D01*
X146974500Y-81391537D01*
X146974500Y-83860993D01*
X146954793Y-83947336D01*
X146916214Y-84001707D01*
X146431288Y-84486632D01*
X146356299Y-84533751D01*
X146268293Y-84543667D01*
X146245498Y-84539746D01*
X143868706Y-83987005D01*
X143709520Y-83949985D01*
X143709519Y-83949984D01*
X143709511Y-83949983D01*
X143709509Y-83949982D01*
X143671662Y-83944816D01*
X143528458Y-83959177D01*
X143395097Y-84013304D01*
X143395095Y-84013305D01*
X143282393Y-84102803D01*
X143282391Y-84102805D01*
X143199469Y-84220433D01*
X143199468Y-84220435D01*
X143199467Y-84220437D01*
X143176254Y-84288551D01*
X143153041Y-84356668D01*
X143149500Y-84394714D01*
X143149500Y-88105291D01*
X143153041Y-88143331D01*
X143153043Y-88143340D01*
X143186014Y-88240087D01*
X143199467Y-88279563D01*
X143282393Y-88397194D01*
X143329835Y-88434869D01*
X143395099Y-88486698D01*
X143528451Y-88540819D01*
X143528456Y-88540821D01*
X143671660Y-88555183D01*
X143671661Y-88555182D01*
X143671664Y-88555183D01*
X143709500Y-88550018D01*
X143709503Y-88550017D01*
X143709512Y-88550016D01*
X148009580Y-87550000D01*
X149182272Y-87550000D01*
X149203652Y-87592249D01*
X149330134Y-87751522D01*
X149486077Y-87882063D01*
X149486085Y-87882069D01*
X149665123Y-87978552D01*
X149762537Y-88009834D01*
X150900000Y-88274359D01*
X150900000Y-87550000D01*
X149182272Y-87550000D01*
X148009580Y-87550000D01*
X148104472Y-87527932D01*
X148154107Y-87509821D01*
X148179561Y-87500534D01*
X148179561Y-87500533D01*
X148179563Y-87500533D01*
X148297194Y-87417608D01*
X148386697Y-87304901D01*
X148440822Y-87171544D01*
X148450500Y-87092198D01*
X148450500Y-85407803D01*
X148440821Y-85328456D01*
X148440820Y-85328454D01*
X148440820Y-85328452D01*
X148386697Y-85195098D01*
X148346986Y-85145094D01*
X148320138Y-85111285D01*
X148315337Y-85101264D01*
X148307479Y-85093406D01*
X148296387Y-85061708D01*
X148281875Y-85031416D01*
X148281897Y-85020300D01*
X148278228Y-85009813D01*
X148281987Y-84976441D01*
X148282056Y-84942853D01*
X148286897Y-84932851D01*
X148288142Y-84921807D01*
X148306010Y-84893369D01*
X148320645Y-84863139D01*
X148335253Y-84846823D01*
X148396789Y-84785289D01*
X148396789Y-84785288D01*
X149323291Y-83858786D01*
X149398280Y-83811667D01*
X149464005Y-83800500D01*
X150993863Y-83800500D01*
X151080206Y-83820207D01*
X151149447Y-83875426D01*
X151187874Y-83955218D01*
X151187874Y-84043782D01*
X151149447Y-84123574D01*
X151080206Y-84178793D01*
X151038939Y-84193328D01*
X149762536Y-84490165D01*
X149762520Y-84490170D01*
X149665123Y-84521446D01*
X149486082Y-84617932D01*
X149486077Y-84617936D01*
X149330134Y-84748477D01*
X149330132Y-84748478D01*
X149203653Y-84907746D01*
X149182271Y-84949999D01*
X149182271Y-84950000D01*
X155350000Y-84950000D01*
X155350000Y-84395954D01*
X155349999Y-84395951D01*
X155337020Y-84259918D01*
X155337018Y-84259908D01*
X155276027Y-84056710D01*
X155270080Y-83968346D01*
X155303061Y-83886153D01*
X155368439Y-83826410D01*
X155453263Y-83800949D01*
X155466626Y-83800500D01*
X155600501Y-83800500D01*
X155686844Y-83820207D01*
X155756085Y-83875426D01*
X155794512Y-83955218D01*
X155799501Y-83999500D01*
X155799501Y-85697876D01*
X155805908Y-85757481D01*
X155856203Y-85892329D01*
X155856207Y-85892335D01*
X155942453Y-86007546D01*
X156028219Y-86071750D01*
X156057669Y-86093796D01*
X156192517Y-86144091D01*
X156252127Y-86150500D01*
X159147872Y-86150499D01*
X159147876Y-86150499D01*
X159187612Y-86146227D01*
X159207483Y-86144091D01*
X159342331Y-86093796D01*
X159457546Y-86007546D01*
X159543796Y-85892331D01*
X159594091Y-85757483D01*
X159600500Y-85697873D01*
X159600499Y-80302128D01*
X159600499Y-80302127D01*
X159600499Y-80302123D01*
X159594091Y-80242518D01*
X159543796Y-80107670D01*
X159543796Y-80107669D01*
X159467669Y-80005976D01*
X159457546Y-79992453D01*
X159342335Y-79906207D01*
X159342331Y-79906204D01*
X159207483Y-79855909D01*
X159147873Y-79849500D01*
X159147867Y-79849500D01*
X156252123Y-79849500D01*
X156192518Y-79855908D01*
X156057670Y-79906203D01*
X156057664Y-79906207D01*
X155942453Y-79992453D01*
X155856207Y-80107664D01*
X155856204Y-80107669D01*
X155805909Y-80242517D01*
X155799500Y-80302127D01*
X155799500Y-80302128D01*
X155799500Y-80302132D01*
X155799500Y-82000500D01*
X155779793Y-82086843D01*
X155724574Y-82156084D01*
X155644782Y-82194511D01*
X155600500Y-82199500D01*
X149128842Y-82199500D01*
X148971157Y-82199500D01*
X148937230Y-82206248D01*
X148903303Y-82212997D01*
X148813323Y-82230895D01*
X148771803Y-82229730D01*
X148730218Y-82229730D01*
X148727645Y-82228491D01*
X148724794Y-82228411D01*
X148687876Y-82209338D01*
X148650426Y-82191303D01*
X148648646Y-82189072D01*
X148646111Y-82187762D01*
X148621122Y-82154558D01*
X148595207Y-82122062D01*
X148594571Y-82119278D01*
X148592856Y-82116999D01*
X148575500Y-82035719D01*
X148575500Y-81918375D01*
X148595207Y-81832032D01*
X148650426Y-81762791D01*
X148730218Y-81724364D01*
X148818782Y-81724364D01*
X148823123Y-81725407D01*
X148924999Y-81751077D01*
X148925000Y-81751077D01*
X148925000Y-75230000D01*
X150025000Y-75230000D01*
X150025000Y-77925000D01*
X150066214Y-77966214D01*
X150113333Y-78041202D01*
X150124500Y-78106928D01*
X150124500Y-78843071D01*
X150104793Y-78929414D01*
X150066215Y-78983785D01*
X150025000Y-79025000D01*
X150025000Y-81751077D01*
X150189509Y-81709625D01*
X150189511Y-81709624D01*
X150394378Y-81616569D01*
X150579331Y-81488434D01*
X150579338Y-81488428D01*
X150733979Y-81333786D01*
X150808967Y-81286667D01*
X150874688Y-81275499D01*
X151475304Y-81275499D01*
X151561647Y-81295206D01*
X151616018Y-81333785D01*
X151770661Y-81488428D01*
X151770668Y-81488434D01*
X151955621Y-81616569D01*
X152160488Y-81709624D01*
X152160490Y-81709625D01*
X152324999Y-81751077D01*
X152325000Y-81751077D01*
X153425000Y-81751077D01*
X153589509Y-81709625D01*
X153589511Y-81709624D01*
X153794378Y-81616569D01*
X153979331Y-81488434D01*
X153979338Y-81488428D01*
X154138428Y-81329338D01*
X154138434Y-81329331D01*
X154266569Y-81144378D01*
X154359624Y-80939511D01*
X154359625Y-80939509D01*
X154414598Y-80721338D01*
X154425000Y-80589182D01*
X154425000Y-79025000D01*
X153425000Y-79025000D01*
X153425000Y-81751077D01*
X152325000Y-81751077D01*
X152325000Y-79025000D01*
X152283785Y-78983785D01*
X152236666Y-78908797D01*
X152225499Y-78843074D01*
X152225499Y-78123998D01*
X152245206Y-78037657D01*
X152300425Y-77968416D01*
X152380217Y-77929989D01*
X152424499Y-77925000D01*
X154424999Y-77925000D01*
X154424999Y-76360816D01*
X154414599Y-76228668D01*
X154369107Y-76048123D01*
X154367121Y-75959582D01*
X154403747Y-75878947D01*
X154471733Y-75822189D01*
X154557612Y-75800550D01*
X154562076Y-75800500D01*
X168852797Y-75800500D01*
X168882885Y-75807367D01*
X168913629Y-75810026D01*
X168925586Y-75817113D01*
X168939140Y-75820207D01*
X168963269Y-75839449D01*
X168989814Y-75855184D01*
X168996529Y-75865974D01*
X169008381Y-75875426D01*
X169038862Y-75928925D01*
X169040996Y-75934551D01*
X169081522Y-76064606D01*
X169105153Y-76103696D01*
X169111565Y-76120600D01*
X169115235Y-76147001D01*
X169123604Y-76172310D01*
X169124500Y-76191175D01*
X169124500Y-79650500D01*
X169104793Y-79736843D01*
X169049574Y-79806084D01*
X168969782Y-79844511D01*
X168925500Y-79849500D01*
X166352123Y-79849500D01*
X166292518Y-79855908D01*
X166157670Y-79906203D01*
X166157664Y-79906207D01*
X166042453Y-79992453D01*
X165956207Y-80107664D01*
X165956204Y-80107669D01*
X165905909Y-80242517D01*
X165899500Y-80302127D01*
X165899500Y-80302128D01*
X165899500Y-80302132D01*
X165899500Y-85697876D01*
X165905908Y-85757481D01*
X165956203Y-85892329D01*
X165956207Y-85892335D01*
X166042453Y-86007546D01*
X166128219Y-86071750D01*
X166157669Y-86093796D01*
X166292517Y-86144091D01*
X166352127Y-86150500D01*
X169247872Y-86150499D01*
X169247876Y-86150499D01*
X169287612Y-86146227D01*
X169307483Y-86144091D01*
X169442331Y-86093796D01*
X169557546Y-86007546D01*
X169643796Y-85892331D01*
X169694091Y-85757483D01*
X169700500Y-85697873D01*
X169700500Y-83999500D01*
X169720207Y-83913157D01*
X169775426Y-83843916D01*
X169855218Y-83805489D01*
X169899500Y-83800500D01*
X170617059Y-83800500D01*
X170703402Y-83820207D01*
X170757773Y-83858786D01*
X170796951Y-83897964D01*
X170796953Y-83897965D01*
X170796956Y-83897968D01*
X170896192Y-83959178D01*
X170941306Y-83987005D01*
X171102285Y-84040347D01*
X171102286Y-84040347D01*
X171102292Y-84040349D01*
X171201655Y-84050500D01*
X171798344Y-84050499D01*
X171897708Y-84040349D01*
X171897712Y-84040348D01*
X172058693Y-83987005D01*
X172058695Y-83987003D01*
X172058697Y-83987003D01*
X172203044Y-83897968D01*
X172214859Y-83886153D01*
X172242227Y-83858786D01*
X172270496Y-83841022D01*
X172296598Y-83820207D01*
X172307631Y-83817688D01*
X172317215Y-83811667D01*
X172382941Y-83800500D01*
X172400501Y-83800500D01*
X172486844Y-83820207D01*
X172556085Y-83875426D01*
X172594512Y-83955218D01*
X172599501Y-83999500D01*
X172599501Y-84050013D01*
X172610000Y-84152795D01*
X172632413Y-84220433D01*
X172665186Y-84319334D01*
X172757288Y-84468656D01*
X172881344Y-84592712D01*
X173030666Y-84684814D01*
X173197203Y-84739999D01*
X173299991Y-84750500D01*
X177300008Y-84750499D01*
X177402797Y-84739999D01*
X177569334Y-84684814D01*
X177718656Y-84592712D01*
X177842712Y-84468656D01*
X177934814Y-84319334D01*
X177957789Y-84250000D01*
X180523922Y-84250000D01*
X180565374Y-84414509D01*
X180565375Y-84414511D01*
X180658430Y-84619378D01*
X180786565Y-84804331D01*
X180786571Y-84804338D01*
X180945661Y-84963428D01*
X180945668Y-84963434D01*
X181130621Y-85091569D01*
X181335488Y-85184624D01*
X181335490Y-85184625D01*
X181553661Y-85239598D01*
X181685816Y-85249999D01*
X182449999Y-85249999D01*
X182450000Y-85249998D01*
X182450000Y-84250000D01*
X180523922Y-84250000D01*
X177957789Y-84250000D01*
X177989999Y-84152797D01*
X178000500Y-84050009D01*
X178000499Y-81949992D01*
X177989999Y-81847203D01*
X177957789Y-81749999D01*
X180523922Y-81749999D01*
X180523923Y-81750000D01*
X182450000Y-81750000D01*
X182450000Y-80750000D01*
X181685816Y-80750000D01*
X181553668Y-80760400D01*
X181335484Y-80815376D01*
X181130621Y-80908430D01*
X180945668Y-81036565D01*
X180945661Y-81036571D01*
X180786571Y-81195661D01*
X180786565Y-81195668D01*
X180658430Y-81380621D01*
X180565375Y-81585488D01*
X180565374Y-81585490D01*
X180523922Y-81749999D01*
X177957789Y-81749999D01*
X177934814Y-81680666D01*
X177842712Y-81531344D01*
X177718656Y-81407288D01*
X177599488Y-81333785D01*
X177569336Y-81315187D01*
X177569334Y-81315186D01*
X177402801Y-81260002D01*
X177402799Y-81260001D01*
X177402797Y-81260001D01*
X177300009Y-81249500D01*
X177300000Y-81249500D01*
X174764006Y-81249500D01*
X174677663Y-81229793D01*
X174623292Y-81191214D01*
X174018786Y-80586708D01*
X173971667Y-80511720D01*
X173960500Y-80445994D01*
X173960500Y-73229108D01*
X173980207Y-73142765D01*
X174018786Y-73088393D01*
X174029856Y-73077322D01*
X174039792Y-73070104D01*
X174190104Y-72919792D01*
X174197320Y-72909859D01*
X174208395Y-72898785D01*
X174232959Y-72883350D01*
X174254806Y-72864263D01*
X174270020Y-72860063D01*
X174283384Y-72851667D01*
X174312214Y-72848418D01*
X174340177Y-72840701D01*
X174349109Y-72840500D01*
X176560891Y-72840500D01*
X176647234Y-72860207D01*
X176714660Y-72913979D01*
X176714817Y-72913846D01*
X176715507Y-72914654D01*
X176716475Y-72915426D01*
X176719013Y-72918759D01*
X176719891Y-72919787D01*
X176719895Y-72919791D01*
X176719896Y-72919792D01*
X176870208Y-73070104D01*
X177042184Y-73195051D01*
X177109025Y-73229108D01*
X177231581Y-73291554D01*
X177231584Y-73291555D01*
X177231588Y-73291557D01*
X177433757Y-73357246D01*
X177643713Y-73390500D01*
X177856287Y-73390500D01*
X178066243Y-73357246D01*
X178268412Y-73291557D01*
X178457816Y-73195051D01*
X178629792Y-73070104D01*
X178780104Y-72919792D01*
X178780108Y-72919787D01*
X178785183Y-72913846D01*
X178786635Y-72915086D01*
X178844806Y-72864263D01*
X178930177Y-72840701D01*
X178939109Y-72840500D01*
X181150891Y-72840500D01*
X181237234Y-72860207D01*
X181304660Y-72913979D01*
X181304817Y-72913846D01*
X181305507Y-72914654D01*
X181306475Y-72915426D01*
X181309013Y-72918759D01*
X181309891Y-72919787D01*
X181309895Y-72919791D01*
X181309896Y-72919792D01*
X181460208Y-73070104D01*
X181632184Y-73195051D01*
X181699025Y-73229108D01*
X181821581Y-73291554D01*
X181821584Y-73291555D01*
X181821588Y-73291557D01*
X182023757Y-73357246D01*
X182233713Y-73390500D01*
X182446287Y-73390500D01*
X182656243Y-73357246D01*
X182858412Y-73291557D01*
X183047816Y-73195051D01*
X183219792Y-73070104D01*
X183370104Y-72919792D01*
X183495051Y-72747816D01*
X183591557Y-72558412D01*
X183657246Y-72356243D01*
X183690500Y-72146287D01*
X183690500Y-71933713D01*
X183690499Y-71933707D01*
X183689886Y-71925918D01*
X183691793Y-71925767D01*
X183696981Y-71848711D01*
X183740680Y-71771680D01*
X183746842Y-71765234D01*
X185131788Y-70380290D01*
X185131789Y-70380289D01*
X185219394Y-70249179D01*
X185279737Y-70103497D01*
X185310500Y-69948842D01*
X185310500Y-69051158D01*
X185310086Y-69049075D01*
X185279738Y-68896505D01*
X185279595Y-68896160D01*
X185279578Y-68896118D01*
X185262064Y-68853838D01*
X185262063Y-68853834D01*
X185219393Y-68750819D01*
X185219392Y-68750817D01*
X185171178Y-68678661D01*
X185131789Y-68619711D01*
X185020289Y-68508211D01*
X183748785Y-67236707D01*
X183701666Y-67161719D01*
X183690499Y-67095993D01*
X183690499Y-66062123D01*
X183684091Y-66002518D01*
X183639391Y-65882669D01*
X183633796Y-65867669D01*
X183611750Y-65838219D01*
X183547546Y-65752453D01*
X183432335Y-65666207D01*
X183432331Y-65666204D01*
X183297483Y-65615909D01*
X183237873Y-65609500D01*
X183237867Y-65609500D01*
X181442123Y-65609500D01*
X181382518Y-65615908D01*
X181247670Y-65666203D01*
X181247664Y-65666207D01*
X181132453Y-65752453D01*
X181046207Y-65867664D01*
X181046204Y-65867669D01*
X180995907Y-66002521D01*
X180995021Y-66006273D01*
X180992890Y-66010612D01*
X180991559Y-66014181D01*
X180991202Y-66014048D01*
X180955982Y-66085768D01*
X180886318Y-66140452D01*
X180801357Y-66159500D01*
X179288643Y-66159500D01*
X179202300Y-66139793D01*
X179133059Y-66084574D01*
X179098768Y-66014060D01*
X179098442Y-66014182D01*
X179097173Y-66010780D01*
X179094977Y-66006264D01*
X179094092Y-66002519D01*
X179049391Y-65882670D01*
X179043796Y-65867669D01*
X179021750Y-65838219D01*
X178957546Y-65752453D01*
X178842335Y-65666207D01*
X178842331Y-65666204D01*
X178707483Y-65615909D01*
X178647873Y-65609500D01*
X178647867Y-65609500D01*
X176852123Y-65609500D01*
X176792518Y-65615908D01*
X176657670Y-65666203D01*
X176657664Y-65666207D01*
X176542453Y-65752453D01*
X176456207Y-65867664D01*
X176456204Y-65867669D01*
X176405907Y-66002521D01*
X176405021Y-66006273D01*
X176402890Y-66010612D01*
X176401559Y-66014181D01*
X176401202Y-66014048D01*
X176365982Y-66085768D01*
X176296318Y-66140452D01*
X176211357Y-66159500D01*
X174698643Y-66159500D01*
X174612300Y-66139793D01*
X174543059Y-66084574D01*
X174508768Y-66014060D01*
X174508442Y-66014182D01*
X174507173Y-66010780D01*
X174504977Y-66006264D01*
X174504092Y-66002519D01*
X174459391Y-65882670D01*
X174453796Y-65867669D01*
X174431750Y-65838219D01*
X174367546Y-65752453D01*
X174252335Y-65666207D01*
X174252331Y-65666204D01*
X174117483Y-65615909D01*
X174057873Y-65609500D01*
X174057867Y-65609500D01*
X172262123Y-65609500D01*
X172202518Y-65615908D01*
X172067670Y-65666203D01*
X172067664Y-65666207D01*
X171952453Y-65752453D01*
X171866207Y-65867664D01*
X171866204Y-65867669D01*
X171815907Y-66002521D01*
X171815021Y-66006273D01*
X171812890Y-66010612D01*
X171811559Y-66014181D01*
X171811202Y-66014048D01*
X171775982Y-66085768D01*
X171706318Y-66140452D01*
X171621357Y-66159500D01*
X170108643Y-66159500D01*
X170022300Y-66139793D01*
X169953059Y-66084574D01*
X169918768Y-66014060D01*
X169918442Y-66014182D01*
X169917173Y-66010780D01*
X169914977Y-66006264D01*
X169914092Y-66002519D01*
X169869391Y-65882670D01*
X169863796Y-65867669D01*
X169841750Y-65838219D01*
X169777546Y-65752453D01*
X169662335Y-65666207D01*
X169662331Y-65666204D01*
X169527483Y-65615909D01*
X169467873Y-65609500D01*
X169467867Y-65609500D01*
X167672123Y-65609500D01*
X167612518Y-65615908D01*
X167477670Y-65666203D01*
X167477664Y-65666207D01*
X167362453Y-65752453D01*
X167276207Y-65867664D01*
X167276204Y-65867669D01*
X167225907Y-66002521D01*
X167225021Y-66006273D01*
X167222890Y-66010612D01*
X167221559Y-66014181D01*
X167221202Y-66014048D01*
X167185982Y-66085768D01*
X167116318Y-66140452D01*
X167031357Y-66159500D01*
X165518643Y-66159500D01*
X165432300Y-66139793D01*
X165363059Y-66084574D01*
X165328768Y-66014060D01*
X165328442Y-66014182D01*
X165327173Y-66010780D01*
X165324977Y-66006264D01*
X165324092Y-66002519D01*
X165279391Y-65882670D01*
X165273796Y-65867669D01*
X165251750Y-65838219D01*
X165187546Y-65752453D01*
X165072335Y-65666207D01*
X165072331Y-65666204D01*
X164937483Y-65615909D01*
X164877873Y-65609500D01*
X164877867Y-65609500D01*
X163082123Y-65609500D01*
X163022518Y-65615908D01*
X162887670Y-65666203D01*
X162887664Y-65666207D01*
X162772453Y-65752453D01*
X162686207Y-65867664D01*
X162686204Y-65867669D01*
X162635907Y-66002521D01*
X162635021Y-66006273D01*
X162632890Y-66010612D01*
X162631559Y-66014181D01*
X162631202Y-66014048D01*
X162595982Y-66085768D01*
X162526318Y-66140452D01*
X162441357Y-66159500D01*
X160928643Y-66159500D01*
X160842300Y-66139793D01*
X160773059Y-66084574D01*
X160738768Y-66014060D01*
X160738442Y-66014182D01*
X160737173Y-66010780D01*
X160734977Y-66006264D01*
X160734092Y-66002519D01*
X160689391Y-65882670D01*
X160683796Y-65867669D01*
X160661750Y-65838219D01*
X160597546Y-65752453D01*
X160482335Y-65666207D01*
X160482331Y-65666204D01*
X160347483Y-65615909D01*
X160287873Y-65609500D01*
X160287867Y-65609500D01*
X158492123Y-65609500D01*
X158432518Y-65615908D01*
X158297670Y-65666203D01*
X158297664Y-65666207D01*
X158182453Y-65752453D01*
X158096207Y-65867664D01*
X158096204Y-65867669D01*
X158045909Y-66002517D01*
X158039500Y-66062127D01*
X158039500Y-66062128D01*
X158039500Y-66062132D01*
X158039500Y-67857876D01*
X158045908Y-67917481D01*
X158096203Y-68052329D01*
X158096207Y-68052335D01*
X158182453Y-68167546D01*
X158202491Y-68182546D01*
X158297669Y-68253796D01*
X158432517Y-68304091D01*
X158492127Y-68310500D01*
X160287872Y-68310499D01*
X160287876Y-68310499D01*
X160327612Y-68306227D01*
X160347483Y-68304091D01*
X160482331Y-68253796D01*
X160597546Y-68167546D01*
X160683796Y-68052331D01*
X160734091Y-67917483D01*
X160734092Y-67917478D01*
X160734979Y-67913727D01*
X160737109Y-67909387D01*
X160738441Y-67905819D01*
X160738797Y-67905951D01*
X160774018Y-67834232D01*
X160843682Y-67779548D01*
X160928643Y-67760500D01*
X162441357Y-67760500D01*
X162527700Y-67780207D01*
X162596941Y-67835426D01*
X162631231Y-67905939D01*
X162631558Y-67905818D01*
X162632826Y-67909219D01*
X162635023Y-67913736D01*
X162635907Y-67917480D01*
X162686203Y-68052329D01*
X162686207Y-68052335D01*
X162772453Y-68167546D01*
X162792491Y-68182546D01*
X162887669Y-68253796D01*
X163022517Y-68304091D01*
X163082127Y-68310500D01*
X164877872Y-68310499D01*
X164877876Y-68310499D01*
X164917612Y-68306227D01*
X164937483Y-68304091D01*
X165072331Y-68253796D01*
X165187546Y-68167546D01*
X165273796Y-68052331D01*
X165324091Y-67917483D01*
X165324092Y-67917478D01*
X165324979Y-67913727D01*
X165327109Y-67909387D01*
X165328441Y-67905819D01*
X165328797Y-67905951D01*
X165364018Y-67834232D01*
X165433682Y-67779548D01*
X165518643Y-67760500D01*
X167031357Y-67760500D01*
X167117700Y-67780207D01*
X167186941Y-67835426D01*
X167221231Y-67905939D01*
X167221558Y-67905818D01*
X167222826Y-67909219D01*
X167225023Y-67913736D01*
X167225907Y-67917480D01*
X167276203Y-68052329D01*
X167276207Y-68052335D01*
X167362453Y-68167546D01*
X167382491Y-68182546D01*
X167477669Y-68253796D01*
X167612517Y-68304091D01*
X167672127Y-68310500D01*
X169467872Y-68310499D01*
X169467876Y-68310499D01*
X169507612Y-68306227D01*
X169527483Y-68304091D01*
X169662331Y-68253796D01*
X169777546Y-68167546D01*
X169863796Y-68052331D01*
X169914091Y-67917483D01*
X169914092Y-67917478D01*
X169914979Y-67913727D01*
X169917109Y-67909387D01*
X169918441Y-67905819D01*
X169918797Y-67905951D01*
X169954018Y-67834232D01*
X170023682Y-67779548D01*
X170108643Y-67760500D01*
X171621357Y-67760500D01*
X171707700Y-67780207D01*
X171776941Y-67835426D01*
X171811231Y-67905939D01*
X171811558Y-67905818D01*
X171812826Y-67909219D01*
X171815023Y-67913736D01*
X171815907Y-67917480D01*
X171866203Y-68052329D01*
X171866207Y-68052335D01*
X171952453Y-68167546D01*
X171972491Y-68182546D01*
X172067669Y-68253796D01*
X172202517Y-68304091D01*
X172262127Y-68310500D01*
X174057872Y-68310499D01*
X174057876Y-68310499D01*
X174097612Y-68306227D01*
X174117483Y-68304091D01*
X174252331Y-68253796D01*
X174367546Y-68167546D01*
X174453796Y-68052331D01*
X174504091Y-67917483D01*
X174504092Y-67917478D01*
X174504979Y-67913727D01*
X174507109Y-67909387D01*
X174508441Y-67905819D01*
X174508797Y-67905951D01*
X174544018Y-67834232D01*
X174613682Y-67779548D01*
X174698643Y-67760500D01*
X176211357Y-67760500D01*
X176297700Y-67780207D01*
X176366941Y-67835426D01*
X176401231Y-67905939D01*
X176401558Y-67905818D01*
X176402826Y-67909219D01*
X176405023Y-67913736D01*
X176405907Y-67917480D01*
X176456203Y-68052329D01*
X176456207Y-68052335D01*
X176542453Y-68167546D01*
X176562491Y-68182546D01*
X176657669Y-68253796D01*
X176792517Y-68304091D01*
X176852127Y-68310500D01*
X178647872Y-68310499D01*
X178647876Y-68310499D01*
X178687612Y-68306227D01*
X178707483Y-68304091D01*
X178842331Y-68253796D01*
X178957546Y-68167546D01*
X179043796Y-68052331D01*
X179094091Y-67917483D01*
X179094092Y-67917478D01*
X179094979Y-67913727D01*
X179097109Y-67909387D01*
X179098441Y-67905819D01*
X179098797Y-67905951D01*
X179134018Y-67834232D01*
X179203682Y-67779548D01*
X179288643Y-67760500D01*
X180801357Y-67760500D01*
X180887700Y-67780207D01*
X180956941Y-67835426D01*
X180991231Y-67905939D01*
X180991558Y-67905818D01*
X180992826Y-67909219D01*
X180995023Y-67913736D01*
X180995907Y-67917480D01*
X181046203Y-68052329D01*
X181046207Y-68052335D01*
X181132453Y-68167546D01*
X181152491Y-68182546D01*
X181247669Y-68253796D01*
X181382517Y-68304091D01*
X181442127Y-68310500D01*
X182270153Y-68310499D01*
X182356495Y-68330206D01*
X182410866Y-68368785D01*
X182800326Y-68758245D01*
X182847445Y-68833233D01*
X182857361Y-68921240D01*
X182828110Y-69004833D01*
X182800326Y-69039673D01*
X182693552Y-69146446D01*
X182647007Y-69099901D01*
X182532993Y-69034075D01*
X182405826Y-69000000D01*
X182274174Y-69000000D01*
X182147007Y-69034075D01*
X182032993Y-69099901D01*
X181939901Y-69192993D01*
X181874075Y-69307007D01*
X181840000Y-69434174D01*
X181840000Y-69565826D01*
X181874075Y-69692993D01*
X181939901Y-69807007D01*
X182032993Y-69900099D01*
X182147007Y-69965925D01*
X182274174Y-70000000D01*
X182405826Y-70000000D01*
X182532993Y-69965925D01*
X182647007Y-69900099D01*
X182693553Y-69853553D01*
X182800327Y-69960327D01*
X182847446Y-70035315D01*
X182857362Y-70123322D01*
X182828111Y-70206915D01*
X182800327Y-70241755D01*
X182410868Y-70631214D01*
X182335880Y-70678333D01*
X182270154Y-70689500D01*
X182233713Y-70689500D01*
X182023765Y-70722752D01*
X182023748Y-70722756D01*
X181821592Y-70788441D01*
X181821581Y-70788445D01*
X181632187Y-70884947D01*
X181460211Y-71009893D01*
X181309891Y-71160212D01*
X181304817Y-71166154D01*
X181303364Y-71164913D01*
X181245194Y-71215737D01*
X181159823Y-71239299D01*
X181150891Y-71239500D01*
X178939109Y-71239500D01*
X178852766Y-71219793D01*
X178785339Y-71166020D01*
X178785183Y-71166154D01*
X178784492Y-71165345D01*
X178783525Y-71164574D01*
X178780986Y-71161240D01*
X178780108Y-71160212D01*
X178707396Y-71087500D01*
X178629792Y-71009896D01*
X178457816Y-70884949D01*
X178451223Y-70881590D01*
X178268418Y-70788445D01*
X178268407Y-70788441D01*
X178066251Y-70722756D01*
X178066234Y-70722752D01*
X177856287Y-70689500D01*
X177643713Y-70689500D01*
X177433765Y-70722752D01*
X177433748Y-70722756D01*
X177231592Y-70788441D01*
X177231581Y-70788445D01*
X177042187Y-70884947D01*
X176870211Y-71009893D01*
X176719891Y-71160212D01*
X176714817Y-71166154D01*
X176713364Y-71164913D01*
X176655194Y-71215737D01*
X176569823Y-71239299D01*
X176560891Y-71239500D01*
X174349109Y-71239500D01*
X174262766Y-71219793D01*
X174195339Y-71166020D01*
X174195183Y-71166154D01*
X174194492Y-71165345D01*
X174193525Y-71164574D01*
X174190986Y-71161240D01*
X174190108Y-71160212D01*
X174117396Y-71087500D01*
X174039792Y-71009896D01*
X173867816Y-70884949D01*
X173861223Y-70881590D01*
X173678418Y-70788445D01*
X173678407Y-70788441D01*
X173476251Y-70722756D01*
X173476234Y-70722752D01*
X173266287Y-70689500D01*
X173053713Y-70689500D01*
X172843765Y-70722752D01*
X172843748Y-70722756D01*
X172641592Y-70788441D01*
X172641581Y-70788445D01*
X172452187Y-70884947D01*
X172280211Y-71009893D01*
X172129891Y-71160212D01*
X172124817Y-71166154D01*
X172123364Y-71164913D01*
X172065194Y-71215737D01*
X171979823Y-71239299D01*
X171970891Y-71239500D01*
X169759109Y-71239500D01*
X169672766Y-71219793D01*
X169605339Y-71166020D01*
X169605183Y-71166154D01*
X169604492Y-71165345D01*
X169603525Y-71164574D01*
X169600986Y-71161240D01*
X169600108Y-71160212D01*
X169527396Y-71087500D01*
X169449792Y-71009896D01*
X169277816Y-70884949D01*
X169271223Y-70881590D01*
X169088418Y-70788445D01*
X169088407Y-70788441D01*
X168886251Y-70722756D01*
X168886234Y-70722752D01*
X168676287Y-70689500D01*
X168463713Y-70689500D01*
X168253765Y-70722752D01*
X168253748Y-70722756D01*
X168051592Y-70788441D01*
X168051581Y-70788445D01*
X167862187Y-70884947D01*
X167690211Y-71009893D01*
X167539891Y-71160212D01*
X167534817Y-71166154D01*
X167533364Y-71164913D01*
X167475194Y-71215737D01*
X167389823Y-71239299D01*
X167380891Y-71239500D01*
X165169109Y-71239500D01*
X165082766Y-71219793D01*
X165015339Y-71166020D01*
X165015183Y-71166154D01*
X165014492Y-71165345D01*
X165013525Y-71164574D01*
X165010986Y-71161240D01*
X165010108Y-71160212D01*
X164937396Y-71087500D01*
X164859792Y-71009896D01*
X164687816Y-70884949D01*
X164681223Y-70881590D01*
X164498418Y-70788445D01*
X164498407Y-70788441D01*
X164296251Y-70722756D01*
X164296234Y-70722752D01*
X164086287Y-70689500D01*
X163873713Y-70689500D01*
X163663765Y-70722752D01*
X163663748Y-70722756D01*
X163461592Y-70788441D01*
X163461581Y-70788445D01*
X163272187Y-70884947D01*
X163100211Y-71009893D01*
X162949891Y-71160212D01*
X162944817Y-71166154D01*
X162943364Y-71164913D01*
X162885194Y-71215737D01*
X162799823Y-71239299D01*
X162790891Y-71239500D01*
X160579109Y-71239500D01*
X160492766Y-71219793D01*
X160425339Y-71166020D01*
X160425183Y-71166154D01*
X160424492Y-71165345D01*
X160423525Y-71164574D01*
X160420986Y-71161240D01*
X160420108Y-71160212D01*
X160347396Y-71087500D01*
X160269792Y-71009896D01*
X160097816Y-70884949D01*
X160091223Y-70881590D01*
X159908418Y-70788445D01*
X159908407Y-70788441D01*
X159706251Y-70722756D01*
X159706234Y-70722752D01*
X159496287Y-70689500D01*
X159283713Y-70689500D01*
X159073765Y-70722752D01*
X159073748Y-70722756D01*
X158871592Y-70788441D01*
X158871581Y-70788445D01*
X158682187Y-70884947D01*
X158510210Y-71009893D01*
X158359893Y-71160210D01*
X158234947Y-71332187D01*
X158138445Y-71521581D01*
X158138441Y-71521592D01*
X158072756Y-71723748D01*
X158072752Y-71723765D01*
X158039500Y-71933713D01*
X158039500Y-72146286D01*
X158072752Y-72356234D01*
X158072756Y-72356251D01*
X158138441Y-72558407D01*
X158138445Y-72558418D01*
X158191951Y-72663428D01*
X158234949Y-72747816D01*
X158300523Y-72838071D01*
X158359893Y-72919789D01*
X158510210Y-73070106D01*
X158564688Y-73109685D01*
X158682184Y-73195051D01*
X158749025Y-73229108D01*
X158871581Y-73291554D01*
X158871584Y-73291555D01*
X158871588Y-73291557D01*
X159073757Y-73357246D01*
X159283713Y-73390500D01*
X159496287Y-73390500D01*
X159706243Y-73357246D01*
X159908412Y-73291557D01*
X160097816Y-73195051D01*
X160269792Y-73070104D01*
X160420104Y-72919792D01*
X160420108Y-72919787D01*
X160425183Y-72913846D01*
X160426635Y-72915086D01*
X160484806Y-72864263D01*
X160570177Y-72840701D01*
X160579109Y-72840500D01*
X162790891Y-72840500D01*
X162877234Y-72860207D01*
X162944660Y-72913979D01*
X162944817Y-72913846D01*
X162945507Y-72914654D01*
X162946475Y-72915426D01*
X162949013Y-72918759D01*
X162949891Y-72919787D01*
X162949895Y-72919791D01*
X162949896Y-72919792D01*
X163100208Y-73070104D01*
X163272184Y-73195051D01*
X163339025Y-73229108D01*
X163461581Y-73291554D01*
X163461584Y-73291555D01*
X163461588Y-73291557D01*
X163663757Y-73357246D01*
X163873713Y-73390500D01*
X164086287Y-73390500D01*
X164296243Y-73357246D01*
X164498412Y-73291557D01*
X164687816Y-73195051D01*
X164859792Y-73070104D01*
X165010104Y-72919792D01*
X165010108Y-72919787D01*
X165015183Y-72913846D01*
X165016635Y-72915086D01*
X165074806Y-72864263D01*
X165160177Y-72840701D01*
X165169109Y-72840500D01*
X167380891Y-72840500D01*
X167467234Y-72860207D01*
X167534660Y-72913979D01*
X167534817Y-72913846D01*
X167535507Y-72914654D01*
X167536475Y-72915426D01*
X167539013Y-72918759D01*
X167539891Y-72919787D01*
X167539895Y-72919791D01*
X167539896Y-72919792D01*
X167690208Y-73070104D01*
X167862184Y-73195051D01*
X167929025Y-73229108D01*
X168051581Y-73291554D01*
X168051584Y-73291555D01*
X168051588Y-73291557D01*
X168253757Y-73357246D01*
X168463713Y-73390500D01*
X168676287Y-73390500D01*
X168886243Y-73357246D01*
X169088412Y-73291557D01*
X169277816Y-73195051D01*
X169449792Y-73070104D01*
X169600104Y-72919792D01*
X169600108Y-72919787D01*
X169605183Y-72913846D01*
X169606635Y-72915086D01*
X169664806Y-72864263D01*
X169750177Y-72840701D01*
X169759109Y-72840500D01*
X171970891Y-72840500D01*
X172057234Y-72860207D01*
X172111605Y-72898785D01*
X172122679Y-72909859D01*
X172129896Y-72919792D01*
X172280208Y-73070104D01*
X172290143Y-73077322D01*
X172301214Y-73088393D01*
X172316647Y-73112954D01*
X172335732Y-73134796D01*
X172339932Y-73150013D01*
X172348333Y-73163382D01*
X172351580Y-73192207D01*
X172359299Y-73220166D01*
X172359500Y-73229108D01*
X172359500Y-73878494D01*
X172339793Y-73964837D01*
X172284574Y-74034078D01*
X172204782Y-74072505D01*
X172116218Y-74072505D01*
X172114939Y-74072208D01*
X171975000Y-74039294D01*
X171975000Y-75301000D01*
X171955293Y-75387343D01*
X171900074Y-75456584D01*
X171820282Y-75495011D01*
X171776000Y-75500000D01*
X171374000Y-75500000D01*
X171287657Y-75480293D01*
X171218416Y-75425074D01*
X171179989Y-75345282D01*
X171175000Y-75301000D01*
X171175000Y-74039295D01*
X171174999Y-74039294D01*
X170992021Y-74082331D01*
X170992016Y-74082333D01*
X170788580Y-74172158D01*
X170788564Y-74172167D01*
X170605101Y-74297842D01*
X170605094Y-74297848D01*
X170447850Y-74455093D01*
X170441973Y-74462171D01*
X170440196Y-74460695D01*
X170434120Y-74471137D01*
X170409570Y-74487750D01*
X170387793Y-74507859D01*
X170373312Y-74512287D01*
X170360773Y-74520773D01*
X170339483Y-74522632D01*
X170303101Y-74533758D01*
X170273154Y-74533670D01*
X170256966Y-74532400D01*
X170252196Y-74530914D01*
X170181616Y-74524500D01*
X170156215Y-74524500D01*
X170148449Y-74523891D01*
X170113432Y-74512956D01*
X170077663Y-74504793D01*
X170070099Y-74499426D01*
X170063911Y-74497494D01*
X170052971Y-74487273D01*
X170023292Y-74466214D01*
X169935292Y-74378214D01*
X169935289Y-74378211D01*
X169869293Y-74334114D01*
X169804181Y-74290607D01*
X169804174Y-74290603D01*
X169658500Y-74230264D01*
X169658498Y-74230263D01*
X169658497Y-74230263D01*
X169658495Y-74230262D01*
X169658493Y-74230262D01*
X169580125Y-74214673D01*
X169503842Y-74199500D01*
X156061475Y-74199500D01*
X155975132Y-74179793D01*
X155905891Y-74124574D01*
X155867464Y-74044782D01*
X155865458Y-73979802D01*
X155863942Y-73979683D01*
X155875000Y-73839181D01*
X155875000Y-70825000D01*
X150975000Y-70825000D01*
X150975000Y-75039428D01*
X150978436Y-75049247D01*
X150990366Y-75068234D01*
X150992876Y-75090515D01*
X151000282Y-75111679D01*
X150997771Y-75133960D01*
X151000282Y-75156241D01*
X150992876Y-75177404D01*
X150990366Y-75199686D01*
X150978436Y-75218672D01*
X150971031Y-75239834D01*
X150943247Y-75274674D01*
X150801383Y-75416538D01*
X150726395Y-75463657D01*
X150638388Y-75473573D01*
X150554795Y-75444322D01*
X150547342Y-75439403D01*
X150394378Y-75333430D01*
X150189512Y-75240375D01*
X150189510Y-75240374D01*
X150148341Y-75230001D01*
X150148332Y-75230000D01*
X150025000Y-75230000D01*
X148925000Y-75230000D01*
X148801668Y-75230000D01*
X148801658Y-75230001D01*
X148760489Y-75240374D01*
X148760487Y-75240375D01*
X148555621Y-75333430D01*
X148370668Y-75461565D01*
X148216018Y-75616215D01*
X148141029Y-75663333D01*
X148075304Y-75674500D01*
X147424992Y-75674500D01*
X147424986Y-75674501D01*
X147322204Y-75685000D01*
X147155665Y-75740186D01*
X147155663Y-75740187D01*
X147029469Y-75818024D01*
X146945635Y-75846578D01*
X146857714Y-75835930D01*
X146820531Y-75818024D01*
X146694336Y-75740187D01*
X146694334Y-75740186D01*
X146527801Y-75685002D01*
X146527799Y-75685001D01*
X146527797Y-75685001D01*
X146425009Y-75674500D01*
X146425000Y-75674500D01*
X145724992Y-75674500D01*
X145724986Y-75674501D01*
X145622204Y-75685000D01*
X145455665Y-75740186D01*
X145455663Y-75740187D01*
X145306347Y-75832286D01*
X145306340Y-75832291D01*
X145182291Y-75956340D01*
X145182286Y-75956347D01*
X145090187Y-76105663D01*
X145090186Y-76105665D01*
X145035002Y-76272198D01*
X145035001Y-76272200D01*
X145035001Y-76272203D01*
X145024500Y-76374991D01*
X145024500Y-76374999D01*
X145024500Y-78310993D01*
X145004793Y-78397336D01*
X144966214Y-78451707D01*
X141039433Y-82378487D01*
X140964445Y-82425606D01*
X140876438Y-82435522D01*
X140792845Y-82406271D01*
X140730221Y-82343647D01*
X140724060Y-82333142D01*
X140687228Y-82265688D01*
X140687226Y-82265685D01*
X140515739Y-82036605D01*
X140515733Y-82036599D01*
X140515731Y-82036596D01*
X140313403Y-81834268D01*
X140313399Y-81834265D01*
X140313395Y-81834261D01*
X140084315Y-81662774D01*
X140084311Y-81662771D01*
X139833161Y-81525633D01*
X139565048Y-81425631D01*
X139285427Y-81364803D01*
X139152731Y-81355313D01*
X139068014Y-81329496D01*
X139026214Y-81297534D01*
X137628680Y-79900000D01*
X137647473Y-79900000D01*
X137939895Y-79861502D01*
X138224791Y-79785165D01*
X138497285Y-79672294D01*
X138752715Y-79524821D01*
X138986711Y-79345269D01*
X139195269Y-79136711D01*
X139374821Y-78902715D01*
X139522294Y-78647285D01*
X139635165Y-78374791D01*
X139711502Y-78089895D01*
X139750000Y-77797473D01*
X139750000Y-77778680D01*
X141182786Y-79211466D01*
X141270720Y-78999178D01*
X141270723Y-78999169D01*
X141384800Y-78623105D01*
X141384805Y-78623083D01*
X141461477Y-78237631D01*
X141499999Y-77846513D01*
X141500000Y-77846505D01*
X141500000Y-77453494D01*
X141499999Y-77453486D01*
X141461477Y-77062368D01*
X141384805Y-76676916D01*
X141384801Y-76676900D01*
X141270718Y-76300816D01*
X141182787Y-76088531D01*
X139750000Y-77521318D01*
X139750000Y-77502527D01*
X139711502Y-77210105D01*
X139635165Y-76925209D01*
X139522294Y-76652715D01*
X139374821Y-76397285D01*
X139195269Y-76163289D01*
X138986711Y-75954731D01*
X138752715Y-75775179D01*
X138497285Y-75627706D01*
X138224791Y-75514835D01*
X137939895Y-75438498D01*
X137647473Y-75400000D01*
X137628681Y-75400000D01*
X139061467Y-73967212D01*
X139061467Y-73967211D01*
X138849198Y-73879287D01*
X138849185Y-73879282D01*
X138716986Y-73839180D01*
X143075001Y-73839180D01*
X143085400Y-73971330D01*
X143140376Y-74189514D01*
X143233430Y-74394377D01*
X143361570Y-74579337D01*
X143520662Y-74738429D01*
X143705622Y-74866569D01*
X143910489Y-74959624D01*
X143910491Y-74959625D01*
X144128662Y-75014598D01*
X144260818Y-75024999D01*
X147974999Y-75024999D01*
X147975000Y-75024998D01*
X147975000Y-70825000D01*
X143075001Y-70825000D01*
X143075001Y-73839180D01*
X138716986Y-73839180D01*
X138473099Y-73765198D01*
X138473083Y-73765194D01*
X138087631Y-73688522D01*
X137696513Y-73650000D01*
X137303486Y-73650000D01*
X136912368Y-73688522D01*
X136526916Y-73765194D01*
X136526900Y-73765198D01*
X136150811Y-73879283D01*
X135938531Y-73967212D01*
X137371320Y-75400000D01*
X137352527Y-75400000D01*
X137060105Y-75438498D01*
X136775209Y-75514835D01*
X136502715Y-75627706D01*
X136247285Y-75775179D01*
X136013289Y-75954731D01*
X135804731Y-76163289D01*
X135625179Y-76397285D01*
X135477706Y-76652715D01*
X135364835Y-76925209D01*
X135288498Y-77210105D01*
X135250000Y-77502527D01*
X135250000Y-77521319D01*
X133817212Y-76088531D01*
X133729283Y-76300811D01*
X133615198Y-76676900D01*
X133615194Y-76676916D01*
X133538522Y-77062368D01*
X133500000Y-77453486D01*
X133500000Y-77846513D01*
X133538522Y-78237631D01*
X133615194Y-78623083D01*
X133615198Y-78623099D01*
X133729282Y-78999185D01*
X133729287Y-78999198D01*
X133879681Y-79362282D01*
X134064951Y-79708897D01*
X134098232Y-79758705D01*
X134129815Y-79841445D01*
X134122371Y-79929695D01*
X134077374Y-80005976D01*
X134003736Y-80055179D01*
X133916043Y-80067559D01*
X133831662Y-80040664D01*
X133792055Y-80009977D01*
X132608786Y-78826708D01*
X132561667Y-78751720D01*
X132550500Y-78685994D01*
X132550500Y-71764183D01*
X137700001Y-71764183D01*
X137710400Y-71896331D01*
X137765376Y-72114515D01*
X137858430Y-72319378D01*
X137986565Y-72504331D01*
X137986571Y-72504338D01*
X138145661Y-72663428D01*
X138145668Y-72663434D01*
X138330621Y-72791569D01*
X138535488Y-72884624D01*
X138535490Y-72884625D01*
X138699999Y-72926077D01*
X138700000Y-72926077D01*
X140300000Y-72926077D01*
X140464509Y-72884625D01*
X140464511Y-72884624D01*
X140669378Y-72791569D01*
X140854331Y-72663434D01*
X140854338Y-72663428D01*
X141013428Y-72504338D01*
X141013434Y-72504331D01*
X141141569Y-72319378D01*
X141234624Y-72114511D01*
X141234625Y-72114509D01*
X141289598Y-71896338D01*
X141300000Y-71764182D01*
X141300000Y-71087500D01*
X140300000Y-71087500D01*
X140300000Y-72926077D01*
X138700000Y-72926077D01*
X138700000Y-71087500D01*
X137700001Y-71087500D01*
X137700001Y-71764183D01*
X132550500Y-71764183D01*
X132550500Y-71303341D01*
X132570207Y-71216998D01*
X132625426Y-71147757D01*
X132705218Y-71109330D01*
X132793782Y-71109330D01*
X132849001Y-71131002D01*
X132930017Y-71177777D01*
X133154063Y-71270579D01*
X133388306Y-71333345D01*
X133388315Y-71333347D01*
X133628737Y-71364999D01*
X133628743Y-71365000D01*
X133871257Y-71365000D01*
X133871262Y-71364999D01*
X134111684Y-71333347D01*
X134111688Y-71333346D01*
X134312465Y-71279547D01*
X134312465Y-71279546D01*
X133289673Y-70256754D01*
X133242554Y-70181766D01*
X133232638Y-70093759D01*
X133261889Y-70010166D01*
X133289673Y-69975326D01*
X133396446Y-69868552D01*
X133442993Y-69915099D01*
X133557007Y-69980925D01*
X133684174Y-70015000D01*
X133815826Y-70015000D01*
X133942993Y-69980925D01*
X134057007Y-69915099D01*
X134150099Y-69822007D01*
X134215925Y-69707993D01*
X134250000Y-69580826D01*
X134250000Y-69514999D01*
X134952081Y-69514999D01*
X134952081Y-69515000D01*
X135514546Y-70077465D01*
X135514547Y-70077465D01*
X135568346Y-69876688D01*
X135568347Y-69876684D01*
X135599999Y-69636262D01*
X135600000Y-69636257D01*
X135600000Y-69393742D01*
X135599999Y-69393737D01*
X135568347Y-69153315D01*
X135568346Y-69153311D01*
X135514546Y-68952533D01*
X134952081Y-69514999D01*
X134250000Y-69514999D01*
X134250000Y-69449174D01*
X134215925Y-69322007D01*
X134150099Y-69207993D01*
X134057007Y-69114901D01*
X133942993Y-69049075D01*
X133815826Y-69015000D01*
X133684174Y-69015000D01*
X133557007Y-69049075D01*
X133442993Y-69114901D01*
X133396447Y-69161447D01*
X133289673Y-69054673D01*
X133242554Y-68979685D01*
X133232638Y-68891678D01*
X133261889Y-68808085D01*
X133289673Y-68773245D01*
X133679133Y-68383785D01*
X133754121Y-68336666D01*
X133819847Y-68325499D01*
X134647877Y-68325499D01*
X134690451Y-68320921D01*
X134707483Y-68319091D01*
X134842331Y-68268796D01*
X134957546Y-68182546D01*
X135043796Y-68067331D01*
X135094091Y-67932483D01*
X135094092Y-67932478D01*
X135094979Y-67928727D01*
X135097109Y-67924387D01*
X135098441Y-67920819D01*
X135098797Y-67920951D01*
X135134018Y-67849232D01*
X135203682Y-67794548D01*
X135288643Y-67775500D01*
X137811099Y-67775500D01*
X137897442Y-67795207D01*
X137966683Y-67850426D01*
X138005110Y-67930218D01*
X138005110Y-68018782D01*
X137974678Y-68087827D01*
X137858430Y-68255621D01*
X137765375Y-68460488D01*
X137765374Y-68460490D01*
X137710401Y-68678661D01*
X137700000Y-68810817D01*
X137700000Y-69487500D01*
X141299999Y-69487500D01*
X141299999Y-69378737D01*
X157540000Y-69378737D01*
X157540000Y-69621262D01*
X157571652Y-69861684D01*
X157571653Y-69861689D01*
X157625452Y-70062466D01*
X158187918Y-69500001D01*
X158187918Y-69499999D01*
X158122093Y-69434174D01*
X158890000Y-69434174D01*
X158890000Y-69565826D01*
X158924075Y-69692993D01*
X158989901Y-69807007D01*
X159082993Y-69900099D01*
X159197007Y-69965925D01*
X159324174Y-70000000D01*
X159455826Y-70000000D01*
X159582993Y-69965925D01*
X159697007Y-69900099D01*
X159790099Y-69807007D01*
X159855925Y-69692993D01*
X159890000Y-69565826D01*
X159890000Y-69499999D01*
X160592081Y-69499999D01*
X160592081Y-69500000D01*
X161154546Y-70062465D01*
X161154547Y-70062465D01*
X161208346Y-69861688D01*
X161208347Y-69861684D01*
X161239999Y-69621262D01*
X161240000Y-69621257D01*
X161240000Y-69378742D01*
X161239999Y-69378737D01*
X162130000Y-69378737D01*
X162130000Y-69621262D01*
X162161652Y-69861684D01*
X162161653Y-69861689D01*
X162215452Y-70062466D01*
X162777918Y-69500001D01*
X162777918Y-69499999D01*
X162712093Y-69434174D01*
X163480000Y-69434174D01*
X163480000Y-69565826D01*
X163514075Y-69692993D01*
X163579901Y-69807007D01*
X163672993Y-69900099D01*
X163787007Y-69965925D01*
X163914174Y-70000000D01*
X164045826Y-70000000D01*
X164172993Y-69965925D01*
X164287007Y-69900099D01*
X164380099Y-69807007D01*
X164445925Y-69692993D01*
X164480000Y-69565826D01*
X164480000Y-69499999D01*
X165182081Y-69499999D01*
X165182081Y-69500000D01*
X165744546Y-70062465D01*
X165744547Y-70062465D01*
X165798346Y-69861688D01*
X165798347Y-69861684D01*
X165829999Y-69621262D01*
X165830000Y-69621257D01*
X165830000Y-69378742D01*
X165829999Y-69378737D01*
X166720000Y-69378737D01*
X166720000Y-69621262D01*
X166751652Y-69861684D01*
X166751653Y-69861689D01*
X166805452Y-70062466D01*
X167367918Y-69500001D01*
X167367918Y-69499999D01*
X167302093Y-69434174D01*
X168070000Y-69434174D01*
X168070000Y-69565826D01*
X168104075Y-69692993D01*
X168169901Y-69807007D01*
X168262993Y-69900099D01*
X168377007Y-69965925D01*
X168504174Y-70000000D01*
X168635826Y-70000000D01*
X168762993Y-69965925D01*
X168877007Y-69900099D01*
X168970099Y-69807007D01*
X169035925Y-69692993D01*
X169070000Y-69565826D01*
X169070000Y-69499999D01*
X169772081Y-69499999D01*
X169772081Y-69500000D01*
X170334546Y-70062465D01*
X170334547Y-70062465D01*
X170388346Y-69861688D01*
X170388347Y-69861684D01*
X170419999Y-69621262D01*
X170420000Y-69621257D01*
X170420000Y-69378742D01*
X170419999Y-69378737D01*
X171310000Y-69378737D01*
X171310000Y-69621262D01*
X171341652Y-69861684D01*
X171341653Y-69861689D01*
X171395452Y-70062466D01*
X171957918Y-69500001D01*
X171957918Y-69499999D01*
X171892093Y-69434174D01*
X172660000Y-69434174D01*
X172660000Y-69565826D01*
X172694075Y-69692993D01*
X172759901Y-69807007D01*
X172852993Y-69900099D01*
X172967007Y-69965925D01*
X173094174Y-70000000D01*
X173225826Y-70000000D01*
X173352993Y-69965925D01*
X173467007Y-69900099D01*
X173560099Y-69807007D01*
X173625925Y-69692993D01*
X173660000Y-69565826D01*
X173660000Y-69499999D01*
X174362081Y-69499999D01*
X174362081Y-69500000D01*
X174924546Y-70062465D01*
X174924547Y-70062465D01*
X174978346Y-69861688D01*
X174978347Y-69861684D01*
X175009999Y-69621262D01*
X175010000Y-69621257D01*
X175010000Y-69378742D01*
X175009999Y-69378737D01*
X175900000Y-69378737D01*
X175900000Y-69621262D01*
X175931652Y-69861684D01*
X175931653Y-69861689D01*
X175985452Y-70062466D01*
X176547918Y-69500001D01*
X176547918Y-69499999D01*
X176482093Y-69434174D01*
X177250000Y-69434174D01*
X177250000Y-69565826D01*
X177284075Y-69692993D01*
X177349901Y-69807007D01*
X177442993Y-69900099D01*
X177557007Y-69965925D01*
X177684174Y-70000000D01*
X177815826Y-70000000D01*
X177942993Y-69965925D01*
X178057007Y-69900099D01*
X178150099Y-69807007D01*
X178215925Y-69692993D01*
X178250000Y-69565826D01*
X178250000Y-69499999D01*
X178952081Y-69499999D01*
X178952081Y-69500000D01*
X179514546Y-70062465D01*
X179514547Y-70062465D01*
X179568346Y-69861688D01*
X179568347Y-69861684D01*
X179599999Y-69621262D01*
X179600000Y-69621257D01*
X179600000Y-69378742D01*
X179599999Y-69378737D01*
X180490000Y-69378737D01*
X180490000Y-69621262D01*
X180521652Y-69861684D01*
X180521653Y-69861689D01*
X180575452Y-70062466D01*
X181137918Y-69500001D01*
X181137918Y-69499999D01*
X180575451Y-68937532D01*
X180521654Y-69138306D01*
X180521652Y-69138315D01*
X180490000Y-69378737D01*
X179599999Y-69378737D01*
X179568347Y-69138315D01*
X179568346Y-69138311D01*
X179514546Y-68937533D01*
X178952081Y-69499999D01*
X178250000Y-69499999D01*
X178250000Y-69434174D01*
X178215925Y-69307007D01*
X178150099Y-69192993D01*
X178057007Y-69099901D01*
X177942993Y-69034075D01*
X177815826Y-69000000D01*
X177684174Y-69000000D01*
X177557007Y-69034075D01*
X177442993Y-69099901D01*
X177349901Y-69192993D01*
X177284075Y-69307007D01*
X177250000Y-69434174D01*
X176482093Y-69434174D01*
X175985451Y-68937532D01*
X175931654Y-69138306D01*
X175931652Y-69138315D01*
X175900000Y-69378737D01*
X175009999Y-69378737D01*
X174978347Y-69138315D01*
X174978346Y-69138311D01*
X174924546Y-68937533D01*
X174362081Y-69499999D01*
X173660000Y-69499999D01*
X173660000Y-69434174D01*
X173625925Y-69307007D01*
X173560099Y-69192993D01*
X173467007Y-69099901D01*
X173352993Y-69034075D01*
X173225826Y-69000000D01*
X173094174Y-69000000D01*
X172967007Y-69034075D01*
X172852993Y-69099901D01*
X172759901Y-69192993D01*
X172694075Y-69307007D01*
X172660000Y-69434174D01*
X171892093Y-69434174D01*
X171395452Y-68937532D01*
X171395451Y-68937532D01*
X171341654Y-69138306D01*
X171341652Y-69138315D01*
X171310000Y-69378737D01*
X170419999Y-69378737D01*
X170388347Y-69138315D01*
X170388346Y-69138311D01*
X170334546Y-68937533D01*
X169772081Y-69499999D01*
X169070000Y-69499999D01*
X169070000Y-69434174D01*
X169035925Y-69307007D01*
X168970099Y-69192993D01*
X168877007Y-69099901D01*
X168762993Y-69034075D01*
X168635826Y-69000000D01*
X168504174Y-69000000D01*
X168377007Y-69034075D01*
X168262993Y-69099901D01*
X168169901Y-69192993D01*
X168104075Y-69307007D01*
X168070000Y-69434174D01*
X167302093Y-69434174D01*
X166805452Y-68937532D01*
X166805451Y-68937532D01*
X166751654Y-69138306D01*
X166751652Y-69138315D01*
X166720000Y-69378737D01*
X165829999Y-69378737D01*
X165798347Y-69138315D01*
X165798346Y-69138311D01*
X165744546Y-68937533D01*
X165182081Y-69499999D01*
X164480000Y-69499999D01*
X164480000Y-69434174D01*
X164445925Y-69307007D01*
X164380099Y-69192993D01*
X164287007Y-69099901D01*
X164172993Y-69034075D01*
X164045826Y-69000000D01*
X163914174Y-69000000D01*
X163787007Y-69034075D01*
X163672993Y-69099901D01*
X163579901Y-69192993D01*
X163514075Y-69307007D01*
X163480000Y-69434174D01*
X162712093Y-69434174D01*
X162215451Y-68937532D01*
X162161654Y-69138306D01*
X162161652Y-69138315D01*
X162130000Y-69378737D01*
X161239999Y-69378737D01*
X161208347Y-69138315D01*
X161208346Y-69138311D01*
X161154546Y-68937533D01*
X160592081Y-69499999D01*
X159890000Y-69499999D01*
X159890000Y-69434174D01*
X159855925Y-69307007D01*
X159790099Y-69192993D01*
X159697007Y-69099901D01*
X159582993Y-69034075D01*
X159455826Y-69000000D01*
X159324174Y-69000000D01*
X159197007Y-69034075D01*
X159082993Y-69099901D01*
X158989901Y-69192993D01*
X158924075Y-69307007D01*
X158890000Y-69434174D01*
X158122093Y-69434174D01*
X157625452Y-68937532D01*
X157625451Y-68937532D01*
X157571654Y-69138306D01*
X157571652Y-69138315D01*
X157540000Y-69378737D01*
X141299999Y-69378737D01*
X141299999Y-68810816D01*
X141289599Y-68678668D01*
X141234623Y-68460484D01*
X141141569Y-68255621D01*
X141013434Y-68070668D01*
X141013428Y-68070661D01*
X140854338Y-67911571D01*
X140854331Y-67911565D01*
X140669378Y-67783430D01*
X140464511Y-67690375D01*
X140464508Y-67690374D01*
X140415615Y-67678054D01*
X140336704Y-67637848D01*
X140283053Y-67567384D01*
X140265288Y-67480621D01*
X140286928Y-67394742D01*
X140343685Y-67326757D01*
X140359769Y-67315713D01*
X140369331Y-67309814D01*
X140369334Y-67309814D01*
X140518656Y-67217712D01*
X140642712Y-67093656D01*
X140734814Y-66944334D01*
X140789999Y-66777797D01*
X140800500Y-66675009D01*
X140800499Y-64810818D01*
X143075000Y-64810818D01*
X143075000Y-67825000D01*
X147975000Y-67825000D01*
X150975000Y-67825000D01*
X155874999Y-67825000D01*
X155874999Y-64810819D01*
X155864599Y-64678669D01*
X155809623Y-64460485D01*
X155716569Y-64255622D01*
X155588429Y-64070662D01*
X155429337Y-63911570D01*
X155244377Y-63783430D01*
X155039510Y-63690375D01*
X155039508Y-63690374D01*
X154821337Y-63635401D01*
X154689181Y-63625000D01*
X150975000Y-63625000D01*
X150975000Y-67825000D01*
X147975000Y-67825000D01*
X147975000Y-63625000D01*
X144260819Y-63625000D01*
X144128669Y-63635400D01*
X143910485Y-63690376D01*
X143705622Y-63783430D01*
X143520662Y-63911570D01*
X143361570Y-64070662D01*
X143233430Y-64255622D01*
X143140375Y-64460489D01*
X143140374Y-64460491D01*
X143085401Y-64678662D01*
X143075000Y-64810818D01*
X140800499Y-64810818D01*
X140800499Y-63749992D01*
X140789999Y-63647203D01*
X140734814Y-63480666D01*
X140642712Y-63331344D01*
X140642710Y-63331342D01*
X140636056Y-63322926D01*
X140597962Y-63242974D01*
X140598330Y-63154412D01*
X140637088Y-63074779D01*
X140706559Y-63019850D01*
X140792155Y-63000500D01*
X186300500Y-63000500D01*
X186386843Y-63020207D01*
G37*
%TD.AperFunction*%
%TD*%
M02*
